<svg width="254" height="233" viewBox="0 0 254 233" fill="none" xmlns="http://www.w3.org/2000/svg">
<g clip-path="url(#clip0_4238_9339)">
<path d="M74.0834 149.157L59.3452 159.575V180.362H231.973" stroke="#333333" stroke-width="8.76521" stroke-linecap="round" stroke-linejoin="round"/>
<path d="M90.5346 226.224C99.372 226.224 106.536 219.075 106.536 210.257C106.536 201.439 99.372 194.29 90.5346 194.29C81.6973 194.29 74.5332 201.439 74.5332 210.257C74.5332 219.075 81.6973 226.224 90.5346 226.224Z" stroke="#333333" stroke-width="8.76521" stroke-linecap="round" stroke-linejoin="round"/>
<path d="M198.17 226.224C207.007 226.224 214.171 219.075 214.171 210.257C214.171 201.439 207.007 194.29 198.17 194.29C189.333 194.29 182.168 201.439 182.168 210.257C182.168 219.075 189.333 226.224 198.17 226.224Z" stroke="#333333" stroke-width="8.76521" stroke-linecap="round" stroke-linejoin="round"/>
<path d="M50.473 61.5116L41.4607 27.892L4.84033 4.83008" stroke="#333333" stroke-width="8.76521" stroke-linecap="round" stroke-linejoin="round"/>
<path d="M238.759 61.5127L215.153 149.578H214.699H74.0833L50.4731 61.5127H238.759Z" stroke="#333333" stroke-width="8.76521" stroke-linecap="round" stroke-linejoin="round"/>
<g style="mix-blend-mode:multiply">
<path d="M79.3789 77.4062H249.161C252.408 77.4062 254.732 80.5359 253.793 83.6366L232.399 163.206C231.78 165.244 229.902 166.635 227.767 166.635H95.6223C93.3668 166.635 91.4114 165.08 90.9032 162.887L74.6597 83.3178C73.9628 80.2944 76.2667 77.4062 79.3789 77.4062Z" fill="#FF4858"/>
</g>
<g style="mix-blend-mode:multiply">
<path d="M120.725 227.135C128.564 219.313 128.564 206.632 120.725 198.81C112.887 190.988 100.178 190.988 92.339 198.81C84.5004 206.632 84.5004 219.313 92.339 227.135C100.178 234.957 112.887 234.957 120.725 227.135Z" fill="#FF4858"/>
</g>
<g style="mix-blend-mode:multiply">
<path d="M222.835 231.477C233.076 227.243 237.94 215.527 233.698 205.308C229.455 195.088 217.714 190.235 207.472 194.468C197.231 198.701 192.367 210.417 196.609 220.637C200.852 230.857 212.593 235.71 222.835 231.477Z" fill="#FF4858"/>
</g>
</g>
<defs>
<clipPath id="clip0_4238_9339">
<rect width="254" height="233" fill="white"/>
</clipPath>
</defs>
</svg>
