<svg id="Layer_1" data-name="Layer 1" xmlns="http://www.w3.org/2000/svg" viewBox="0 0 1640.19 1907.9"><defs><style>.cls-1{fill:#2f0509;}.cls-2{fill:#ff4858;}.cls-3{fill:#d14657;}.cls-4{fill:#fc9aa6;}.cls-5{fill:#2485bf;}.cls-6{fill:#bc7581;}.cls-7{fill:#fff;}.cls-8{fill:#799d33;}.cls-9{fill:#d5dd23;}.cls-10{fill:#8cc53f;}.cls-11{fill:#72eafe;}</style></defs><path class="cls-1" d="M2391.22,2037.25c-1.4,7.37.05,10.78,8.64,10.71,17.27-.14,29.21,10.93,28.56,27.15-4.06,101.59-22.2,199.8-72.47,289.81-22.31,40-50.58,75.13-87.38,102.83-5.48,4.12-6.49,8.83-6.58,15-.56,36.41-7.82,71.25-26,103.22-2.54,4.49-2.29,7.55.84,11.41q17.68,21.83,34.9,44c2.64,3.41,6.08,4.72,9.72,6,14.56,5.18,26.22,13.95,33,28,2.48,5.14,5.68,6.55,11,6.43,41.4-1,82.8-1.8,124.21-2.66,22.46-.47,41.74,5.42,53.19,26.76a22.42,22.42,0,0,1,2.67,7.56,192.23,192.23,0,0,1-1.24,58.35c-5.85,32-30.1,57.18-74.54,61.41-36.89,3.5-74.12,3.45-111.19,5.23-3.65.17-9.24-2.45-10.33,4.32-.89,5.54-2.7,10.29,2.9,15.78,20.75,20.32,26.41,48.59,16,73.1-10.76,25.33-34.58,40.26-64.46,40a21,21,0,0,0-11.91,3.6c-35.18,21.84-77.61,14.57-101.47-17.16s-18.58-75,12.37-102.18c3.16-2.78,7.74-4.88,5.45-10.22-2.15-5-6.87-2.57-10.33-2.48-175.47,4.19-350.91,2.28-526.32-3-4.45-.13-10.54-3.56-13.41,2.91s2.28,9.68,6.12,13.55c18,18.22,24.08,47.37,13.54,70.52-11.49,25.22-31.26,39.4-59.5,40-6.75.15-12.55,1-18.58,4.83-32.64,20.79-75.57,13.2-98.81-16.92a74.94,74.94,0,0,1,7.9-100.11,49.13,49.13,0,0,1,6.19-5.37c5.38-3.62,2.52-8.38,1.95-12.76-.73-5.62-5.3-3.37-8.32-3.56-67.47-4-135-7.85-202.41-12-35.11-2.18-53.66-22.27-54.26-57.59-.2-11.39,1.34-22.55,3.58-33.67,2.67-13.31,9.41-22.9,21.75-29.81,23.45-13.14,46.66-26.88,69-41.87,18.16-12.21,36.7-16.26,57.63-10.27,4.86,1.38,10,1.72,14.85,3.18,8.68,2.62,14,1.84,16.72-8.79a26.38,26.38,0,0,1,21.4-19.72c12.61-1.9,21-9.14,29.56-17,7.75-7.14,15.2-14.73,23.6-21,7.67-5.74,8.58-10.89,4.09-19.42-11.41-21.74-19.73-44.83-28.26-67.87-16-43.29-14.15-86.31-.7-129.57,18-58,48.91-108.85,90.61-152.43,26.59-27.79,40.49-61.06,53.41-98.38-8,4.42-14.2,7.33-19.85,11.05-20.74,13.66-40.71,9.68-60.33-2.29-18.38-11.22-32.15-27.2-44.2-44.64-8-11.54-16.82-23-22-35.83-6.65-16.4-20.3-24.74-32.51-35.22-3.86-3.33-5.39-.43-7.64,1.31-8.42,6.51-18,10.75-27.6,15.19-11.77,5.45-19.82,16.06-29.86,24-11.41,9-16.46,8.34-22.23-5.45-2.68-6.39-4.13-13.3-6.17-20.08-7,2.88-13.62,6.27-21.26,6.61-7.37.32-11.72-3.2-10.59-10.36,3.54-22.52,4.69-46.06,12.43-67.11,11.59-31.51,38.41-44.24,71.35-44.91a444.19,444.19,0,0,1,78.25,5.12c13.3,2.09,25.1,8.11,35.53,16.87,24,20.12,46.59,41.54,66.77,67.36,16.28-31.18,35.42-58.94,65-78.48-3.5-4.78-8.55-4.61-12.61-6-67.37-23.53-120.37-63.28-149.35-130.74-12.48-29-13.83-59.89-15-90.62-2.09-55.1.42-110.13,4.65-165.09,1.4-18.3-5.08-36-3.14-54.67,3.29-31.66,15.06-58.51,38.36-80.37,34.52-32.39,71-62.23,110.66-88.21,6.92-4.53,13.39-9.59,17.72-16.77,41.94-69.53,105.37-86.54,180.82-73.88,21.55,3.61,42.4,9.94,62.78,17.78,10.39,4,20.26,4.34,30.22-1.76,50.42-30.87,99.35-25.68,146.71,7,6.18,4.26,11.47,6,19.21,4.49,51.95-10.08,104.36-15.59,157.28-10.52,32.26,3.09,48.36,20.81,50.63,53.29,1.44,20.71-1.93,40.89-12.2,58.72-5.59,9.71-2.25,12.67,5,17.51,39,25.82,69.45,59.29,88.31,102.35,16.94,38.64,24,79.66,26.8,121.55,2.75,40.64.86,81.24,0,121.87-.46,21.57-9.27,39.44-24.58,53.79-7,6.53-10.33,13.63-12.77,22.57-4.38,16-8.2,32.76-23.75,42.84-1.42.92-2.16,3.14-2.83,4.91-20.87,55.45-63.52,83.46-119.3,95.43a857.54,857.54,0,0,1-94.69,14.35c-6.18.62-12.63,1.12-18.29,3.36-3.77,1.49-11.81-1.55-10.87,4.79.86,5.74,3.72,13.54,11.36,14.8,12.47,2.06,24,6.15,34.35,13.28,5.44,3.76,9.35.92,13.91-1.1,37.67-16.66,74.79-34.67,115.54-43.27,31.13-6.58,60.46-3.75,87.44,14.19a16.6,16.6,0,0,0,13.23,2.49c45.35-8.43,66.18,5.93,86.79,48.3q7.9,16.25,16.34,32.16c5,9.45,2.25,14-8.33,14.33C2412.42,2043.73,2402,2040.41,2391.22,2037.25Zm-89.5,369.56-.21.07a6.87,6.87,0,0,0,2-1.16c38.83-47.14,63.11-101.56,79.76-159.77.51-1.78,0-3.84,0-5.77a4.85,4.85,0,0,0,.23-2.07,75.71,75.71,0,0,0,9-37.72,4.35,4.35,0,0,0,.39-2.13c3.06-1.76,2.58-4.54,2.1-7.32,10.4-36.88,12-74.83,13.79-112.77,1.32-5.18-1.15-8.42-5.77-9.83s-8.74.93-11.26,4.45a65,65,0,0,0-9.18,17.41c-4.44,13.38-12.09,24.94-21.74,35.19-9-2.22-15.23,1.23-21.78,7.9-42.33,43.1-90.66,74.89-153.48,77.6-6.58.28-7,3.27-4.92,8.25.68,4.59.87,9.33,2.16,13.75,2.57,8.88-1.11,18.65,4.53,27.11,7.94,11.92,15.44,24.13,23.14,36.22,23.93,45.3,41.86,92.71,50.29,143.45-.27,4.86-.32,9.59,6,3.79,4.71-4.32,9.16-8.9,13.73-13.37l2.15-2.14C2289.7,2421.55,2296.76,2415.13,2301.72,2406.81Zm-4.3,496.43c-.66,9.16-2.5,18.14-9.89,24.22-7.07,5.83-9.1,13.6-12,22.06,21.43-5,34.41-20,34.74-39,5.41-26-19.85-52.93-45-47.08,4,5,6.12,11.47,12,14.12C2288.68,2882.66,2294.28,2891.88,2297.42,2903.24Zm-690.35-1.75c-1.25,7.32-2,15.55-8.22,20-8.38,6-10,14.95-14.08,23.49,20.44-3,31.24-15.1,35.31-38.8,7.11-25.07-24.25-54.7-46.11-47.51,4.08,4.94,7,11.63,12.06,14C1598.8,2878.65,1604.53,2888.63,1607.07,2901.49Zm-35.56,14c4.62-17.51-4.67-38.83-22.29-51.18-18.22-12.77-42.66-12.59-61.46.45-16.81,11.66-25.79,32.66-21.58,50.42.91,26.72,24.85,48.45,53.09,48.18C1546.94,2963,1571,2941,1571.51,2915.44Zm690.42,4.32c4.63-21.84-4.87-38.17-21.46-50.51-18.42-13.71-38.69-13.45-58.39-2.72s-30.39,33.58-25.35,51.42c-1.19,24.78,21.9,47.86,49.22,49.18C2235.51,2968.56,2260.38,2947.52,2261.93,2919.76Zm-59.14-327.85.72.31c8.53-4.29,13.08-12,17.15-20.08,14.54-28.71,21.47-59.37,21.6-91.38.26-68.08-22.87-129.28-57.58-186.5-11.62-19.15-24.18-37.24-22.21-61.05.12-1.48-.71-3-1-4.56-9.4-54.61-33.41-103.56-58.75-152-2-3.87-4.12-6.57-8.87-5.66-4.6-.69-9.23-1.17-13.78-2.09-21.25-4.28-42-25.43-43.6-44.32,6.4-.49,8.34,5.14,11.4,8.78,16.6,19.69,37.32,25.84,61.91,19.27,9-2.41,18.06-5,26.62-8.59,34.42-14.58,68.6-29.72,103-44.38,15.51-6.62,18.82-5.28,24.24,10.32,6.59,19,20,29.06,39.16,32.65,5,.93,10,2.3,15,2.15,15.37-.46,23.3,9.05,29.13,21.13,2.7,5.57,4.43,10.74,12.48,8.7s13.84-5.43,12.25-15.08c1.28-26.26-14.9-50.89-40.48-61.33-3.14-1.28-5.89-3.09-5.43-6.41s3.93-3.39,6.67-3.46c14.38-.32,27.1,4.11,36.89,14.77,6.5,7.08,13.81,6,21.5,3.91,3.7-1,5.73-3,4.1-7.78-6.76-19.62-26.88-34-47.81-33-6.94.33-13.88,1.92-20.71,3.44-4.75,1-9.1,1.75-13.34-1.48-32.3-24.61-67.28-22.7-103.53-10.83-33.73,11-66.09,25.29-98,40.62-8.27,4-14.32,3.37-20.51-3.83-12.31-14.31-27.75-22.48-47.24-21.38-4.94.27-6.84-.38-6.73-7.1.1-5.66-1.76-15.31-12.53-13.89-6.87,1.17-13.76,2.28-20.62,3.54-4.44.82-5.66,2.84-3.28,7.28,5.1,9.54,9.71,19.34,14.52,29,3.77,13.85,8.56,27.46,9.72,41.91,3.87,48.27,18.49,92.81,45.25,133.43a185.83,185.83,0,0,1,20.31,40.67c27.52,78.67,31.9,157.36-.69,235.9-14.54,31-36.56,57-58.75,84.38,6.73.52,10.16-2.37,13.83-4.28a245.49,245.49,0,0,0,82.73-69.47c3-3.89,5.15-9.24,11.78-7.38,1.29,8.95-7.39,13.32-9.5,20.71-32.89,41.49-72.85,73.45-123.39,90.93-6.81,2.36-5,5.24-1.89,9.19,9.63,12,22.79,18.64,36.72,24,17.62,6.8,35.76,10.7,54.82,9.55,3.16-.2,7.79-1.2,7.9,4.21.08,4.1-3.67,4.62-6.71,5-7.33,1-14.71,2.56-22,2.35-9.61-.28-9.35,3.2-5.89,10.22a512,512,0,0,0,38.16,64.32c2.84,4.12,5.46,8.18,6.34,13.55,5.06,31.09,12.1,31,37.49,30,2.69.55,4.59-.68,5.84-2.87,5.59-9.86,12.86-18.4,22.8-28.07-21-1.19-28.25-16.4-36.79-30.13-1.49-2.4-4.82-5.22-1.12-8,2.85-2.11,5.11.93,6.87,2.72a89,89,0,0,0,37.33,22.89c4.72,1.48,9,4.61,13.21,7.41,16.37,10.89,16.38,11,31.68-.28,2.63-1.94,7.65-2.82,7.11-6.59-.61-4.21-6-4.17-9.24-6.17-6-3.76-15-1.61-18.88-9.94-3.48-7.39-7.86-14.35-11.58-21.63-1.27-2.48-4.52-5.56-.47-8.07,3.54-2.2,5.48,1.16,7.66,3.32,6.33,6.27,10.58,15.49,19.24,18.35a101.15,101.15,0,0,1,42.16,26.27c2.08,2.17,4.88,5.43,7.84,2.34,5.36-5.59,12.68-8.14,18.92-12.48a32.45,32.45,0,0,0-21.42-14.36c-6.72-1.35-10.89-4.93-14.82-10.15-9.14-12.13-18.23-24.38-28.41-35.61-7.79-8.59-16.35-18.09-30.29-9.78-2.55,1.52-5.95,1.79-9,2.28a6.86,6.86,0,0,1-7.5-4.25c-1.42-3.43.92-5.79,4.18-7.1,5.4-2.18,11.15-3.66,15.63-7.72C2203,2593,2203.12,2592.52,2202.79,2591.91Zm-577-16.42c-6.81-1.49-13.61-3.07-20.45-4.42-3.14-.63-6.72-1-6.89-4.87-.19-4.16,3.65-4.33,6.68-4.85,13.79-2.35,27.59-4.65,41.37-7,12.73-2.19,25.5-4.28,39.15-11.34-34.84-16.06-62-38.91-85-66.81-3.18-8-10.81-13.65-12.12-22.67,7.2-5.53,9.44,1.21,12.42,5.26,22.77,30.94,52.64,52.59,87.8,67.32,2.55,1.06,5.15,3.68,8.71,1-3.11-3.58-6.07-7.15-9.19-10.57-16.4-18-26-40.42-38.72-60.75-9-19.86-18.68-39.41-26.73-59.63-28.27-71-34.31-143.69-14.52-217.8,15-56.29,39.21-109.16,63.13-162,9.46-20.92,19.46-41.59,29.22-62.38,1.91-2.85,3.77-5.74,5.75-8.56,5.49-7.85,5.25-12.35-6.11-12.08-8.44.2-16.92-.71-25.38-1.12-7.29-3.52-9.77-.75-11.86,6.79-17.55,63.4-35,126.84-57,188.91-14.26,40.09-32.57,76.88-62.71,108.15-32.16,33.36-55.89,73-72.86,116.36-18.64,47.59-24.51,95.44-4.9,144.65,9.53,23.92,19,47.82,30.73,70.73,4.77,9.32,4.47,16.06-4.39,23.24-14.23,11.54-27.35,24.44-40.95,36.75-7.72,7-14.59,14.88-27,13.66-5.1-.5-11.56,3.39-10.24,10,1.43,7.1,19.15,10.68,24.66,5.61,11.81-10.87,24.19-21,38.25-28.8,3.87-2.15,8.93-8.26,12.88-2.64,3.62,5.16-3.69,7.41-6.73,10.43a128.61,128.61,0,0,1-13.93,12.5c-8.13,6-5.47,10.21,1.65,14.16,4.37,7.28,9.33,14.17,11.6,22.65.79,2.92-1.34,9,5.31,8.34,4.59-.43,6.2-3.77,7.27-7.88,2.84-11,8-21,13.5-30.79,2.17-3.64,4.4-7.24,6.5-10.91,5.75-10.07,13.89-16.65,25.74-17.91,4.62-.49,10.76-1.46,12,3.78s-5.64,3.5-8.62,5.37c-2,1.23-4.37,1.86-6.12,3.31-5.75,4.78-9.46,9.2.12,14.61,12,6.78,18.57,18.41,24.19,30.53.63,12.23,8,13,17.42,10.24,5.1-.11,8.53-2.5,11.29-6.91,11.77-18.83,24-37.36,35.68-56.26,5.74-9.29,10.32-19.27,12.56-30.09C1641.28,2589,1637.09,2581,1625.81,2575.49ZM2339.3,1609.7c-.62-15.94-1.09-31.86-2.83-47.77-8.37-76.92-38-141.4-105.33-184.79-10.31-6.64-19.91-11.89-32.14-6.21A324.41,324.41,0,0,1,2141,1374c22.31,20.55,37.79,41.62,47.76,66.47,12.14,30.25,17.58,66.52,11.22,77-3.26-3.31-3.37-7.72-4.43-11.75-6.5-24.53-13.93-48.74-25.95-71.24-15.83-29.62-36.91-55.31-68.37-67.86-26.28-10.48-51.8-21.21-74-39-9.61-10.9-20.69-19.92-36.12-15.46-12.92,3.73-16.28,15.32-17.12,27.56-1.94,7.56-3.73,15.15-5.83,22.66-20.37,72.8-78,124.55-146.73,131.88-81.23,8.65-151.46-27-187.61-95.85-3.66-7-6.79-6.38-12.48-4.09a417.11,417.11,0,0,0-95.52,53.79c-11.14,8.37-16.22,17.47-15,31.61,2,22-2.53,42.7-18.41,59.53-7.34,4.9-15.22,8.29-24.2,6.54-7.49-1.45-8.34,2.58-8.71,8.46-2.89,46-5.25,91.91-3,138,1.41,28.06,1.59,56.27,12.73,82.8,21.13,50.32,57.74,85.27,106.84,108,44.64,20.71,92,31.61,140.22,39.41a23,23,0,0,1,14.49,8.24l-16.38,34.64c-13.92,22.6-23.39,47.41-35.46,70.92-4.2,8.19-3.49,11.35,5.67,14.54,40.42,14.07,82.07,20.84,124.61,23.45,66.24,4.05,131.55-2.16,196.2-16.76,6.34-1.43,8.32-3.57,7.53-10-2.1-17-4-34-11.72-49.7-2.45-11.6-9.16-21.23-14.37-31.59-2.92-5.79-6.24-7.34-12.84-6.23-30.63,5.11-61.12,3.43-91.41-3.29-4.38-1-8.53-1.62-8.8-7.29,3.35-6.64,9.47-4.3,14.57-4.07,32.89,1.51,65.34-1.33,97.78-7.14,37.56-6.72,74.44-16.89,112.64-20.5,34.17-3.23,68-9.2,100.76-20,36.47-12,61.37-36.1,75.54-71.55,1.23-3.09,4-6.36.92-9.78-11.05-12.31-18.79-26.78-27.36-40.76-4.1-6.69-12.78-8-19.73-8.61-6.13-.56-4.91,7.63-7.26,11.75-3.66,6.42-6.3,13.49-10.46,19.54-8.89,12.93-21.86,13.62-32.42,2.06-8.45-9.26-15.23-19.76-21.86-30.38-2.37-3.79-2.77-10.83-10.39-8.28-6.56,2.2-11.66,4.91-11.84,13.56-.32,15.17-5.92,29-14.16,41.59-7.12,10.89-18,12.45-28.05,4.32-6.41-5.19-12.78-11-16-18.45-4.59-10.55-12.82-8.88-20.55-7.4-8.38,1.6-17.38-1-25.06,3.51-1.86,1.1-2.22,4.82-3.15,7.37a84.42,84.42,0,0,1-14.24,25.42c-9.22,11.12-21,11.79-31.29,1.53-10-10-18.41-21.41-22.93-35-2.17-6.52-6.1-9.2-12.34-10.45a216.23,216.23,0,0,1-44.48-14.29c-15-6.57-15-6.51-23.71,8.2-4,3.63-8,7.4-12.13,10.86-14.33,11.84-25.67,10.26-35.94-5.2-4.49-6.77-8.42-13.92-12.6-20.89-2.82-5.78-1.16-16.54-10-15.88-13.15,1-29.33-8.26-38.89,8.89-6.46,7.3-12.54,15-19.48,21.8-9.72,9.52-20.84,8.29-28.92-2.69-2.53-3.43-4.1-7.57-6.63-11-8-10.8-1.31-26.45-10.53-35.78-9-9.08-19.66-16.52-27.18-27.19-8.56-12.13-13.68-25.31-13.1-40.37.07-1.93.16-4.2,2.47-4.76s3.57,1.31,4.44,3c1.08,2.06,1.55,4.43,2.53,6.54,17.24,36.93,44.15,60.83,86.46,63.61a347.64,347.64,0,0,0,56.16-.84c21.76-2.1,43.57-4.62,63.61,8.16,45.86,29.28,96.89,37.17,150.12,35.53,21.92,2.55,42.71-1.64,62.63-10.66,20.17-9.14,40.08-18.86,60.44-27.52,23.31-9.91,46-11.11,69.5,2.26,19.52,11.1,41.16,17.91,64.44,17.58,29-.42,52.66-23.73,52.88-52.81.05-7.4.76-14.8,1-22.2C2340.75,1657.93,2343,1633.78,2339.3,1609.7Zm-917.43,370.08c-8,12.41,1.68,19.16,9.85,22.83,11.92,5.34,17.1,14.75,22.68,25.11,15,27.85,30.79,55.31,56.06,75.5,20.61,16.48,32.7,17.12,55.19,3.39,13.28-8.12,29.13-15.3,35.44-29.49a293.71,293.71,0,0,0,20.13-66.86c3.79-8.19,5.79-16.89,7.34-25.71,7-16.38,9.92-33.94,15-50.88,2.1-7-2.1-6.14-6.16-4.19-8.36,4-16.51,8.44-23.11,15.18-24.94,19.11-39.94,45.24-52.22,73.41-6.22,14.26-13.59,15.17-22.52,2.76-20.21-28.08-44.7-52-71.1-74.09a54.64,54.64,0,0,0-26.12-12.3c-28.2-4.93-56.59-5.41-85.09-3.85-18.39,1-38.6,15.9-44.09,33.3-1.48,4.68-4.76,10.08,2.73,13.89,7,3.58,10.73,2,14.8-4.6,6.62-10.78,15.15-19.92,28.67-22.14,3.4-.56,7.69-2,8.89,2.6,1,4-3.06,4.22-5.91,5.52-11.66,5.3-17,16-19.07,27.42-1.4,7.69,9.28,6.29,13,10.91.7.88,2.11,1.21,2.78,2.09,7.36,9.7,15,6.2,23.3,1.14,11.19-6.82,17.57-18.76,28.47-25.82,2.51-1.62,4.23-5.26,7.83-4.1C1423.13,1972.27,1421.85,1976.38,1421.87,1979.78Zm642.57,483.75c14.79-19.81,31.09-65.61,29.37-78.46-150.46,71.8-302.64,62.66-456.76,8.75a520.75,520.75,0,0,0,36.48,74.19c18,36.45,42,66,85,73.11,10.72,1.77,21.71,2.05,32.6,2.63,59.68,3.14,119.4,4.66,179.15,3.38,13.2-.28,27-1.86,37.33-11.35C2030.36,2514.79,2049,2490.35,2064.44,2463.53ZM1324.3,2671.24q-39.1,23.34-78.19,46.72c-2.59,1.55-6.79,2.87-6.43,6.1.47,4.18,5.21,3.68,8.43,4.49,40.15,10.16,81.13,15.6,122.13,20.35,66.33,7.67,133,11.13,199.7,13.82,132.76,5.37,265.6,6.54,398.41,4.59,118.72-1.75,237.41-5.95,356.1-9.69,39.39-1.24,78.91-1,118.08-6.15,15.9-2.08,31.48-5.81,39.49-22.35,6.14-15.86-2.41-29-21.07-29.09-36.89-.15-73.79,1.19-110.68,1.93-1.55,0-3.6-.34-4.55.49-3.1,2.68.79,3.37,1.78,4.91,3.07,4.93,6.34,9.75,9.17,14.82,6.61,11.82,2.86,18.6-10.68,19.07-9.35.33-18.71,0-28.06.12-3,0-6.93-.91-8.14,2.85-3.27,10.12-11.41,9-19.2,8.93-49.81-.6-99.62,1.29-149.43-1.61-25.28-1.48-35.32-7.72-44.16-31.71-1.33-3.61-2.61-7.24-3.92-10.87-1.07-8.9-8-4.41-11.86-4.43-154.34-1-308.66-2.69-462.84-10.25-4.85-.24-9.63-.92-11.1,5.45-5.31,3.06-6.39,11-13.72,11.77-29,3.09-56.66,10.58-84,21.34-18.71,7.37-24,1.63-23-18.1-13.26-1.31-26.25-.78-38.85,4.29a95,95,0,0,1-28.35,6.42c-8.25.63-14.37-2.64-13.42-11.73.7-6.76-2.45-7-7.23-6.82-9.74.38-19.48.94-29.22,1-13.85,0-17.54-5.89-11.67-18.29,2-4.21,4.15-8.33,6.23-12.5.58-2.54,8-5.64,1.18-7.35C1351.75,2666.32,1337.51,2660.08,1324.3,2671.24Zm555.44-247.9c22.06.68,58.94-2.8,95.44-9.92,40.83-8,80.13-20.12,114.55-44.77,6.19-4.44,9.5-9.48,9.89-17.34,1.85-37.33-1.16-74-11.62-110.09-2.26-7.78-5.44-9.63-13.14-7.78-63.14,15.18-127.14,24.36-192.11,26.31-88.89,2.67-176.28-4.81-259.59-39-7.15-2.93-8.35-1.1-9.11,5.79a350.58,350.58,0,0,0,9,126.59c3.75,14.71,10.59,23.3,24.58,29.22C1717.05,2411.78,1789.72,2422.93,1879.74,2423.34Zm-7-175.54c52.11.32,122.78-9,192.7-24.65,13.93-3.12,14-3.27,7.62-16.66-3.51-7.39-7.08-14.77-11.09-21.89-19.67-35-41.3-69.11-45.64-110.4-.72-6.91-5.08-5.25-9.4-4.22-35.73,8.57-72,13.52-108.64,16-75.43,5.1-149.81,1.19-221.65-24.95-6.08-2.21-8.22-.67-10.42,4.58-16.22,38.89-32.77,77.69-43.56,118.51-6.25,23.65-9.49,19.52,14.43,28.8C1706.54,2239.88,1779.19,2247.66,1872.72,2247.8Zm612.61,509.1c-24.84,15.08-51.31,16.71-77.88,17.61-57.38,1.94-114.79,3.27-172.15,5.63q-159.84,6.57-319.78,8.12c-161.69,1.82-323.4,1.31-484.67-13.51-59.48-5.46-118.7-12.52-177.21-24.77-23.33-4.89-23.29-5.07-21.84,19.45,1.13,19.31,11.39,29.59,30.79,31.17,66.18,5.4,132.49,8.67,198.78,12.22,101.43,5.42,202.94,8.71,304.47,10.95,111,2.44,221.9,2.24,332.87.68q162.91-2.29,325.61-10.47C2458.52,2812.27,2484.34,2793.3,2485.33,2756.9Zm-405.06-73.67c-13.07-21.38-24.71-41.08-33.81-62.09-2.35-5.41-5.67-8.55-11.39-10.34-21.13-6.59-38.63-18.57-50.76-37.32-3.19-4.93-7-5.08-11.81-5.11-83.56-.65-167.09-1.93-250.43-8.95-7.26-.61-15-2.56-22,.45-14.68,6.3-30.11,10.09-44.87,14,13.74,40.64-14.76,67.81-31,100.17C1776,2681.33,1926.91,2683.9,2080.27,2683.23ZM2122,2067.56a10.61,10.61,0,0,0,.48,2.66c19,37.49,37.85,75.07,49.51,115.68,1.59,5.55,5,4.87,8.85,4.92,14.17.2,27.93-2.66,41.52-6.2,43.18-11.23,75.61-38.81,106.31-69.39,9.12-9.08,16.69-16.5,3.86-28-1.43-1.27-1.21-4.4-1.7-6.68-2.17-10.33-7.45-15.74-19-16.62-27.9-2.12-51.64-12.41-63.9-39.86-3-6.71-6.56-3.48-10.24-2C2199.1,2037.32,2161.92,2056,2122,2067.56ZM1727.55,1384c-1.49,3.51,2.44,4.87,6.35,6,11.93,3.61,24,6.68,35.77,10.83,7.5,2.65,10.31.22,12.31-6.81q16.08-56.54,32.8-112.87c2.39-8-.43-9.72-7.58-9.3-14.4.84-28.81,1.58-43.23,2-4.82.14-7,2.41-8.11,6.63C1746.64,1314.3,1737.37,1348.09,1727.55,1384Zm-90.49-103.06c63.7-29,131.54-27.81,201.26-28.21C1765.36,1221.32,1681,1219.56,1637.06,1280.91Zm219.39-9.19c-6.38.36-12.11-1.59-13.88,5.63-9.43,38.6-19,77.17-28.3,115.81-2.21,9.22,5,11,11.56,12.92,8.08,2.42,6.92-4.91,7.84-8.41,10-38.48,19.38-77.13,29.6-115.56C1865.67,1273.12,1863.52,1270.5,1856.45,1271.72Zm-239.55,51.86c-48.49,25.27-94.91,52.08-133,90.14-25.95,25.92-31.42,59.29-23.19,94.72-2.58-44.35,13.72-79.47,49.53-106.45,31.57-23.8,64.16-45.81,99-64.5C1614.12,1334.84,1619.19,1332.57,1616.9,1323.58Zm376.27-78.53c-33.31-21.46-82.45-15.88-108.55,9.3,20.11,0,38.32,2.09,55.81-.59S1975,1245.1,1993.17,1245.05Zm208.62,3.41c-10,4.83-19.24-5.14-24.52,5.94-8.56,18-16.31,36.32-24.37,54.52-1.93,4.37-2.4,8.73,3.09,10.63,5.08,1.77,10.89,4,14.15-3C2180.22,1295.08,2190.15,1273.54,2201.79,1248.46Zm-46.41.25c-7.81-1.55-11.73,2.72-14.76,9.65-6.41,14.66-13.56,29-20.21,43.55-1.86,4.09-7.15,9,1.41,12.06,6.08,2.18,11.68,4.44,15.59-4q12.08-25.92,25.28-51.32C2167.34,1249.78,2164.46,1247.42,2155.38,1248.71Zm10.54,505.18a181.47,181.47,0,0,0,22.32,34.07c4.76,5.87,8.48,5.85,12.46-.7,4.7-7.73,7.72-16.14,10.72-24.58,1.33-3.75,1-6.09-3.49-8.14C2194,1748.19,2180.27,1745.31,2165.92,1753.89Zm-325.14-6c-2.36,2.59-12.53-5-10.51,4.24,2.69,12.21,7.68,27.67,19.28,31.41,9.07,2.93,15.9-11.39,22.42-19.48a16.11,16.11,0,0,0,1.23-2c1.43-2.39,1.5-3.93-1.69-5.2C1861.89,1753,1853.4,1745.7,1840.78,1747.88Zm-332.3,964.9c12.61-2.6,21.83-10.5,32.92-14,2.87-.91,2.83-3.49,1.94-5.85-3-8.09-6.79-15.71-13.72-21.35-3.3-2.69-6.13-3.48-8.38,1C1515,2685.09,1510,2698,1508.48,2712.78Zm464.9-920.39c5.75,13.48,11.56,29.6,24.45,31.08,9.16,1.06,13-16.22,16.85-26.7.16-.45-.55-1.21-1.26-2.64C2000.69,1796.18,1987.9,1792,1973.38,1792.39Zm294.22-15.69a128.18,128.18,0,0,0,19.08,28.35c4.5,5.1,8.75,6.43,11.92-1.32,2.93-7.14,5.93-14.25,8.8-21.41,2.26-5.63.53-8.08-5.63-6.6C2291.14,1778.27,2280.38,1778.4,2267.6,1776.7Zm12.8,956c-8.24-9.08-14-16.38-20.75-22.57-5.78-5.29-12.39-3.62-17.85,1.39-3.25,3-9.86,5.87-7.52,10.35,2.93,5.64,7.09,11.91,16.07,11C2259.17,2732,2268.14,2732.66,2280.4,2732.66Zm-194.59-944.49c3.09,8.09,8.93,13.72,14.47,19.63,3.79,4,6.35,3.23,8.87-1.11,5.87-10.07,10-20.62,10.3-34.08C2108.41,1780.12,2096.53,1782.52,2085.81,1788.17Zm243.55,932.71,1.59-2.81c-5.58-5.09-10.84-10.59-16.81-15.18-5.66-4.35-12.22-4.63-18.62-1-3.64,2.09-8.87,4.54-7.37,8.94,1.44,4.22,4.36,9.7,10.25,9.91C2308.71,2721.15,2319,2720.88,2329.36,2720.88ZM1723,1742.81c.48,3.06.64,4.93,1.08,6.73,2,8.31,3.9,19,12,21.07,6.73,1.74,10.72-8.6,15.47-14,1.59-1.82,4.51-3.23,3.51-6.75Zm-292.25,960.64c10.4-3.17,18.46-5.66,26.54-8.1,2.38-.71,6.15.08,5.45-4.18a27.66,27.66,0,0,0-8.83-16c-2.75-2.54-5-.68-7,1.39C1440.2,2683.9,1434.35,2691.77,1430.77,2703.45Zm-48.51-15.87c10.59,0,19.38-.1,28.16.06,3.52.06,5.89-1.1,7.26-4.41,1.62-3.95-1.35-5.59-3.65-7.53C1403.69,2667,1395.09,2669.87,1382.26,2687.58Zm-41.13-678.18c-4.76-2-6.72-1.68-7.12-.24-2.25,8.31-2.56,16.72.18,25a3.5,3.5,0,0,0,2.58,1.63c2.66.23,18.25-13.72,17.37-15.71C1351.08,2013.16,1344.08,2011.1,1341.13,2009.4Zm873.23,723c-18.23-19.16-27.6-18.81-34,0Zm-914.79-716c8.89-5.82,17.42-8.51,18.37-17.59.27-2.61-6.68-6-9.55-4.68C1300.34,1998,1301.22,2006.48,1299.57,2016.44Z" transform="translate(-866.96 -1080)"/><path class="cls-1" d="M867,1340.29c-.47-137,104.31-247.92,245.5-259.51,128.11-10.52,248.13,86.45,270,217.38q13.48,80.83-22.2,153.92c-6,12.24-6.68,22.71-2.48,35.35,7.8,23.49,14.44,47.39,21,71.27s-2.83,34.15-27.47,29.17q-41-8.28-81.56-18.61c-10.59-2.72-19.14-.7-28.7,3.69-165.5,76-344.87-20.45-372.12-200.13C867.22,1362.13,867.55,1351.14,867,1340.29Zm469.76,209.44c-6.47-22.21-10-37.09-15.15-51.37-7.77-21.55-6.11-40.15,4.69-61.74,71.1-142.09-31.82-315.09-190.09-318.9-93.85-2.27-166,39.09-208.17,123.46-41.72,83.57-31.73,165.5,26.62,238,58.72,73,138.46,99.94,227.32,73.94C1233.18,1538.16,1280.3,1520.3,1336.72,1549.73Z" transform="translate(-866.96 -1080)"/><path class="cls-2" d="M1818.12,1766.43c4.18,7,8.11,14.12,12.6,20.89,10.27,15.46,21.61,17,35.94,5.2,4.18-3.46,8.1-7.23,12.13-10.86,1.94,3.85,5.77,5.38,9.34,6.59,10.44,3.53,10.78,10,7.67,19.33a87.35,87.35,0,0,1-21.09,34.62c-21.2,21.19-48.08,29.58-77.06,31.94-27.38,2.23-54.3-2.8-81.23-7-52.59-8.1-102.3-23.12-146-55.43-28.34-21-52.39-45.07-69.08-76.34-24.1-45.14-19.5-93.79-17.15-142,.89-18.13,5.35-36.09,8.19-54.13,15.88-16.83,20.36-37.49,18.41-59.53-1.26-14.14,3.82-23.24,15-31.61a417.11,417.11,0,0,1,95.52-53.79c5.69-2.29,8.82-2.88,12.48,4.09,36.15,68.88,106.38,104.5,187.61,95.85,68.75-7.33,126.36-59.08,146.73-131.88,2.1-7.51,3.89-15.1,5.83-22.66,2.23-1.44,4.88-2.5,6.61-4.4,10.89-12,23.56-15.43,38.74-9.11,2.41,1,5.25,1,7.89,1.41,22.17,17.75,47.69,28.48,74,39,31.46,12.55,52.54,38.24,68.37,67.86,12,22.5,19.45,46.71,25.95,71.24,1.06,4,1.17,8.44,4.43,11.75,6.36-10.5.92-46.77-11.22-77-10-24.85-25.45-45.92-47.76-66.47a325.06,325.06,0,0,0,58-3.08c96.06,49.37,134.2,132.68,138.23,236-5.35,10.27-10.46,20.68-16.11,30.78-22.9,41-57.71,52.33-99.72,49.65-20.93-1.34-42-2.47-62.79,2.69-23.22,5.77-39.33,21.73-54.66,38.38-19,20.67-42,34.53-68.71,42.41-2.75.81-5.31,1.33-6,4.58-53.23,1.64-104.26-6.25-150.12-35.53-20-12.78-41.85-10.26-63.61-8.16a347.64,347.64,0,0,1-56.16.84c-42.31-2.78-69.22-26.68-86.46-63.61-1-2.11-1.45-4.48-2.53-6.54-.87-1.66-2.21-3.52-4.44-3s-2.4,2.83-2.47,4.76c-.58,15.06,4.54,28.24,13.1,40.37,7.52,10.67,18.19,18.11,27.18,27.19,9.22,9.33,2.57,25,10.53,35.78,2.53,3.44,4.1,7.58,6.63,11,8.08,11,19.2,12.21,28.92,2.69,6.94-6.81,13-14.5,19.48-21.8C1785.76,1760.25,1801.36,1767.43,1818.12,1766.43Zm-239-213a50.15,50.15,0,0,0,.08,9.1c3.07,21.47,24.19,31.43,40.16,19.09,17.37-13.42,23.31-48.91,11.3-67.41-8.68-13.37-22.61-15.49-34.8-5.07C1583.07,1520,1577.82,1534.17,1579.13,1553.4Zm93.78,35.37c.79-9-1-16.8-10.27-18.88-10.24-2.29-14.28,5.67-17.61,13.47a29.82,29.82,0,0,0-2,6.7c-1.6,9.34,4.61,20.79,11.51,21.51,8.87.93,17.24-7,18.39-17.43A46.18,46.18,0,0,0,1672.91,1588.77Zm374.84-72.94c-.84-9-2.24-17.44-6.92-24.92-1.93-3.08-4.67-5.54-8.6-4.87-3.4.58-5,3.4-6,6.52a41.51,41.51,0,0,0,0,25.31c2.12,7,3.83,16.59,12.76,15.71C2048.59,1532.63,2046,1522.24,2047.75,1515.83Zm228.13-17.75c-.13-1.42.2-5.14-1-8.32-1.37-3.74-1.93-9-7.5-9.29-5.17-.28-7.35,3.84-9.26,7.68-5.39,10.9-7,22.36-3.27,34,2.6,8,8.63,8.87,13.83,2.2C2274.21,1517.33,2275.76,1508.91,2275.88,1498.08ZM1597.8,1623.31c.08,9.12,4.43,14.79,13.67,15.48,6.79.5,14.56-9.44,14.25-18.53-.28-8.36-3.27-15.33-13.32-15.71C1604.29,1604.24,1597.75,1612.75,1597.8,1623.31Z" transform="translate(-866.96 -1080)"/><path class="cls-3" d="M1492.43,1539.33c-2.84,18-7.3,36-8.19,54.13-2.35,48.17-7,96.82,17.15,142,16.69,31.27,40.74,55.36,69.08,76.34,43.65,32.31,93.36,47.33,146,55.43,26.93,4.15,53.85,9.18,81.23,7,29-2.36,55.86-10.75,77.06-31.94a87.35,87.35,0,0,0,21.09-34.62c3.11-9.28,2.77-15.8-7.67-19.33-3.57-1.21-7.4-2.74-9.34-6.59,8.73-14.71,8.75-14.77,23.71-8.2a216.23,216.23,0,0,0,44.48,14.29c6.24,1.25,10.17,3.93,12.34,10.45,4.52,13.56,12.89,24.94,22.93,35,10.26,10.26,22.07,9.59,31.29-1.53a84.42,84.42,0,0,0,14.24-25.42c.93-2.55,1.29-6.27,3.15-7.37,7.68-4.54,16.68-1.91,25.06-3.51,7.73-1.48,16-3.15,20.55,7.4,3.24,7.46,9.61,13.26,16,18.45,10,8.13,20.93,6.57,28.05-4.32,8.24-12.6,13.84-26.42,14.16-41.59.18-8.65,5.28-11.36,11.84-13.56,7.62-2.55,8,4.49,10.39,8.28,6.63,10.62,13.41,21.12,21.86,30.38,10.56,11.56,23.53,10.87,32.42-2.06,4.16-6,6.8-13.12,10.46-19.54,2.35-4.12,1.13-12.31,7.26-11.75,6.95.63,15.63,1.92,19.73,8.61,8.57,14,16.31,28.45,27.36,40.76,3.08,3.42.31,6.69-.92,9.78-14.17,35.45-39.07,59.5-75.54,71.55-32.78,10.82-66.59,16.79-100.76,20-38.2,3.61-75.08,13.78-112.64,20.5-32.44,5.81-64.89,8.65-97.78,7.14-5.1-.23-11.22-2.57-14.57,4.07-4.66-.25-9.37-.18-14-.81q-64.53-8.82-129-17.85c-3.89-4.41-8.1-7.2-14.5-8.24-48.2-7.8-95.58-18.7-140.22-39.41-49.1-22.77-85.71-57.72-106.84-108-11.14-26.53-11.32-54.74-12.73-82.8-2.3-46.07.06-92,3-138,.37-5.88,1.22-9.91,8.71-8.46C1477.21,1547.62,1485.09,1544.23,1492.43,1539.33Z" transform="translate(-866.96 -1080)"/><path class="cls-4" d="M1879.74,2423.34c-90-.41-162.69-11.56-232.13-41-14-5.92-20.83-14.51-24.58-29.22a350.58,350.58,0,0,1-9-126.59c.76-6.89,2-8.72,9.11-5.79,83.31,34.16,170.7,41.64,259.59,39,65-1.95,129-11.13,192.11-26.31,7.7-1.85,10.88,0,13.14,7.78,10.46,36.05,13.47,72.76,11.62,110.09-.39,7.86-3.7,12.9-9.89,17.34-34.42,24.65-73.72,36.8-114.55,44.77C1938.68,2420.54,1901.8,2424,1879.74,2423.34Z" transform="translate(-866.96 -1080)"/><path class="cls-2" d="M2202.28,2593.25c-4.48,4.06-10.23,5.54-15.63,7.72-3.26,1.31-5.6,3.67-4.18,7.1a6.86,6.86,0,0,0,7.5,4.25c3.07-.49,6.47-.76,9-2.28,13.94-8.31,22.5,1.19,30.29,9.78,10.18,11.23,19.27,23.48,28.41,35.61,3.93,5.22,8.1,8.8,14.82,10.15a32.45,32.45,0,0,1,21.42,14.36c-6.24,4.34-13.56,6.89-18.92,12.48-3,3.09-5.76-.17-7.84-2.34a101.15,101.15,0,0,0-42.16-26.27c-8.66-2.86-12.91-12.08-19.24-18.35-2.18-2.16-4.12-5.52-7.66-3.32-4.05,2.51-.8,5.59.47,8.07,3.72,7.28,8.1,14.24,11.58,21.63,3.91,8.33,12.86,6.18,18.88,9.94,3.2,2,8.63,2,9.24,6.17.54,3.77-4.48,4.65-7.11,6.59-15.3,11.31-15.31,11.17-31.68.28-4.2-2.8-8.49-5.93-13.21-7.41a89,89,0,0,1-37.33-22.89c-1.76-1.79-4-4.83-6.87-2.72-3.7,2.74-.37,5.56,1.12,8,8.54,13.73,15.79,28.94,36.79,30.13-9.94,9.67-17.21,18.21-22.8,28.07-1.25,2.19-3.15,3.42-5.84,2.86-12.37-16.68-18.88-35.85-22.64-55.91-4.18-22.27-7.8-44.87,3-66.42,8.74-17.44,8.71-21.15-4.39-34.61-9.2-9.46-13.47-20.61-13.68-33.76-.36-22.48,8.38-42.62,15.43-63.23,1-3,4.7-5.95.76-9.41,2.11-7.39,10.79-11.76,9.5-20.71,5.25-17.1,17.69-31.45,20.2-50.51-5.14,1.08-7.81,4-10.45,6.76-14.52,15.41-31.93,27.14-49.48,38.64-2.75,1.81-5.61,6.62-9.86,1.86,32.59-78.54,28.21-157.23.69-235.9a185.83,185.83,0,0,0-20.31-40.67c-26.76-40.62-41.38-85.16-45.25-133.43-1.16-14.45-5.95-28.06-9.72-41.91.39-.66.61-1.6,1.19-2,16.09-9.76,19.69-22.18,8.19-37.89,10.77-1.42,12.63,8.23,12.53,13.89-.11,6.72,1.79,7.37,6.73,7.1,19.49-1.1,34.93,7.07,47.24,21.38,6.19,7.2,12.24,7.81,20.51,3.83,31.91-15.33,64.27-29.59,98-40.62,36.25-11.87,71.23-13.78,103.53,10.83,4.24,3.23,8.59,2.53,13.34,1.48,6.83-1.52,13.77-3.11,20.71-3.44,20.93-1,41.05,13.39,47.81,33,1.63,4.73-.4,6.76-4.1,7.78-7.69,2.1-15,3.17-21.5-3.91-9.79-10.66-22.51-15.09-36.89-14.77-2.74.07-6.23.28-6.67,3.46s2.29,5.13,5.43,6.41c25.58,10.44,41.76,35.07,40.48,61.33-7.9-.08-13.88-3.45-15.79-11.29-2.66-11-10.4-16.19-20.21-19-7.83-2.22-15.93-3.51-23.92-5.2-16.62-3.51-24.21-11.52-26.72-28.21-2.78-18.52-10.17-23.56-29-20-30.47,5.74-59.7,15.13-86.85,30.26-19.9,11.08-40.45,18.84-63.48,21.82-31.21,4-48.09-2.84-62.2-30.25-1.26-2.45-2-5.55-5.46-5-3,.52-4.13,3.42-5,6-3.33,9.21-.29,17.62,3.52,25.9,1.62,18.89,22.35,40,43.6,44.32,4.55.92,9.18,1.4,13.77,2.09,1,2.45,2,5,3.2,7.34,21.1,40.54,43.93,81.39,50.67,126.48,6.43,43,23,79.91,45,115.76a57.87,57.87,0,0,1,2.71,5.18c20.09,41.37,34.46,84.52,38.16,130.56,3.87,48.22-5.38,93.86-30.1,135.92l-.72-.31.26.87Z" transform="translate(-866.96 -1080)"/><path class="cls-4" d="M1872.72,2247.8c-93.53-.14-166.18-7.92-235.65-34.87-23.92-9.28-20.68-5.15-14.43-28.8,10.79-40.82,27.34-79.62,43.56-118.51,2.2-5.25,4.34-6.79,10.42-4.58,71.84,26.14,146.22,30.05,221.65,24.95,36.67-2.49,72.91-7.44,108.64-16,4.32-1,8.68-2.69,9.4,4.22,4.34,41.29,26,75.43,45.64,110.4,4,7.12,7.58,14.5,11.09,21.89,6.37,13.39,6.31,13.54-7.62,16.66C1995.5,2238.81,1924.83,2248.12,1872.72,2247.8Z" transform="translate(-866.96 -1080)"/><path class="cls-2" d="M1588.52,2453.51c1.31,9,8.94,14.66,12.12,22.67.68,22.39-2.2,43.27-20.26,59.62-13.57,12.27-13.33,14.94-3.39,30.56a38.47,38.47,0,0,0,5.93,7.17c17.58,16.62,24.55,36.12,17.45,60-3,10.12-7.09,19.73-11.12,29.42-5.11,12.32-14.33,19-27.36,20.77-5.62-12.12-12.2-23.75-24.19-30.53-9.58-5.41-5.87-9.83-.12-14.61,1.75-1.45,4.15-2.08,6.12-3.31,3-1.87,9.84,0,8.62-5.37s-7.34-4.27-12-3.78c-11.85,1.26-20,7.84-25.74,17.91-2.1,3.67-4.33,7.27-6.5,10.91-12.55,2.65-24.53,8-37.68,7.68-7.12-3.95-9.78-8.14-1.65-14.16a128.61,128.61,0,0,0,13.93-12.5c3-3,10.35-5.27,6.73-10.43-4-5.62-9,.49-12.88,2.64-14.06,7.79-26.44,17.93-38.25,28.8-5.51,5.07-23.23,1.49-24.66-5.61-1.32-6.57,5.14-10.46,10.24-10,12.42,1.22,19.29-6.67,27-13.66,13.6-12.31,26.72-25.21,40.95-36.75,8.86-7.18,9.16-13.92,4.39-23.24-11.74-22.91-21.2-46.81-30.73-70.73-19.61-49.21-13.74-97.06,4.9-144.65,17-43.34,40.7-83,72.86-116.36,30.14-31.27,48.45-68.06,62.71-108.15,22.08-62.07,39.5-125.51,57-188.91,2.09-7.54,4.57-10.31,11.86-6.79a62.92,62.92,0,0,0,25.74,21.76c-9.76,20.79-19.76,41.46-29.22,62.38-23.92,52.89-48.1,105.76-63.13,162-19.79,74.11-13.75,146.85,14.52,217.8,8,20.22,17.77,39.77,26.73,59.63-12.34-1.61-22.18-8.83-32.58-14.7-20.26-11.43-37.73-26.62-55.65-41.78C1565.1,2420.2,1571.71,2439.38,1588.52,2453.51Z" transform="translate(-866.96 -1080)"/><path class="cls-5" d="M2482,2729.12c-8,16.54-23.59,20.27-39.49,22.35-39.17,5.11-78.69,4.91-118.08,6.15-118.69,3.74-237.38,7.94-356.1,9.69-132.81,2-265.65.78-398.41-4.59-66.69-2.69-133.37-6.15-199.7-13.82-41-4.75-82-10.19-122.13-20.35-3.22-.81-8-.31-8.43-4.49-.36-3.23,3.84-4.55,6.43-6.1q39-23.45,78.18-46.72c13.64-.57,26.46,4.43,39.81,5.85-2.08,4.17-4.24,8.29-6.23,12.5-5.87,12.4-2.18,18.34,11.67,18.29,9.74,0,19.48-.6,29.22-1,4.78-.2,7.93.06,7.23,6.82-1,9.09,5.17,12.36,13.42,11.73a95,95,0,0,0,28.35-6.42c12.6-5.07,25.59-5.6,38.85-4.29-1,19.73,4.29,25.47,23,18.1,27.29-10.76,54.94-18.25,84-21.34,7.33-.78,8.41-8.71,13.72-11.77,8.59-.08,17.23-.81,25.75-.12,51.37,4.14,102.9,4.17,154.35,5.9,62.81,2.11,125.69,2.16,188.54,2.86,39,.43,78.11.41,117.16.59,1.31,3.63,2.59,7.26,3.92,10.87,8.84,24,18.88,30.23,44.16,31.71,49.81,2.9,99.62,1,149.43,1.61,7.79.09,15.93,1.19,19.2-8.93,1.21-3.76,5.14-2.82,8.14-2.85,9.35-.1,18.71.21,28.06-.12,13.54-.47,17.29-7.25,10.68-19.07-2.83-5.07-6.1-9.89-9.16-14.82,28.47-.76,57-1.17,85.42-2.4C2454,2704,2471.6,2709,2482,2729.12Z" transform="translate(-866.96 -1080)"/><path class="cls-5" d="M2485.33,2756.9c-1,36.4-26.81,55.37-61,57.08q-162.69,8.16-325.61,10.47c-111,1.56-221.92,1.76-332.87-.68-101.53-2.24-203-5.53-304.47-10.95-66.29-3.55-132.6-6.82-198.78-12.22-19.4-1.58-29.66-11.86-30.79-31.17-1.45-24.52-1.49-24.34,21.84-19.45,58.51,12.25,117.73,19.31,177.21,24.77,161.27,14.82,323,15.33,484.67,13.51q159.92-1.78,319.78-8.12c57.36-2.36,114.77-3.69,172.15-5.63C2434,2773.61,2460.49,2772,2485.33,2756.9Z" transform="translate(-866.96 -1080)"/><path class="cls-4" d="M1673.53,2468a520.75,520.75,0,0,1-36.48-74.19c154.12,53.91,306.3,63,456.76-8.75,1.72,12.85-14.58,58.65-29.37,78.45a43.24,43.24,0,0,0-6.63,1.82c-48.94,22-100,34.3-153.88,32.78-23.66-.66-47.27-3.11-70.91-4.45-27.15-1.55-54.11-4.82-81-8.44C1725.36,2481.65,1699.57,2474.26,1673.53,2468Z" transform="translate(-866.96 -1080)"/><path class="cls-3" d="M2383.47,2238.11a4.85,4.85,0,0,1-.23,2.07c-4.34,4-5,9.63-6.62,14.75-16.23,51.35-38.32,99.72-71.8,142.35-2.3,2.92-3.83,5.84-3.31,9.6l.2-.07c-10,3.74-17.25,10-19.1,21.14l-2.15,2.14c-8.91-1.61-11.52,9.72-19.72,9.58-8.43-50.74-26.36-98.15-50.29-143.45,23.44,7.58,45.32,3.07,66.19-8.73a155.42,155.42,0,0,0,33.73-25.07c45.26-45.25,69.42-101.07,79.86-163.35,1.94-11.57,7.47-18.25,18.52-20.9-1.76,37.94-3.39,75.89-13.79,112.77-2.35,2-2.2,4.65-2.1,7.32a4.35,4.35,0,0,1-.39,2.13C2385.56,2212,2384.48,2225.06,2383.47,2238.11Z" transform="translate(-866.96 -1080)"/><path class="cls-4" d="M2001.3,1997.86c7.73,15.67,9.62,32.68,11.72,49.7.79,6.46-1.19,8.6-7.53,10-64.65,14.6-130,20.81-196.2,16.76-42.54-2.61-84.19-9.38-124.61-23.45-9.16-3.19-9.87-6.35-5.67-14.54,12.07-23.51,21.54-48.32,35.46-70.91,1.64,2.59,2.79,5.75,5,7.68,23.24,20.16,48.91,35.88,79.65,41.64,32.73,6.12,65.55,4.67,98.67,2.9C1933.43,2015.76,1968.21,2011.9,2001.3,1997.86Z" transform="translate(-866.96 -1080)"/><path class="cls-2" d="M1628.56,1984.55c-1.55,8.82-3.55,17.52-7.34,25.71-1.57,1-3.94,1.65-4.6,3.08-10.19,22-29.11,36.4-45.59,52.81-17,16.87-34,18.15-49.75,4.48-7.6-6.58-14.57-13.79-19.9-22.75-9-15-18.3-30.63-35.67-37.24-16.83-6.4-34.24-11.13-41.69-30.18-.17-.44-1.41-.46-2.15-.68,0-3.4,1.26-7.51-3.25-9-3.6-1.16-5.32,2.48-7.83,4.1-10.9,7.06-17.28,19-28.47,25.82-8.3,5.06-15.94,8.56-23.3-1.14-.67-.88-2.08-1.21-2.78-2.09-3.7-4.62-14.38-3.22-13-10.91,2.08-11.41,7.41-22.12,19.07-27.42,2.85-1.3,7-1.48,5.91-5.52-1.2-4.65-5.49-3.16-8.89-2.6-13.52,2.22-22,11.36-28.67,22.14-4.07,6.63-7.78,8.18-14.8,4.6-7.49-3.81-4.21-9.21-2.73-13.89,5.49-17.4,25.7-32.3,44.09-33.3,28.5-1.56,56.89-1.08,85.09,3.85a54.64,54.64,0,0,1,26.12,12.3c26.4,22.11,50.89,46,71.1,74.09,8.93,12.41,16.3,11.5,22.52-2.76,12.28-28.17,27.28-54.3,52.22-73.41,5.89,4,7,10.62,9.55,16.59C1627.08,1968.8,1623.47,1977.53,1628.56,1984.55Z" transform="translate(-866.96 -1080)"/><path class="cls-6" d="M1673.53,2468c26,6.25,51.83,13.64,78.46,17.22,26.92,3.62,53.88,6.89,81,8.44,23.64,1.34,47.25,3.79,70.91,4.45,53.85,1.52,104.94-10.77,153.88-32.78a43.24,43.24,0,0,1,6.63-1.82c-15.47,26.83-34.08,51.27-56.84,72.26-10.29,9.49-24.13,11.07-37.33,11.35-59.75,1.28-119.47-.24-179.15-3.38-10.89-.58-21.88-.86-32.6-2.63C1715.54,2534,1691.48,2504.46,1673.53,2468Z" transform="translate(-866.96 -1080)"/><path class="cls-3" d="M2001.3,1997.86c-33.09,14-67.87,17.9-103.5,19.81-33.12,1.77-65.94,3.22-98.67-2.9-30.74-5.76-56.41-21.48-79.65-41.64-2.22-1.93-3.37-5.09-5-7.68l16.38-34.65q64.53,9,129.05,17.85c4.61.63,9.32.56,14,.81.27,5.67,4.42,6.31,8.8,7.29,30.29,6.72,60.78,8.4,91.41,3.29,6.6-1.11,9.92.44,12.84,6.23C1992.14,1976.63,1998.85,1986.26,2001.3,1997.86Z" transform="translate(-866.96 -1080)"/><path class="cls-2" d="M2408.75,2078.17c-11.05,2.65-16.58,9.33-18.52,20.9-10.44,62.28-34.6,118.1-79.86,163.35a155.42,155.42,0,0,1-33.73,25.07c-20.87,11.8-42.75,16.31-66.19,8.73-7.7-12.09-15.2-24.3-23.14-36.22-5.64-8.46-2-18.23-4.53-27.11-1.29-4.42-1.48-9.16-2.15-13.74,10.51-.65,21.08-.75,31.49-2.08,63.35-8.09,108-46.79,148.68-91.68,9.65-10.25,17.3-21.81,21.74-35.19a65,65,0,0,1,9.18-17.41c2.52-3.52,6.6-5.87,11.26-4.45S2410.07,2073,2408.75,2078.17Z" transform="translate(-866.96 -1080)"/><path class="cls-3" d="M2029.21,1775.41c.7-3.25,3.26-3.77,6-4.58,26.75-7.88,49.67-21.74,68.71-42.41,15.33-16.65,31.44-32.61,54.66-38.38,20.78-5.16,41.86-4,62.79-2.69,42,2.68,76.82-8.67,99.72-49.65,5.65-10.1,10.76-20.51,16.11-30.78l2.09,2.78c3.74,24.08,1.45,48.23.77,72.36-.21,7.4-.92,14.8-1,22.2-.22,29.08-23.84,52.39-52.88,52.81-23.28.33-44.92-6.48-64.44-17.58-23.52-13.37-46.19-12.17-69.5-2.26-20.36,8.66-40.27,18.38-60.44,27.52C2071.92,1773.77,2051.13,1778,2029.21,1775.41Z" transform="translate(-866.96 -1080)"/><path class="cls-3" d="M2129.83,2467.48c3.94,3.46.27,6.41-.76,9.41-7.05,20.61-15.79,40.75-15.43,63.23.21,13.15,4.48,24.3,13.68,33.76,13.1,13.46,13.13,17.17,4.39,34.61-10.8,21.55-7.18,44.15-3,66.42,3.76,20.06,10.27,39.23,22.64,55.91-25.39,1-32.43,1.13-37.49-30-.88-5.37-3.5-9.43-6.34-13.55a512,512,0,0,1-38.16-64.32c-3.46-7-3.72-10.5,5.89-10.22,7.32.21,14.7-1.36,22-2.35,3-.42,6.79-.94,6.71-5-.11-5.41-4.74-4.41-7.9-4.21-19.06,1.15-37.2-2.75-54.82-9.55-13.93-5.38-27.09-12-36.72-24-3.16-3.95-4.92-6.83,1.89-9.19C2057,2540.93,2096.94,2509,2129.83,2467.48Z" transform="translate(-866.96 -1080)"/><path class="cls-3" d="M2036.49,2024.57c-3.81-8.28-6.85-16.69-3.52-25.9.92-2.54,2-5.44,5-6,3.51-.6,4.2,2.5,5.46,5,14.11,27.41,31,34.28,62.2,30.25,23-3,43.58-10.74,63.48-21.82,27.15-15.13,56.38-24.52,86.85-30.26,18.86-3.55,26.25,1.49,29,20,2.51,16.69,10.1,24.7,26.72,28.21,8,1.69,16.09,3,23.92,5.2,9.81,2.79,17.55,8,20.21,19,1.91,7.84,7.89,11.21,15.79,11.29,1.59,9.65-4.12,13-12.25,15.08s-9.78-3.13-12.48-8.7c-5.83-12.08-13.76-21.59-29.13-21.13-5,.15-10-1.22-15-2.15-19.11-3.59-32.57-13.7-39.16-32.65-5.42-15.6-8.73-16.94-24.24-10.32-34.39,14.66-68.57,29.8-103,44.38-8.56,3.62-17.62,6.18-26.62,8.59-24.59,6.57-45.31.42-61.91-19.27C2044.83,2029.71,2042.89,2024.08,2036.49,2024.57Z" transform="translate(-866.96 -1080)"/><path class="cls-7" d="M1727.55,1384c9.82-35.88,19.09-69.67,28.31-103.48,1.15-4.22,3.29-6.49,8.11-6.63,14.42-.41,28.83-1.15,43.23-2,7.15-.42,10,1.32,7.58,9.3Q1798,1337.48,1782,1394c-2,7-4.81,9.46-12.31,6.81-11.73-4.15-23.84-7.22-35.77-10.83C1730,1388.84,1726.06,1387.48,1727.55,1384Z" transform="translate(-866.96 -1080)"/><path class="cls-3" d="M1561.89,2683.76c13-1.77,22.25-8.45,27.36-20.77,4-9.69,8.12-19.3,11.12-29.42,7.1-23.92.13-43.42-17.45-60a38.47,38.47,0,0,1-5.93-7.17c-9.94-15.62-10.18-18.29,3.39-30.56,18.06-16.35,20.94-37.23,20.26-59.62,23.06,27.9,50.19,50.75,85,66.81-13.65,7.06-26.42,9.15-39.15,11.34-13.78,2.37-27.58,4.67-41.37,7-3,.52-6.87.69-6.68,4.85.17,3.83,3.75,4.24,6.89,4.87,6.84,1.35,13.64,2.93,20.45,4.42,5.42,14.43,5.44,28.71-1.47,42.67-3.26,6.61-6.51,13.24-10.32,19.53-11.43,18.86-23.12,37.55-34.71,56.31C1569.87,2696.77,1562.52,2696,1561.89,2683.76Z" transform="translate(-866.96 -1080)"/><path class="cls-3" d="M1421.87,1979.78c.74.22,2,.24,2.15.68,7.45,19,24.86,23.78,41.69,30.18,17.37,6.61,26.72,22.2,35.67,37.24,5.33,9,12.3,16.17,19.9,22.75,15.78,13.67,32.79,12.39,49.75-4.48,16.48-16.41,35.4-30.86,45.59-52.81.66-1.43,3-2.07,4.6-3.08a293.71,293.71,0,0,1-20.13,66.86c-6.31,14.19-22.16,21.37-35.44,29.49-22.49,13.73-34.58,13.09-55.19-3.39-25.27-20.19-41.06-47.65-56.06-75.5-5.58-10.36-10.76-19.77-22.68-25.11C1423.55,1998.94,1413.86,1992.19,1421.87,1979.78Z" transform="translate(-866.96 -1080)"/><path class="cls-3" d="M2203.51,2592.22c24.72-42.06,34-87.7,30.1-135.92-3.7-46-18.07-89.19-38.16-130.56a57.87,57.87,0,0,0-2.71-5.18c-22-35.85-38.58-72.8-45-115.76-6.74-45.09-29.57-85.94-50.67-126.48-1.23-2.36-2.15-4.89-3.2-7.34,4.76-.91,6.86,1.79,8.88,5.66,25.34,48.45,49.35,97.4,58.75,152,.27,1.54,1.1,3.08,1,4.56-2,23.81,10.59,41.9,22.21,61.05,34.71,57.22,57.84,118.42,57.58,186.5-.13,32-7.06,62.67-21.6,91.38C2216.59,2580.19,2212,2587.93,2203.51,2592.22Z" transform="translate(-866.96 -1080)"/><path class="cls-3" d="M1588.52,2453.51c-16.81-14.13-23.42-33.31-27.21-54.17,17.92,15.16,35.39,30.35,55.65,41.78,10.4,5.87,20.24,13.09,32.58,14.7,12.77,20.33,22.32,42.72,38.72,60.75,3.12,3.42,6.08,7,9.19,10.57-3.56,2.63-6.16,0-8.71-1-35.16-14.73-65-36.38-87.8-67.32C1598,2454.72,1595.72,2448,1588.52,2453.51Z" transform="translate(-866.96 -1080)"/><path class="cls-3" d="M2089.74,2443.52c4.25,4.76,7.11-.05,9.86-1.86,17.55-11.5,35-23.23,49.48-38.64,2.64-2.79,5.31-5.68,10.45-6.76-2.51,19.06-15,33.41-20.2,50.51-6.63-1.86-8.81,3.49-11.78,7.38a245.49,245.49,0,0,1-82.73,69.47c-3.67,1.91-7.1,4.8-13.83,4.28C2053.18,2500.56,2075.2,2474.55,2089.74,2443.52Z" transform="translate(-866.96 -1080)"/><path class="cls-2" d="M1637.06,1280.91c43.92-61.35,128.3-59.59,201.26-28.21C1768.6,1253.1,1700.76,1251.89,1637.06,1280.91Z" transform="translate(-866.96 -1080)"/><path class="cls-5" d="M2093.08,2709c-39-.18-78.11-.16-117.16-.59-62.85-.7-125.73-.75-188.54-2.86-51.45-1.73-103-1.76-154.35-5.9-8.52-.69-17.16,0-25.75.12,1.47-6.37,6.25-5.69,11.1-5.45,154.18,7.56,308.5,9.29,462.84,10.25C2085.08,2704.55,2092,2700.06,2093.08,2709Z" transform="translate(-866.96 -1080)"/><path class="cls-8" d="M2156.73,2918c-5-17.84,5.69-40.71,25.35-51.42s40-11,58.39,2.72c16.59,12.34,26.09,28.67,21.46,50.52l-18.46-9.7c-6.12-22.78-20.71-33.62-41-30-16.77,3-24,15.3-28.17,30.26C2167.84,2911.45,2163.58,2917.72,2156.73,2918Z" transform="translate(-866.96 -1080)"/><path class="cls-8" d="M1466.19,2915.12c-4.22-17.75,4.76-38.75,21.57-50.41,18.8-13,43.24-13.22,61.46-.45,17.62,12.35,26.91,33.67,22.29,51.18l-17.69-9.87c-1.94-4.6-3.31-9.56-5.92-13.75-7.39-11.83-18.19-18-32.33-16.29-17.6,2.18-27.28,13.2-31.15,30Z" transform="translate(-866.96 -1080)"/><path class="cls-7" d="M1856.45,1271.72c7.07-1.22,9.22,1.4,6.82,10.39-10.22,38.43-19.57,77.08-29.6,115.56-.92,3.5.24,10.83-7.84,8.41-6.51-1.94-13.77-3.7-11.56-12.92,9.29-38.64,18.87-77.21,28.3-115.81C1844.34,1270.13,1850.07,1272.08,1856.45,1271.72Z" transform="translate(-866.96 -1080)"/><path class="cls-9" d="M2156.73,2918c6.85-.23,11.11-6.5,17.6-7.57,3.31,21.64,11.79,32.71,27.47,35.86,22.76,4.56,39.36-9.84,41.67-36.17l18.46,9.7c-1.55,27.75-26.42,48.79-56,47.36C2178.63,2965.81,2155.54,2942.73,2156.73,2918Z" transform="translate(-866.96 -1080)"/><path class="cls-9" d="M1553.82,2905.57l17.69,9.87c-.53,25.58-24.57,47.6-52.24,47.87-28.24.27-52.18-21.46-53.08-48.18l18.23-9.64c.17,1.15.42,2.3.51,3.45,2.34,29.15,28.64,42.86,53.31,27.67C1549.75,2929.53,1552.28,2917.76,1553.82,2905.57Z" transform="translate(-866.96 -1080)"/><path class="cls-2" d="M2339.3,1609.7l-2.09-2.78c-4-103.3-42.17-186.61-138.23-236,12.25-5.69,21.85-.44,32.16,6.2,67.29,43.39,97,107.87,105.33,184.79C2338.21,1577.84,2338.68,1593.76,2339.3,1609.7Z" transform="translate(-866.96 -1080)"/><path class="cls-2" d="M2360.8,2125.39c-40.73,44.89-85.33,83.59-148.68,91.68-10.41,1.33-21,1.43-31.49,2.08-2.11-5-1.67-8,4.91-8.26,62.82-2.71,111.15-34.5,153.48-77.6C2345.57,2126.62,2351.76,2123.17,2360.8,2125.39Z" transform="translate(-866.96 -1080)"/><path class="cls-7" d="M1616.9,1323.58c2.29,9-2.78,11.26-7.71,13.91-34.82,18.69-67.41,40.7-99,64.5-35.81,27-52.11,62.1-49.53,106.45-8.23-35.43-2.76-68.8,23.19-94.72C1522,1375.66,1568.41,1348.85,1616.9,1323.58Z" transform="translate(-866.96 -1080)"/><path class="cls-2" d="M1993.17,1245.05c-18.18,0-35.22,6-52.74,8.71s-35.7.59-55.81.59C1910.72,1229.17,1959.86,1223.59,1993.17,1245.05Z" transform="translate(-866.96 -1080)"/><path class="cls-7" d="M2201.79,1248.46c-11.64,25.08-21.57,46.62-31.65,68.09-3.26,7-9.07,4.77-14.15,3-5.49-1.9-5-6.26-3.09-10.63,8.06-18.2,15.81-36.55,24.37-54.52C2182.55,1243.32,2191.78,1253.29,2201.79,1248.46Z" transform="translate(-866.96 -1080)"/><path class="cls-7" d="M2155.38,1248.71c9.08-1.29,12,1.07,7.31,10q-13.21,25.36-25.28,51.32c-3.91,8.4-9.51,6.14-15.59,4-8.56-3.07-3.27-8-1.41-12.06,6.65-14.56,13.8-28.89,20.21-43.55C2143.65,1251.43,2147.57,1247.16,2155.38,1248.71Z" transform="translate(-866.96 -1080)"/><path class="cls-7" d="M2165.92,1753.89c14.35-8.58,28-5.7,42,.65,4.49,2,4.82,4.39,3.49,8.14-3,8.44-6,16.85-10.72,24.58-4,6.55-7.7,6.57-12.46.7A181.47,181.47,0,0,1,2165.92,1753.89Z" transform="translate(-866.96 -1080)"/><path class="cls-7" d="M1840.78,1747.88c12.62-2.18,21.11,5.13,30.73,9,3.19,1.27,3.12,2.81,1.69,5.2a16.11,16.11,0,0,1-1.23,2c-6.52,8.09-13.35,22.41-22.42,19.48-11.6-3.74-16.59-19.2-19.28-31.41C1828.25,1742.92,1838.42,1750.47,1840.78,1747.88Z" transform="translate(-866.96 -1080)"/><path class="cls-5" d="M2482,2729.12c-10.42-20.15-28-25.08-49.09-24.16-28.45,1.23-56.95,1.64-85.42,2.4-1-1.54-4.89-2.23-1.79-4.91,1-.83,3-.46,4.55-.49,36.89-.74,73.79-2.08,110.68-1.93C2479.61,2700.11,2488.16,2713.26,2482,2729.12Z" transform="translate(-866.96 -1080)"/><path class="cls-3" d="M1579.31,2694c11.59-18.76,23.28-37.45,34.71-56.31,3.81-6.29,7.06-12.92,10.32-19.53,6.91-14,6.89-28.24,1.47-42.67,11.28,5.51,15.47,13.46,13,25.25-2.24,10.82-6.82,20.8-12.56,30.09-11.66,18.9-23.91,37.43-35.68,56.26C1587.84,2691.5,1584.41,2693.89,1579.31,2694Z" transform="translate(-866.96 -1080)"/><path class="cls-8" d="M1607.07,2901.49c-2.54-12.86-8.27-22.84-21-28.83-5-2.35-8-9-12.06-14,21.86-7.19,53.22,22.44,46.11,47.51C1615.53,2905.21,1612.13,2901.05,1607.07,2901.49Z" transform="translate(-866.96 -1080)"/><path class="cls-7" d="M1508.48,2712.78c1.56-14.75,6.48-27.69,12.76-40.23,2.25-4.47,5.08-3.68,8.38-1,6.93,5.64,10.69,13.26,13.72,21.35.89,2.36.93,4.94-1.94,5.85C1530.31,2702.28,1521.09,2710.18,1508.48,2712.78Z" transform="translate(-866.96 -1080)"/><path class="cls-8" d="M2297.42,2903.24c-3.14-11.36-8.74-20.58-20.14-25.71-5.88-2.65-8-9.17-12-14.12,25.11-5.85,50.37,21.1,45,47.08Z" transform="translate(-866.96 -1080)"/><path class="cls-7" d="M1973.38,1792.39c14.52-.4,27.31,3.79,40,1.74.71,1.43,1.42,2.19,1.26,2.64-3.88,10.48-7.69,27.76-16.85,26.7C1984.94,1822,1979.13,1805.87,1973.38,1792.39Z" transform="translate(-866.96 -1080)"/><path class="cls-3" d="M2301.51,2406.88c-.52-3.76,1-6.68,3.31-9.6,33.48-42.63,55.57-91,71.8-142.35,1.61-5.12,2.28-10.8,6.62-14.75,0,1.93.5,4,0,5.77-16.65,58.21-40.93,112.63-79.76,159.77A6.87,6.87,0,0,1,2301.51,2406.88Z" transform="translate(-866.96 -1080)"/><path class="cls-7" d="M2267.6,1776.7c12.78,1.7,23.54,1.57,34.17-1,6.16-1.48,7.89,1,5.63,6.6-2.87,7.16-5.87,14.27-8.8,21.41-3.17,7.75-7.42,6.42-11.92,1.32A128.18,128.18,0,0,1,2267.6,1776.7Z" transform="translate(-866.96 -1080)"/><path class="cls-3" d="M2024.53,1951.76c11.5,15.71,7.9,28.13-8.19,37.89-.58.36-.8,1.3-1.19,2-4.81-9.69-9.42-19.49-14.52-29-2.38-4.44-1.16-6.46,3.28-7.28C2010.77,1954,2017.66,1952.93,2024.53,1951.76Z" transform="translate(-866.96 -1080)"/><path class="cls-7" d="M2280.4,2732.66c-12.26,0-21.23-.68-30.05.19-9,.89-13.14-5.38-16.07-11-2.34-4.48,4.27-7.36,7.52-10.35,5.46-5,12.07-6.68,17.85-1.39C2266.42,2716.28,2272.16,2723.58,2280.4,2732.66Z" transform="translate(-866.96 -1080)"/><path class="cls-9" d="M2297.42,2903.24l12.82,7.25c-.33,19-13.31,34-34.74,39,2.93-8.46,5-16.23,12-22.06C2294.92,2921.38,2296.76,2912.4,2297.42,2903.24Z" transform="translate(-866.96 -1080)"/><path class="cls-3" d="M1628.56,1984.55c-5.09-7-1.48-15.75-4.72-23.3-2.57-6-3.66-12.59-9.55-16.59,6.6-6.74,14.75-11.16,23.11-15.18,4.06-2,8.26-2.82,6.16,4.19C1638.48,1950.61,1635.52,1968.17,1628.56,1984.55Z" transform="translate(-866.96 -1080)"/><path class="cls-9" d="M1607.07,2901.49c5.06-.44,8.46,3.72,13,4.7-4.07,23.7-14.87,35.82-35.31,38.8,4.11-8.54,5.7-17.48,14.08-23.49C1605.09,2917,1605.82,2908.81,1607.07,2901.49Z" transform="translate(-866.96 -1080)"/><path class="cls-7" d="M2085.81,1788.17c10.72-5.65,22.6-8.05,33.64-15.56-.25,13.46-4.43,24-10.3,34.08-2.52,4.34-5.08,5.15-8.87,1.11C2094.74,1801.89,2088.9,1796.26,2085.81,1788.17Z" transform="translate(-866.96 -1080)"/><path class="cls-3" d="M1470.44,2662.66c13.15.36,25.13-5,37.68-7.68-5.51,9.82-10.66,19.83-13.5,30.79-1.07,4.11-2.68,7.45-7.27,7.88-6.65.62-4.52-5.42-5.31-8.34C1479.77,2676.83,1474.81,2669.94,1470.44,2662.66Z" transform="translate(-866.96 -1080)"/><path class="cls-7" d="M2329.36,2720.88c-10.32,0-20.65.27-31-.11-5.89-.21-8.81-5.69-10.25-9.91-1.5-4.4,3.73-6.85,7.37-8.94,6.4-3.66,13-3.38,18.62,1,6,4.59,11.23,10.09,16.81,15.18Z" transform="translate(-866.96 -1080)"/><path class="cls-3" d="M2027.21,1327.7c-2.64-.44-5.48-.4-7.89-1.41-15.18-6.32-27.85-2.85-38.74,9.11-1.73,1.9-4.38,3-6.61,4.4.84-12.24,4.2-23.83,17.12-27.56C2006.52,1307.78,2017.6,1316.8,2027.21,1327.7Z" transform="translate(-866.96 -1080)"/><path class="cls-7" d="M1723,1742.81l32,7c1,3.52-1.92,4.93-3.51,6.75-4.75,5.42-8.74,15.76-15.47,14-8-2.09-10-12.76-12-21.07C1723.66,1747.74,1723.5,1745.87,1723,1742.81Z" transform="translate(-866.96 -1080)"/><path class="cls-3" d="M1818.12,1766.43c-16.76,1-32.36-6.18-48.86-7,9.56-17.15,25.74-7.9,38.89-8.89C1817,1749.89,1815.3,1760.65,1818.12,1766.43Z" transform="translate(-866.96 -1080)"/><path class="cls-7" d="M1430.77,2703.45c3.58-11.68,9.43-19.55,16.21-26.84,1.93-2.07,4.2-3.93,7-1.39a27.66,27.66,0,0,1,8.83,16c.7,4.26-3.07,3.47-5.45,4.18C1449.23,2697.79,1441.17,2700.28,1430.77,2703.45Z" transform="translate(-866.96 -1080)"/><path class="cls-7" d="M1382.26,2687.58c12.83-17.71,21.43-20.57,31.77-11.88,2.3,1.94,5.27,3.58,3.65,7.53-1.37,3.31-3.74,4.47-7.26,4.41C1401.64,2687.48,1392.85,2687.58,1382.26,2687.58Z" transform="translate(-866.96 -1080)"/><path class="cls-3" d="M1700.64,1954a62.92,62.92,0,0,1-25.74-21.76c8.46.41,16.94,1.32,25.38,1.12,11.36-.27,11.6,4.23,6.11,12.08C1704.41,1948.22,1702.55,1951.11,1700.64,1954Z" transform="translate(-866.96 -1080)"/><path class="cls-7" d="M1341.13,2009.4c2.95,1.7,9.95,3.76,13,10.68.88,2-14.71,15.94-17.37,15.71a3.5,3.5,0,0,1-2.58-1.63c-2.74-8.28-2.43-16.69-.18-25C1334.41,2007.72,1336.37,2007.37,1341.13,2009.4Z" transform="translate(-866.96 -1080)"/><path class="cls-7" d="M2214.36,2732.44h-34C2186.76,2713.63,2196.13,2713.28,2214.36,2732.44Z" transform="translate(-866.96 -1080)"/><path class="cls-5" d="M1364.1,2677.09c-13.35-1.42-26.17-6.42-39.81-5.85,13.22-11.16,27.46-4.92,41-1.5C1372.05,2671.45,1364.68,2674.55,1364.1,2677.09Z" transform="translate(-866.96 -1080)"/><path class="cls-7" d="M1299.57,2016.44c1.65-10,.77-18.46,8.82-22.27,2.87-1.35,9.82,2.07,9.55,4.68C1317,2007.93,1308.46,2010.62,1299.57,2016.44Z" transform="translate(-866.96 -1080)"/><path class="cls-3" d="M2383.47,2238.11c1-13.05,2.09-26.08,9-37.72A75.71,75.71,0,0,1,2383.47,2238.11Z" transform="translate(-866.96 -1080)"/><path class="cls-3" d="M2260.74,2439.67c8.2.14,10.81-11.19,19.72-9.58-4.57,4.47-9,9-13.73,13.37C2260.42,2449.26,2260.47,2444.53,2260.74,2439.67Z" transform="translate(-866.96 -1080)"/><path class="cls-3" d="M2282.61,2428c1.85-11.13,9.07-17.4,19.1-21.14C2296.76,2415.13,2289.7,2421.55,2282.61,2428Z" transform="translate(-866.96 -1080)"/><path class="cls-10" d="M2392.86,2198.26c-.1-2.67-.25-5.36,2.1-7.32C2395.44,2193.72,2395.92,2196.5,2392.86,2198.26Z" transform="translate(-866.96 -1080)"/><path class="cls-11" d="M2202.28,2593.25l.77-.47-.26-.87C2203.12,2592.52,2203,2593,2202.28,2593.25Z" transform="translate(-866.96 -1080)"/><path class="cls-3" d="M1579.13,1553.4c-1.31-19.23,3.94-33.36,16.74-44.29,12.19-10.42,26.12-8.3,34.8,5.07,12,18.5,6.07,54-11.3,67.41-16,12.34-37.09,2.38-40.16-19.09A50.15,50.15,0,0,1,1579.13,1553.4Z" transform="translate(-866.96 -1080)"/><path class="cls-3" d="M1672.91,1588.77a46.18,46.18,0,0,1,0,5.37c-1.15,10.48-9.52,18.36-18.39,17.43-6.9-.72-13.11-12.17-11.51-21.51a29.82,29.82,0,0,1,2-6.7c3.33-7.8,7.37-15.76,17.61-13.47C1671.91,1572,1673.7,1579.81,1672.91,1588.77Z" transform="translate(-866.96 -1080)"/><path class="cls-1" d="M2047.75,1515.83c-1.77,6.41.84,16.8-8.77,17.75-8.93.88-10.64-8.75-12.76-15.71a41.51,41.51,0,0,1,0-25.31c1-3.12,2.64-5.94,6-6.52,3.93-.67,6.67,1.79,8.6,4.87C2045.51,1498.39,2046.91,1506.83,2047.75,1515.83Z" transform="translate(-866.96 -1080)"/><path class="cls-1" d="M2275.88,1498.08c-.12,10.83-1.67,19.25-7.16,26.29-5.2,6.67-11.23,5.82-13.83-2.2-3.78-11.66-2.12-23.12,3.27-34,1.91-3.84,4.09-8,9.26-7.68,5.57.31,6.13,5.55,7.5,9.29C2276.08,1492.94,2275.75,1496.66,2275.88,1498.08Z" transform="translate(-866.96 -1080)"/><path class="cls-3" d="M1597.8,1623.31c0-10.56,6.49-19.07,14.6-18.76,10,.38,13,7.35,13.32,15.71.31,9.09-7.46,19-14.25,18.53C1602.23,1638.1,1597.88,1632.43,1597.8,1623.31Z" transform="translate(-866.96 -1080)"/><path class="cls-1" d="M2243.47,2910.07c-2.31,26.33-18.91,40.73-41.67,36.17-15.68-3.15-24.16-14.22-27.47-35.86,4.16-15,11.4-27.24,28.17-30.27C2222.76,2876.45,2237.35,2887.29,2243.47,2910.07Zm-19.93-6.89c-9.79-11.89-19.63-11.74-29.25.43-5.3,9.17-3.83,17.35,4.39,23.77,6.94,5.42,14.78,5.46,21.47-.23C2228,2920.48,2229.19,2912.13,2223.54,2903.18Z" transform="translate(-866.96 -1080)"/><path class="cls-1" d="M1553.82,2905.57c-1.54,12.19-4.07,24-15.58,31-24.67,15.19-51,1.48-53.31-27.67-.09-1.15-.34-2.3-.51-3.45,3.87-16.76,13.55-27.78,31.15-30,14.14-1.75,24.94,4.46,32.33,16.29C1550.51,2896,1551.88,2901,1553.82,2905.57Zm-19.51-4.88c-8.26-13.24-19.49-14-29.51-2-5.81,8.62-5,16.84,2.48,23.78,6.42,6,14.16,6.11,21.26,1.31C1537.07,2918.06,1538.89,2910,1534.31,2900.69Z" transform="translate(-866.96 -1080)"/><path d="M1056.7,1252.38c0-4.39,0-8.42,0-12.45,0-8.54,1-17,4.13-24.94,9.65-24.78,27.46-40.25,53.7-44.78,30.2-5.22,58.37,9,72.9,35.94a66.88,66.88,0,0,1,8,31.72c0,4.73,0,9.47,0,14.52,3.13,0,6,.07,8.94,0,7.5-.2,14.9.11,21.86,3.36,14.72,6.86,23.4,18.32,24.82,34.48,3,33.7,5.49,67.45,8.2,101.17,1,12.8,2.11,25.59,3.14,38.39,1.9,23.62-17.33,44.37-41.29,44.4q-74.79.08-149.59,0c-14.11,0-28.22.2-42.33-.12-19-.44-36.06-15.47-38.68-34.36-.87-6.27-.34-12.79.09-19.16,1-15.18,2.37-30.34,3.6-45.5q2.28-28.2,4.58-56.39c.71-8.76,1.53-17.52,2-26.3,1.32-23,19.22-40,42.23-40Zm0,27.91c-5.82,0-11.35,0-16.87,0a5.52,5.52,0,0,0-1.83.48c-6.44,2.4-9.14,7.3-9.6,13.91-.75,11-1.68,22-2.56,33q-2.05,25.61-4.12,51.19c-1.37,16.83-2.63,33.66-4.14,50.47-1,10.57,4.88,17.25,15.48,17.25H1152q34,0,68,0c8.1,0,14.09-5.38,14.61-13.23a46.76,46.76,0,0,0-.38-6.88q-2.74-34-5.52-68-2.67-32.94-5.29-65.88c-.46-5.68-4.67-11.24-10.28-11.93-5.81-.71-11.78-.16-17.8-.16,0,9,.06,18.13-.06,27.24a15.47,15.47,0,0,1-1.19,5.74,13.75,13.75,0,0,1-26.35-5.28c-.11-8.48,0-17,0-25.45,0-.84-.08-1.68-.11-2.56h-83.13v2.7c0,8.32,0,16.65,0,25a13.29,13.29,0,0,1-5.79,11.17,13.12,13.12,0,0,1-14.16,1.23c-5.36-2.62-7.79-7.23-7.81-13.13,0-8,0-16,0-24Zm28-27.9h80.85c1.09,0,2.33.26,2.24-1.54-.32-6.88.07-13.86-1-20.61-2.74-16.78-16.45-29.71-33.93-32.93-15.83-2.91-33.2,5.11-42,18.9C1083.69,1227.4,1084.25,1239.69,1084.66,1252.39Z" transform="translate(-866.96 -1080)"/></svg>