<svg width="32" height="32" viewBox="0 0 32 32" fill="none" xmlns="http://www.w3.org/2000/svg">
<path d="M27.0612 13.0612L17.0612 23.0612C16.9218 23.2011 16.7563 23.312 16.5739 23.3877C16.3916 23.4634 16.1961 23.5024 15.9987 23.5024C15.8013 23.5024 15.6058 23.4634 15.4235 23.3877C15.2411 23.312 15.0756 23.2011 14.9362 23.0612L4.9362 13.0612C4.6544 12.7794 4.49609 12.3972 4.49609 11.9987C4.49609 11.6002 4.6544 11.218 4.9362 10.9362C5.21799 10.6544 5.60018 10.4961 5.9987 10.4961C6.39721 10.4961 6.7794 10.6544 7.0612 10.9362L15.9999 19.875L24.9387 10.935C25.2205 10.6532 25.6027 10.4949 26.0012 10.4949C26.3997 10.4949 26.7819 10.6532 27.0637 10.935C27.3455 11.2168 27.5038 11.599 27.5038 11.9975C27.5038 12.396 27.3455 12.7782 27.0637 13.06L27.0612 13.0612Z" fill="black"/>
</svg>
