<svg width="34" height="34" viewBox="0 0 34 34" fill="none" xmlns="http://www.w3.org/2000/svg">
<path d="M31.45 24.9807L19.8355 4.81043C19.5453 4.31627 19.1309 3.90654 18.6336 3.62184C18.1362 3.33715 17.573 3.18738 17 3.18738C16.4269 3.18738 15.8637 3.33715 15.3664 3.62184C14.869 3.90654 14.4546 4.31627 14.1644 4.81043L2.54996 24.9807C2.2707 25.4586 2.12354 26.0023 2.12354 26.5558C2.12354 27.1094 2.2707 27.653 2.54996 28.131C2.83648 28.6281 3.25011 29.0401 3.74841 29.3246C4.24671 29.6091 4.81173 29.7559 5.38551 29.75H28.6144C29.1877 29.7555 29.7522 29.6084 30.25 29.3239C30.7478 29.0394 31.161 28.6277 31.4473 28.131C31.727 27.6532 31.8746 27.1098 31.8751 26.5562C31.8755 26.0026 31.7288 25.4589 31.45 24.9807ZM29.6078 27.0672C29.5066 27.2399 29.3612 27.3826 29.1867 27.4806C29.0121 27.5786 28.8146 27.6284 28.6144 27.625H5.38551C5.18533 27.6284 4.98783 27.5786 4.81326 27.4806C4.63868 27.3826 4.49332 27.2399 4.39207 27.0672C4.30035 26.9119 4.25198 26.7348 4.25198 26.5545C4.25198 26.3742 4.30035 26.1971 4.39207 26.0418L16.0065 5.87161C16.1098 5.69971 16.2558 5.55747 16.4304 5.45872C16.6049 5.35997 16.8021 5.30807 17.0026 5.30807C17.2032 5.30807 17.4003 5.35997 17.5748 5.45872C17.7494 5.55747 17.8954 5.69971 17.9987 5.87161L29.6132 26.0418C29.7041 26.1976 29.7515 26.3749 29.7506 26.5552C29.7497 26.7356 29.7004 26.9124 29.6078 27.0672ZM15.9375 19.125V13.8125C15.9375 13.5307 16.0494 13.2604 16.2487 13.0612C16.4479 12.8619 16.7182 12.75 17 12.75C17.2818 12.75 17.552 12.8619 17.7513 13.0612C17.9505 13.2604 18.0625 13.5307 18.0625 13.8125V19.125C18.0625 19.4068 17.9505 19.677 17.7513 19.8763C17.552 20.0755 17.2818 20.1875 17 20.1875C16.7182 20.1875 16.4479 20.0755 16.2487 19.8763C16.0494 19.677 15.9375 19.4068 15.9375 19.125ZM18.5937 23.9062C18.5937 24.2214 18.5002 24.5296 18.3251 24.7917C18.15 25.0537 17.9011 25.258 17.6099 25.3786C17.3186 25.4993 16.9982 25.5308 16.689 25.4693C16.3799 25.4078 16.0959 25.2561 15.873 25.0332C15.6501 24.8103 15.4983 24.5263 15.4368 24.2171C15.3753 23.908 15.4069 23.5875 15.5275 23.2963C15.6482 23.0051 15.8524 22.7562 16.1145 22.5811C16.3766 22.4059 16.6847 22.3125 17 22.3125C17.4226 22.3125 17.828 22.4804 18.1269 22.7793C18.4258 23.0782 18.5937 23.4835 18.5937 23.9062Z" fill="#F79009"/>
</svg>
