<svg width="32" height="32" viewBox="0 0 32 32" fill="none" xmlns="http://www.w3.org/2000/svg">
<path d="M30.3751 12.0063C30.2232 11.5405 29.9376 11.1295 29.5541 10.8246C29.1705 10.5197 28.7057 10.3343 28.2176 10.2913L21.0926 9.67504L18.3051 3.03254C18.1134 2.58082 17.7929 2.19553 17.3837 1.92468C16.9745 1.65383 16.4946 1.5094 16.0039 1.5094C15.5131 1.5094 15.0333 1.65383 14.6241 1.92468C14.2148 2.19553 13.8944 2.58082 13.7026 3.03254L10.9114 9.67504L3.78638 10.2913C3.29562 10.3319 2.82778 10.5166 2.44158 10.8221C2.05538 11.1277 1.76801 11.5404 1.61553 12.0087C1.46306 12.4769 1.45226 12.9798 1.58451 13.4541C1.71675 13.9285 1.98614 14.3532 2.35888 14.675L7.77388 19.4L6.14888 26.43C6.03744 26.9087 6.06957 27.4097 6.24127 27.8702C6.41296 28.3308 6.7166 28.7305 7.11423 29.0194C7.51185 29.3083 7.98581 29.4736 8.47687 29.4946C8.96792 29.5156 9.45428 29.3914 9.87513 29.1375L16.0001 25.4175L22.1251 29.1375C22.546 29.391 23.0322 29.5149 23.523 29.4937C24.0138 29.4725 24.4875 29.3071 24.8849 29.0183C25.2823 28.7294 25.5858 28.3299 25.7575 27.8696C25.9291 27.4093 25.9614 26.9086 25.8501 26.43L24.2251 19.4L29.6401 14.675C30.0119 14.3521 30.2799 13.9265 30.4107 13.4517C30.5415 12.9769 30.5291 12.4741 30.3751 12.0063ZM22.0314 17.3338C21.6886 17.632 21.4335 18.0181 21.2937 18.4504C21.1538 18.8828 21.1345 19.345 21.2376 19.7875L22.6614 25.9525L17.2939 22.6925C16.9041 22.4552 16.4565 22.3296 16.0001 22.3296C15.5438 22.3296 15.0962 22.4552 14.7064 22.6925L9.33888 25.9525L10.7626 19.7875C10.8658 19.345 10.8464 18.8828 10.7066 18.4504C10.5667 18.0181 10.3117 17.632 9.96888 17.3338L5.20763 13.18L11.4751 12.6375C11.929 12.5987 12.3635 12.4361 12.7313 12.1674C13.0992 11.8987 13.3863 11.5343 13.5614 11.1138L16.0001 5.30254L18.4389 11.1138C18.614 11.5343 18.9011 11.8987 19.2689 12.1674C19.6368 12.4361 20.0713 12.5987 20.5251 12.6375L26.7926 13.18L22.0314 17.3338Z" fill="black"/>
</svg>
