<svg width="32" height="32" viewBox="0 0 32 32" fill="none" xmlns="http://www.w3.org/2000/svg">
<path d="M15.0001 16C15.0001 16.3955 14.8828 16.7822 14.663 17.1111C14.4432 17.44 14.1309 17.6964 13.7654 17.8477C13.4 17.9991 12.9978 18.0387 12.6099 17.9615C12.2219 17.8844 11.8656 17.6939 11.5859 17.4142C11.3061 17.1345 11.1157 16.7781 11.0385 16.3902C10.9613 16.0022 11.0009 15.6001 11.1523 15.2346C11.3037 14.8692 11.56 14.5568 11.8889 14.337C12.2178 14.1173 12.6045 14 13.0001 14C13.5305 14 14.0392 14.2107 14.4143 14.5858C14.7894 14.9608 15.0001 15.4695 15.0001 16ZM19.0001 14C18.6045 14 18.2178 14.1173 17.8889 14.337C17.56 14.5568 17.3037 14.8692 17.1523 15.2346C17.0009 15.6001 16.9613 16.0022 17.0385 16.3902C17.1157 16.7781 17.3061 17.1345 17.5859 17.4142C17.8656 17.6939 18.2219 17.8844 18.6099 17.9615C18.9978 18.0387 19.4 17.9991 19.7654 17.8477C20.1309 17.6964 20.4432 17.44 20.663 17.1111C20.8828 16.7822 21.0001 16.3955 21.0001 16C21.0001 15.4695 20.7894 14.9608 20.4143 14.5858C20.0392 14.2107 19.5305 14 19.0001 14ZM29.5001 16C29.5006 18.3124 28.907 20.5862 27.7764 22.6034C26.6458 24.6206 25.0159 26.3136 23.0431 27.52C21.0703 28.7265 18.8207 29.4059 16.5099 29.4932C14.199 29.5805 11.9045 29.0728 9.84631 28.0187L5.79257 29.375C5.35127 29.5237 4.8772 29.5462 4.42379 29.44C3.97038 29.3337 3.55566 29.103 3.22637 28.7737C2.89708 28.4444 2.66631 28.0297 2.56007 27.5762C2.45383 27.1228 2.47634 26.6488 2.62507 26.2075L3.97632 22.1537C3.04843 20.3362 2.54466 18.3319 2.5029 16.2917C2.46114 14.2514 2.88246 12.2282 3.7352 10.3742C4.58793 8.52022 5.84988 6.88368 7.42617 5.58762C9.00245 4.29157 10.8521 3.36974 12.8359 2.89143C14.8198 2.41313 16.8862 2.3908 18.8799 2.82613C20.8737 3.26146 22.7428 4.14311 24.3467 5.40481C25.9506 6.6665 27.2476 8.2754 28.1402 10.1105C29.0328 11.9457 29.4977 13.9593 29.5001 16ZM26.5001 16C26.4994 14.3894 26.1283 12.8006 25.4155 11.3564C24.7026 9.91215 23.667 8.65129 22.3889 7.67133C21.1107 6.69136 19.6243 6.01856 18.0446 5.70495C16.4648 5.39135 14.8341 5.44536 13.2786 5.8628C11.7231 6.28024 10.2844 7.04993 9.07391 8.11232C7.86343 9.1747 6.91356 10.5013 6.29779 11.9895C5.68202 13.4777 5.41686 15.0877 5.52281 16.6947C5.62876 18.3018 6.10299 19.863 6.90882 21.2575C7.01532 21.4414 7.08154 21.6458 7.10309 21.8572C7.12464 22.0686 7.10103 22.2821 7.03382 22.4837L5.79257 26.2075L9.51631 24.9662C9.6695 24.9152 9.82986 24.889 9.99132 24.8887C10.2548 24.8892 10.5134 24.959 10.7413 25.0912C12.3376 26.0149 14.149 26.5018 15.9932 26.503C17.8375 26.5042 19.6495 26.0196 21.247 25.098C22.8445 24.1765 24.171 22.8504 25.0932 21.2532C26.0154 19.6561 26.5006 17.8442 26.5001 16Z" fill="black"/>
</svg>
