<svg width="32" height="32" viewBox="0 0 32 32" fill="none" xmlns="http://www.w3.org/2000/svg">
<path d="M5 11.5H8.7575C9.06775 12.3772 9.64232 13.1367 10.4021 13.6739C11.1619 14.2111 12.0695 14.4996 13 14.4996C13.9305 14.4996 14.8381 14.2111 15.5979 13.6739C16.3577 13.1367 16.9323 12.3772 17.2425 11.5H27C27.3978 11.5 27.7794 11.3419 28.0607 11.0606C28.342 10.7793 28.5 10.3978 28.5 9.99997C28.5 9.60214 28.342 9.22061 28.0607 8.93931C27.7794 8.658 27.3978 8.49997 27 8.49997H17.2425C16.9323 7.62271 16.3577 6.8632 15.5979 6.32601C14.8381 5.78882 13.9305 5.50037 13 5.50037C12.0695 5.50037 11.1619 5.78882 10.4021 6.32601C9.64232 6.8632 9.06775 7.62271 8.7575 8.49997H5C4.60218 8.49997 4.22064 8.658 3.93934 8.93931C3.65804 9.22061 3.5 9.60214 3.5 9.99997C3.5 10.3978 3.65804 10.7793 3.93934 11.0606C4.22064 11.3419 4.60218 11.5 5 11.5ZM13 8.49997C13.2967 8.49997 13.5867 8.58794 13.8334 8.75276C14.08 8.91759 14.2723 9.15185 14.3858 9.42594C14.4994 9.70003 14.5291 10.0016 14.4712 10.2926C14.4133 10.5836 14.2704 10.8509 14.0607 11.0606C13.8509 11.2704 13.5836 11.4133 13.2926 11.4711C13.0017 11.529 12.7001 11.4993 12.426 11.3858C12.1519 11.2723 11.9176 11.08 11.7528 10.8333C11.588 10.5866 11.5 10.2966 11.5 9.99997C11.5 9.60214 11.658 9.22061 11.9393 8.93931C12.2206 8.658 12.6022 8.49997 13 8.49997ZM27 20.5H25.2425C24.9323 19.6227 24.3577 18.8632 23.5979 18.326C22.8381 17.7888 21.9305 17.5004 21 17.5004C20.0695 17.5004 19.1619 17.7888 18.4021 18.326C17.6423 18.8632 17.0677 19.6227 16.7575 20.5H5C4.60218 20.5 4.22064 20.658 3.93934 20.9393C3.65804 21.2206 3.5 21.6021 3.5 22C3.5 22.3978 3.65804 22.7793 3.93934 23.0606C4.22064 23.3419 4.60218 23.5 5 23.5H16.7575C17.0677 24.3772 17.6423 25.1367 18.4021 25.6739C19.1619 26.2111 20.0695 26.4996 21 26.4996C21.9305 26.4996 22.8381 26.2111 23.5979 25.6739C24.3577 25.1367 24.9323 24.3772 25.2425 23.5H27C27.3978 23.5 27.7794 23.3419 28.0607 23.0606C28.342 22.7793 28.5 22.3978 28.5 22C28.5 21.6021 28.342 21.2206 28.0607 20.9393C27.7794 20.658 27.3978 20.5 27 20.5ZM21 23.5C20.7033 23.5 20.4133 23.412 20.1666 23.2472C19.92 23.0824 19.7277 22.8481 19.6142 22.574C19.5007 22.2999 19.4709 21.9983 19.5288 21.7073C19.5867 21.4164 19.7296 21.1491 19.9393 20.9393C20.1491 20.7295 20.4164 20.5867 20.7074 20.5288C20.9983 20.4709 21.2999 20.5006 21.574 20.6142C21.8481 20.7277 22.0824 20.9199 22.2472 21.1666C22.412 21.4133 22.5 21.7033 22.5 22C22.5 22.3978 22.342 22.7793 22.0607 23.0606C21.7794 23.3419 21.3978 23.5 21 23.5Z" fill="black"/>
</svg>
