<svg width="34" height="34" viewBox="0 0 34 34" fill="none" xmlns="http://www.w3.org/2000/svg">
<path d="M17 3.1875C14.2682 3.1875 11.5976 3.99759 9.32619 5.51533C7.05474 7.03306 5.28436 9.19028 4.23892 11.7142C3.19348 14.2381 2.91995 17.0153 3.45291 19.6947C3.98587 22.374 5.30138 24.8352 7.23309 26.7669C9.16481 28.6986 11.626 30.0141 14.3053 30.5471C16.9847 31.0801 19.7619 30.8065 22.2858 29.7611C24.8097 28.7156 26.9669 26.9453 28.4847 24.6738C30.0024 22.4024 30.8125 19.7319 30.8125 17C30.8086 13.3379 29.3522 9.82687 26.7626 7.23736C24.1731 4.64785 20.6621 3.19137 17 3.1875ZM17 28.6875C14.6884 28.6875 12.4288 28.002 10.5068 26.7178C8.58478 25.4336 7.08676 23.6082 6.20216 21.4726C5.31756 19.337 5.08611 16.987 5.53708 14.7199C5.98804 12.4527 7.10117 10.3702 8.7357 8.73569C10.3702 7.10116 12.4527 5.98804 14.7199 5.53707C16.987 5.08611 19.337 5.31756 21.4726 6.20216C23.6082 7.08676 25.4336 8.58477 26.7178 10.5068C28.002 12.4288 28.6875 14.6884 28.6875 17C28.684 20.0986 27.4515 23.0694 25.2604 25.2604C23.0694 27.4515 20.0986 28.684 17 28.6875ZM15.9375 18.0625V10.625C15.9375 10.3432 16.0494 10.073 16.2487 9.8737C16.448 9.67444 16.7182 9.5625 17 9.5625C17.2818 9.5625 17.5521 9.67444 17.7513 9.8737C17.9506 10.073 18.0625 10.3432 18.0625 10.625V18.0625C18.0625 18.3443 17.9506 18.6145 17.7513 18.8138C17.5521 19.0131 17.2818 19.125 17 19.125C16.7182 19.125 16.448 19.0131 16.2487 18.8138C16.0494 18.6145 15.9375 18.3443 15.9375 18.0625ZM18.5938 22.8438C18.5938 23.159 18.5003 23.4671 18.3252 23.7292C18.15 23.9913 17.9011 24.1956 17.6099 24.3162C17.3187 24.4368 16.9982 24.4684 16.6891 24.4069C16.3799 24.3454 16.0959 24.1936 15.8731 23.9707C15.6502 23.7478 15.4984 23.4638 15.4369 23.1547C15.3754 22.8455 15.4069 22.5251 15.5276 22.2338C15.6482 21.9426 15.8525 21.6937 16.1146 21.5186C16.3767 21.3435 16.6848 21.25 17 21.25C17.4227 21.25 17.8281 21.4179 18.127 21.7168C18.4258 22.0157 18.5938 22.4211 18.5938 22.8438Z" fill="#F04438"/>
</svg>
