<svg width="32" height="32" viewBox="0 0 32 32" fill="none" xmlns="http://www.w3.org/2000/svg">
<path d="M27.695 12.6063L17.7013 3.17253L17.6812 3.15378C17.222 2.73348 16.622 2.50037 15.9994 2.50037C15.3768 2.50037 14.7768 2.73348 14.3175 3.15378L14.2963 3.17253L4.305 12.6063C4.05163 12.8407 3.84935 13.1249 3.71084 13.4411C3.57233 13.7572 3.50055 14.0986 3.5 14.4438V26C3.5 26.6631 3.76339 27.299 4.23223 27.7678C4.70107 28.2366 5.33696 28.5 6 28.5H26C26.663 28.5 27.2989 28.2366 27.7678 27.7678C28.2366 27.299 28.5 26.6631 28.5 26V14.4438C28.4995 14.0986 28.4277 13.7572 28.2892 13.4411C28.1506 13.1249 27.9484 12.8407 27.695 12.6063ZM25.5 25.5H6.5V14.66L16 5.69128L25.5 14.66V25.5Z" fill="black"/>
</svg>
