<svg width="32" height="32" viewBox="0 0 32 32" fill="none" xmlns="http://www.w3.org/2000/svg">
<path d="M17.5001 10V15.1513L21.7713 17.7138C21.9441 17.8132 22.0952 17.9459 22.2161 18.1044C22.3369 18.2628 22.425 18.4438 22.4751 18.6366C22.5252 18.8295 22.5364 19.0304 22.508 19.2276C22.4797 19.4249 22.4123 19.6145 22.3098 19.7854C22.2073 19.9563 22.0718 20.105 21.9112 20.223C21.7506 20.3409 21.5681 20.4257 21.3744 20.4723C21.1807 20.519 20.9796 20.5265 20.7829 20.4946C20.5862 20.4626 20.3979 20.3918 20.2288 20.2863L15.2288 17.2863C15.0066 17.1531 14.8227 16.9646 14.695 16.7392C14.5673 16.5138 14.5001 16.2591 14.5001 16V10C14.5001 9.60222 14.6581 9.22069 14.9394 8.93939C15.2207 8.65808 15.6023 8.50005 16.0001 8.50005C16.3979 8.50005 16.7794 8.65808 17.0607 8.93939C17.3421 9.22069 17.5001 9.60222 17.5001 10ZM28.0001 6.50005C27.6023 6.50005 27.2207 6.65808 26.9394 6.93939C26.6581 7.22069 26.5001 7.60222 26.5001 8.00005V8.9213C25.9738 8.33755 25.4276 7.75755 24.8388 7.1613C23.1015 5.42414 20.8907 4.23747 18.4828 3.74957C16.0749 3.26168 13.5766 3.49418 11.3001 4.41804C9.02354 5.34189 7.06974 6.91613 5.68279 8.94405C4.29584 10.972 3.53724 13.3637 3.50179 15.8202C3.46634 18.2768 4.1556 20.6894 5.48346 22.7565C6.81131 24.8236 8.71888 26.4536 10.9678 27.4427C13.2167 28.4319 15.7073 28.7364 18.1283 28.3182C20.5493 27.9 22.7933 26.7776 24.5801 25.0913C24.8695 24.8181 25.0386 24.4412 25.05 24.0434C25.0615 23.6455 24.9145 23.2595 24.6413 22.97C24.3682 22.6806 23.9912 22.5116 23.5934 22.5001C23.1956 22.4886 22.8095 22.6356 22.5201 22.9088C21.1624 24.1901 19.4572 25.043 17.6176 25.3609C15.7781 25.6789 13.8856 25.4478 12.1766 24.6965C10.4675 23.9452 9.01778 22.707 8.00833 21.1366C6.99888 19.5662 6.4745 17.7331 6.50068 15.8665C6.52687 13.9998 7.10247 12.1822 8.15557 10.6407C9.20868 9.09926 10.6926 7.90223 12.422 7.19917C14.1514 6.4961 16.0497 6.31817 17.8796 6.68758C19.7096 7.057 21.3901 7.95739 22.7113 9.2763C23.4513 10.025 24.1251 10.75 24.7788 11.5H23.0001C22.6023 11.5 22.2207 11.6581 21.9394 11.9394C21.6581 12.2207 21.5001 12.6022 21.5001 13C21.5001 13.3979 21.6581 13.7794 21.9394 14.0607C22.2207 14.342 22.6023 14.5 23.0001 14.5H28.0001C28.3979 14.5 28.7794 14.342 29.0607 14.0607C29.3421 13.7794 29.5001 13.3979 29.5001 13V8.00005C29.5001 7.60222 29.3421 7.22069 29.0607 6.93939C28.7794 6.65808 28.3979 6.50005 28.0001 6.50005Z" fill="black"/>
</svg>
