<svg width="29" height="27" viewBox="0 0 29 27" fill="none" xmlns="http://www.w3.org/2000/svg">
<path d="M27.3188 12.2973L21.6813 17.2173L23.37 24.5422C23.4594 24.9252 23.4339 25.326 23.2967 25.6945C23.1595 26.063 22.9168 26.3829 22.5988 26.6142C22.2808 26.8455 21.9017 26.9779 21.5088 26.9949C21.116 27.0119 20.7268 26.9127 20.39 26.7097L14.0013 22.8347L7.62628 26.7097C7.28949 26.9127 6.90035 27.0119 6.50749 26.9949C6.11464 26.9779 5.73552 26.8455 5.41752 26.6142C5.09952 26.3829 4.85676 26.063 4.71959 25.6945C4.58241 25.326 4.55691 24.9252 4.64628 24.5422L6.33253 17.2248L0.693778 12.2973C0.395539 12.04 0.179881 11.7005 0.0738477 11.3212C-0.0321851 10.9419 -0.0238726 10.5397 0.0977427 10.1651C0.219358 9.79055 0.448862 9.4602 0.757476 9.21552C1.06609 8.97084 1.44007 8.82273 1.83253 8.78975L9.26503 8.146L12.1663 1.226C12.3178 0.862896 12.5733 0.552735 12.9008 0.334573C13.2282 0.11641 13.6128 0 14.0063 0C14.3997 0 14.7844 0.11641 15.1118 0.334573C15.4392 0.552735 15.6948 0.862896 15.8463 1.226L18.7563 8.146L26.1863 8.78975C26.5787 8.82273 26.9527 8.97084 27.2613 9.21552C27.5699 9.4602 27.7994 9.79055 27.9211 10.1651C28.0427 10.5397 28.051 10.9419 27.945 11.3212C27.8389 11.7005 27.6233 12.04 27.325 12.2973H27.3188Z" fill="#F79009"/>
</svg>
