<svg width="34" height="34" viewBox="0 0 34 34" fill="none" xmlns="http://www.w3.org/2000/svg">
<path d="M23.0642 13.0608C23.163 13.1595 23.2414 13.2766 23.2949 13.4056C23.3483 13.5346 23.3758 13.6729 23.3758 13.8125C23.3758 13.9521 23.3483 14.0904 23.2949 14.2194C23.2414 14.3484 23.163 14.4655 23.0642 14.5642L15.6267 22.0017C15.528 22.1005 15.4109 22.1789 15.2819 22.2323C15.1529 22.2858 15.0146 22.3133 14.875 22.3133C14.7354 22.3133 14.5971 22.2858 14.4681 22.2323C14.3391 22.1789 14.222 22.1005 14.1233 22.0017L10.9358 18.8142C10.7364 18.6149 10.6244 18.3444 10.6244 18.0625C10.6244 17.7806 10.7364 17.5101 10.9358 17.3108C11.1352 17.1114 11.4056 16.9994 11.6875 16.9994C11.9695 16.9994 12.2399 17.1114 12.4392 17.3108L14.875 19.7479L21.5608 13.0608C21.6595 12.962 21.7766 12.8836 21.9056 12.8302C22.0346 12.7767 22.1729 12.7492 22.3125 12.7492C22.4521 12.7492 22.5904 12.7767 22.7194 12.8302C22.8484 12.8836 22.9655 12.962 23.0642 13.0608ZM30.8125 17C30.8125 19.7319 30.0024 22.4024 28.4847 24.6738C26.9669 26.9453 24.8097 28.7156 22.2858 29.7611C19.7619 30.8065 16.9847 31.0801 14.3053 30.5471C11.626 30.0141 9.16481 28.6986 7.23309 26.7669C5.30138 24.8352 3.98587 22.374 3.45291 19.6947C2.91995 17.0153 3.19348 14.2381 4.23892 11.7142C5.28436 9.19028 7.05474 7.03306 9.32619 5.51533C11.5976 3.99759 14.2682 3.1875 17 3.1875C20.6621 3.19137 24.1731 4.64785 26.7626 7.23736C29.3522 9.82687 30.8086 13.3379 30.8125 17ZM28.6875 17C28.6875 14.6884 28.002 12.4288 26.7178 10.5068C25.4336 8.58477 23.6082 7.08676 21.4726 6.20216C19.337 5.31756 16.987 5.08611 14.7199 5.53707C12.4527 5.98804 10.3702 7.10116 8.7357 8.73569C7.10117 10.3702 5.98804 12.4527 5.53708 14.7199C5.08611 16.987 5.31756 19.337 6.20216 21.4726C7.08676 23.6082 8.58478 25.4336 10.5068 26.7178C12.4288 28.002 14.6884 28.6875 17 28.6875C20.0986 28.684 23.0694 27.4515 25.2604 25.2604C27.4515 23.0694 28.684 20.0986 28.6875 17Z" fill="#12B76A"/>
</svg>
