<svg width="21" height="29" viewBox="0 0 21 29" fill="none" xmlns="http://www.w3.org/2000/svg">
<g id="Apple logo">
<path d="M17.5371 15.2057C17.5614 13.0893 18.5738 11.0867 20.1798 9.97822C19.1667 8.3537 17.4696 7.32371 15.704 7.26169C13.8209 7.03978 11.9953 8.52678 11.0356 8.52678C10.0575 8.52678 8.57997 7.28373 6.98897 7.32048C4.91516 7.3957 2.98185 8.71939 1.97291 10.7549C-0.195938 14.9705 1.42182 21.1661 3.49939 24.5738C4.53885 26.2424 5.75367 28.1063 7.34324 28.0402C8.89872 27.9678 9.47967 26.9266 11.3573 26.9266C13.2175 26.9266 13.7625 28.0402 15.3843 27.9982C17.0534 27.9677 18.1051 26.3221 19.108 24.6377C19.8549 23.4488 20.4296 22.1347 20.8108 20.7442C18.8493 19.8128 17.5394 17.5967 17.5371 15.2057Z" fill="white"/>
<path d="M14.4738 5.02067C15.3838 3.79414 15.8322 2.21765 15.7236 0.625977C14.3332 0.789924 13.0489 1.53596 12.1265 2.71543C11.2246 3.86783 10.7552 5.41659 10.844 6.94742C12.2348 6.9635 13.6022 6.23769 14.4738 5.02067Z" fill="white"/>
</g>
</svg>
