<svg width="20" height="20" viewBox="0 0 20 20" fill="none" xmlns="http://www.w3.org/2000/svg">
<path d="M12.8125 4.37499C12.8125 4.12635 12.9113 3.88789 13.0871 3.71208C13.2629 3.53626 13.5013 3.43749 13.75 3.43749H14.6875V2.49999C14.6875 2.25135 14.7863 2.01289 14.9621 1.83708C15.1379 1.66126 15.3763 1.56249 15.625 1.56249C15.8736 1.56249 16.1121 1.66126 16.2879 1.83708C16.4637 2.01289 16.5625 2.25135 16.5625 2.49999V3.43749H17.5C17.7486 3.43749 17.9871 3.53626 18.1629 3.71208C18.3387 3.88789 18.4375 4.12635 18.4375 4.37499C18.4375 4.62363 18.3387 4.86209 18.1629 5.03791C17.9871 5.21372 17.7486 5.31249 17.5 5.31249H16.5625V6.24999C16.5625 6.49863 16.4637 6.73709 16.2879 6.91291C16.1121 7.08872 15.8736 7.18749 15.625 7.18749C15.3763 7.18749 15.1379 7.08872 14.9621 6.91291C14.7863 6.73709 14.6875 6.49863 14.6875 6.24999V5.31249H13.75C13.5013 5.31249 13.2629 5.21372 13.0871 5.03791C12.9113 4.86209 12.8125 4.62363 12.8125 4.37499ZM18.3211 8.59374C18.6172 10.3557 18.3457 12.1661 17.5458 13.7637C16.746 15.3612 15.4591 16.6633 13.8711 17.4819C12.283 18.3005 10.4759 18.5933 8.71064 18.3179C6.94536 18.0426 5.31324 17.2134 4.04991 15.9501C2.78658 14.6867 1.95739 13.0546 1.68205 11.2893C1.40672 9.52406 1.69948 7.71695 2.51807 6.1289C3.33666 4.54084 4.63873 3.254 6.23631 2.45414C7.83389 1.65429 9.64432 1.38281 11.4062 1.6789C11.6515 1.72034 11.8702 1.8575 12.0143 2.0602C12.1584 2.2629 12.216 2.51454 12.1746 2.75976C12.1332 3.00498 11.996 3.2237 11.7933 3.36779C11.5906 3.51189 11.339 3.56956 11.0937 3.52812C10.7323 3.46778 10.3664 3.43747 9.99998 3.43749C8.76804 3.43666 7.56077 3.78286 6.51649 4.43643C5.47221 5.09 4.63314 6.02452 4.09541 7.13291C3.55769 8.2413 3.34305 9.47875 3.47609 10.7035C3.60913 11.9282 4.08446 13.0907 4.84764 14.0578C5.45529 13.2849 6.2298 12.6595 7.11326 12.2281C6.55023 11.658 6.16838 10.934 6.01576 10.1474C5.86314 9.36073 5.94656 8.54652 6.25553 7.80717C6.56451 7.06782 7.08523 6.43636 7.7522 5.99222C8.41916 5.54809 9.20258 5.31111 10.0039 5.31111C10.8052 5.31111 11.5886 5.54809 12.2556 5.99222C12.9225 6.43636 13.4433 7.06782 13.7522 7.80717C14.0612 8.54652 14.1446 9.36073 13.992 10.1474C13.8394 10.934 13.4576 11.658 12.8945 12.2281C13.7782 12.6592 14.5527 13.2847 15.1601 14.0578C16.0719 12.9021 16.5661 11.4721 16.5625 9.99999C16.5624 9.63354 16.5321 9.26771 16.4719 8.90624C16.4304 8.66102 16.4881 8.40938 16.6322 8.20668C16.7763 8.00398 16.995 7.86682 17.2402 7.82538C17.4854 7.78394 17.7371 7.84161 17.9398 7.98571C18.1425 8.12981 18.2796 8.34852 18.3211 8.59374ZM9.99998 11.5625C10.4326 11.5625 10.8556 11.4342 11.2153 11.1938C11.575 10.9535 11.8554 10.6118 12.021 10.2121C12.1865 9.8124 12.2299 9.37257 12.1455 8.94823C12.061 8.5239 11.8527 8.13412 11.5468 7.8282C11.2409 7.52227 10.8511 7.31393 10.4267 7.22952C10.0024 7.14512 9.56258 7.18844 9.16286 7.35401C8.76315 7.51957 8.42151 7.79995 8.18114 8.15968C7.94078 8.51942 7.81248 8.94235 7.81248 9.37499C7.81248 9.95515 8.04295 10.5116 8.45319 10.9218C8.86342 11.332 9.41982 11.5625 9.99998 11.5625ZM9.99998 16.5625C11.3558 16.5635 12.6782 16.1421 13.7836 15.357C13.3484 14.7619 12.7789 14.2779 12.1215 13.9442C11.4641 13.6106 10.7372 13.4367 9.99998 13.4367C9.26274 13.4367 8.53588 13.6106 7.87846 13.9442C7.22105 14.2779 6.6516 14.7619 6.21639 15.357C7.32174 16.1421 8.64418 16.5635 9.99998 16.5625Z" fill="white"/>
</svg>
