<svg width="19" height="17" viewBox="0 0 19 17" fill="none" xmlns="http://www.w3.org/2000/svg">
<path d="M7.8125 15.375C7.8125 15.684 7.72086 15.9861 7.54917 16.2431C7.37748 16.5 7.13345 16.7003 6.84794 16.8186C6.56243 16.9368 6.24827 16.9678 5.94517 16.9075C5.64208 16.8472 5.36367 16.6984 5.14515 16.4799C4.92663 16.2613 4.77781 15.9829 4.71752 15.6798C4.65723 15.3767 4.68818 15.0626 4.80644 14.7771C4.9247 14.4915 5.12497 14.2475 5.38192 14.0758C5.63887 13.9041 5.94097 13.8125 6.25 13.8125C6.6644 13.8125 7.06183 13.9771 7.35485 14.2701C7.64788 14.5632 7.8125 14.9606 7.8125 15.375ZM14.375 13.8125C14.066 13.8125 13.7639 13.9041 13.5069 14.0758C13.25 14.2475 13.0497 14.4915 12.9314 14.7771C12.8132 15.0626 12.7822 15.3767 12.8425 15.6798C12.9028 15.9829 13.0516 16.2613 13.2701 16.4799C13.4887 16.6984 13.7671 16.8472 14.0702 16.9075C14.3733 16.9678 14.6874 16.9368 14.9729 16.8186C15.2585 16.7003 15.5025 16.5 15.6742 16.2431C15.8459 15.9861 15.9375 15.684 15.9375 15.375C15.9375 14.9606 15.7729 14.5632 15.4799 14.2701C15.1868 13.9771 14.7894 13.8125 14.375 13.8125ZM18.3961 4.40078L16.2641 11.3305C16.1279 11.7786 15.8509 12.1709 15.4742 12.4492C15.0974 12.7274 14.641 12.8767 14.1727 12.875H6.47891C6.00383 12.8735 5.54205 12.718 5.16275 12.432C4.78346 12.1459 4.50707 11.7446 4.375 11.2883L1.70391 1.9375H0.9375C0.68886 1.9375 0.450403 1.83873 0.274587 1.66291C0.098772 1.4871 0 1.24864 0 1C0 0.75136 0.098772 0.512903 0.274587 0.337087C0.450403 0.161272 0.68886 0.0625 0.9375 0.0625H1.93906C2.27839 0.0635483 2.60824 0.174595 2.87911 0.378983C3.14998 0.58337 3.34728 0.870077 3.44141 1.19609L4.01094 3.1875H17.5C17.6467 3.18749 17.7914 3.22191 17.9224 3.28801C18.0534 3.3541 18.167 3.45001 18.2542 3.56803C18.3414 3.68605 18.3996 3.82288 18.4243 3.96752C18.4489 4.11215 18.4393 4.26055 18.3961 4.40078ZM16.2305 5.0625H4.54609L6.17813 10.7734C6.19681 10.8388 6.23628 10.8962 6.29056 10.9371C6.34483 10.978 6.41096 11.0001 6.47891 11H14.1727C14.2395 11.0001 14.3047 10.9788 14.3586 10.9391C14.4124 10.8995 14.4521 10.8436 14.4719 10.7797L16.2305 5.0625Z" fill="white"/>
</svg>
