<svg width="34" height="32" viewBox="0 0 34 32" fill="none" xmlns="http://www.w3.org/2000/svg">
<rect width="34" height="32" rx="10" fill="white"/>
<path d="M14.8125 22.875C14.8125 23.184 14.7209 23.4861 14.5492 23.7431C14.3775 24 14.1335 24.2003 13.8479 24.3186C13.5624 24.4368 13.2483 24.4678 12.9452 24.4075C12.6421 24.3472 12.3637 24.1984 12.1451 23.9799C11.9266 23.7613 11.7778 23.4829 11.7175 23.1798C11.6572 22.8767 11.6882 22.5626 11.8064 22.2771C11.9247 21.9915 12.125 21.7475 12.3819 21.5758C12.6389 21.4041 12.941 21.3125 13.25 21.3125C13.6644 21.3125 14.0618 21.4771 14.3549 21.7701C14.6479 22.0632 14.8125 22.4606 14.8125 22.875ZM21.375 21.3125C21.066 21.3125 20.7639 21.4041 20.5069 21.5758C20.25 21.7475 20.0497 21.9915 19.9314 22.2771C19.8132 22.5626 19.7822 22.8767 19.8425 23.1798C19.9028 23.4829 20.0516 23.7613 20.2701 23.9799C20.4887 24.1984 20.7671 24.3472 21.0702 24.4075C21.3733 24.4678 21.6874 24.4368 21.9729 24.3186C22.2585 24.2003 22.5025 24 22.6742 23.7431C22.8459 23.4861 22.9375 23.184 22.9375 22.875C22.9375 22.4606 22.7729 22.0632 22.4799 21.7701C22.1868 21.4771 21.7894 21.3125 21.375 21.3125ZM25.3961 11.9008L23.2641 18.8305C23.1279 19.2786 22.8509 19.6709 22.4742 19.9492C22.0974 20.2274 21.641 20.3767 21.1727 20.375H13.4789C13.0038 20.3735 12.5421 20.218 12.1628 19.932C11.7835 19.6459 11.5071 19.2446 11.375 18.7883L8.70391 9.4375H7.9375C7.68886 9.4375 7.4504 9.33873 7.27459 9.16291C7.09877 8.9871 7 8.74864 7 8.5C7 8.25136 7.09877 8.0129 7.27459 7.83709C7.4504 7.66127 7.68886 7.5625 7.9375 7.5625H8.93906C9.27839 7.56355 9.60824 7.6746 9.87911 7.87898C10.15 8.08337 10.3473 8.37008 10.4414 8.69609L11.0109 10.6875H24.5C24.6467 10.6875 24.7914 10.7219 24.9224 10.788C25.0534 10.8541 25.167 10.95 25.2542 11.068C25.3414 11.1861 25.3996 11.3229 25.4243 11.4675C25.4489 11.6122 25.4393 11.7606 25.3961 11.9008ZM23.2305 12.5625H11.5461L13.1781 18.2734C13.1968 18.3388 13.2363 18.3962 13.2906 18.4371C13.3448 18.478 13.411 18.5001 13.4789 18.5H21.1727C21.2395 18.5001 21.3047 18.4788 21.3586 18.4391C21.4124 18.3995 21.4521 18.3436 21.4719 18.2797L23.2305 12.5625Z" fill="black"/>
</svg>
