<svg width="32" height="33" viewBox="0 0 32 33" fill="none" xmlns="http://www.w3.org/2000/svg">
<path d="M16.5 3C13.0533 3.00364 9.74882 4.37445 7.31163 6.81163C4.87445 9.24882 3.50364 12.5533 3.5 16V26.5413C3.50066 27.1931 3.75992 27.8182 4.22088 28.2791C4.68184 28.7401 5.30685 28.9993 5.95875 29H16.5C19.9478 29 23.2544 27.6304 25.6924 25.1924C28.1304 22.7544 29.5 19.4478 29.5 16C29.5 12.5522 28.1304 9.24558 25.6924 6.80761C23.2544 4.36964 19.9478 3 16.5 3ZM16.5 26H6.5V16C6.5 14.0222 7.08649 12.0888 8.1853 10.4443C9.28412 8.79981 10.8459 7.51808 12.6732 6.7612C14.5004 6.00433 16.5111 5.80629 18.4509 6.19215C20.3907 6.578 22.1725 7.53041 23.5711 8.92893C24.9696 10.3275 25.922 12.1093 26.3079 14.0491C26.6937 15.9889 26.4957 17.9996 25.7388 19.8268C24.9819 21.6541 23.7002 23.2159 22.0557 24.3147C20.4112 25.4135 18.4778 26 16.5 26ZM15.5 16.5C15.5 16.8956 15.3827 17.2822 15.1629 17.6111C14.9432 17.94 14.6308 18.1964 14.2654 18.3478C13.8999 18.4991 13.4978 18.5387 13.1098 18.4616C12.7219 18.3844 12.3655 18.1939 12.0858 17.9142C11.8061 17.6345 11.6156 17.2781 11.5384 16.8902C11.4613 16.5022 11.5009 16.1001 11.6522 15.7346C11.8036 15.3692 12.06 15.0568 12.3889 14.8371C12.7178 14.6173 13.1044 14.5 13.5 14.5C14.0304 14.5 14.5391 14.7107 14.9142 15.0858C15.2893 15.4609 15.5 15.9696 15.5 16.5ZM21.5 16.5C21.5 16.8956 21.3827 17.2822 21.1629 17.6111C20.9432 17.94 20.6308 18.1964 20.2654 18.3478C19.8999 18.4991 19.4978 18.5387 19.1098 18.4616C18.7219 18.3844 18.3655 18.1939 18.0858 17.9142C17.8061 17.6345 17.6156 17.2781 17.5384 16.8902C17.4613 16.5022 17.5009 16.1001 17.6522 15.7346C17.8036 15.3692 18.06 15.0568 18.3889 14.8371C18.7178 14.6173 19.1044 14.5 19.5 14.5C20.0304 14.5 20.5391 14.7107 20.9142 15.0858C21.2893 15.4609 21.5 15.9696 21.5 16.5Z" fill="#343330"/>
</svg>
