<svg width="21" height="20" viewBox="0 0 21 20" fill="none" xmlns="http://www.w3.org/2000/svg">
<g id="Confirmar">
<path id="Vector" d="M14.2883 7.46172C14.3757 7.54882 14.445 7.65231 14.4923 7.76626C14.5397 7.88022 14.564 8.00239 14.564 8.12578C14.564 8.24917 14.5397 8.37134 14.4923 8.4853C14.445 8.59925 14.3757 8.70275 14.2883 8.78984L9.91328 13.1648C9.82619 13.2522 9.72269 13.3216 9.60874 13.3689C9.49478 13.4162 9.37261 13.4406 9.24922 13.4406C9.12583 13.4406 9.00366 13.4162 8.8897 13.3689C8.77575 13.3216 8.67226 13.2522 8.58516 13.1648L6.71016 11.2898C6.62295 11.2026 6.55378 11.0991 6.50658 10.9852C6.45939 10.8712 6.4351 10.7491 6.4351 10.6258C6.4351 10.5025 6.45939 10.3803 6.50658 10.2664C6.55378 10.1525 6.62295 10.0489 6.71016 9.96172C6.79737 9.87451 6.90089 9.80534 7.01483 9.75814C7.12877 9.71095 7.25089 9.68665 7.37422 9.68665C7.49755 9.68665 7.61967 9.71095 7.73361 9.75814C7.84755 9.80534 7.95108 9.87451 8.03828 9.96172L9.25 11.1719L12.9617 7.45938C13.0489 7.37236 13.1525 7.3034 13.2664 7.25642C13.3803 7.20944 13.5023 7.18537 13.6255 7.18559C13.7487 7.18581 13.8706 7.21031 13.9844 7.25769C14.0981 7.30507 14.2014 7.3744 14.2883 7.46172ZM18.9375 10C18.9375 11.6688 18.4427 13.3001 17.5155 14.6876C16.5884 16.0752 15.2706 17.1566 13.7289 17.7952C12.1871 18.4338 10.4906 18.6009 8.85393 18.2754C7.21721 17.9498 5.7138 17.1462 4.53379 15.9662C3.35379 14.7862 2.55019 13.2828 2.22463 11.6461C1.89907 10.0094 2.06616 8.31286 2.70477 6.77111C3.34338 5.22936 4.42484 3.9116 5.81238 2.98448C7.19992 2.05735 8.83122 1.5625 10.5 1.5625C12.737 1.56498 14.8817 2.45473 16.4635 4.03653C18.0453 5.61833 18.935 7.763 18.9375 10ZM17.0625 10C17.0625 8.70206 16.6776 7.43327 15.9565 6.35407C15.2354 5.27487 14.2105 4.43374 13.0114 3.93704C11.8122 3.44034 10.4927 3.31038 9.21972 3.5636C7.94672 3.81681 6.7774 4.44183 5.85962 5.35961C4.94183 6.27739 4.31682 7.44672 4.0636 8.71972C3.81038 9.99272 3.94034 11.3122 4.43704 12.5114C4.93374 13.7105 5.77488 14.7354 6.85407 15.4565C7.93327 16.1776 9.20206 16.5625 10.5 16.5625C12.2399 16.5606 13.908 15.8686 15.1383 14.6383C16.3686 13.408 17.0606 11.7399 17.0625 10Z" fill="#FEFEFE"/>
</g>
</svg>
