<svg id="Layer_1" data-name="Layer 1" xmlns="http://www.w3.org/2000/svg" viewBox="0 0 608.66 570.64"><defs><style>.cls-1{fill:#0e0e6e;}.cls-2{fill:#ff4858;}.cls-3{fill:#759bf9;}.cls-4{fill:#b2394d;}.cls-5{fill:#666879;}.cls-6{fill:#ffaeb8;}.cls-7{fill:#c6c6c6;}.cls-8{fill:#cecffe;}.cls-9{fill:#fff;}.cls-10{fill:#45ab3c;}.cls-11{fill:#56da2c;}.cls-12{font-size:72px;font-family:MVBoli, MV Boli;}</style></defs><path class="cls-1" d="M1881.89,3010.54c-5.15,2.17-6,1.56-6.7-4.16-.41-3.43,1.35-8.23-1.3-9.92s-6.34,1.68-9.63,2.68c-3.85,1.18-5.17,0-4.75-4.23,1.23-12.38,11.73-22.26,25.42-23.32,9.74-.74,18.88,1,26.28,8.27,3.39,3.35,6.78-.49,10.2-.67,2.62-.13,2.15-2.51,2.19-4.27.3-13.33.85-26.64,2.44-39.88.42-3.45-.73-4.18-4-4.23-12-.17-23.94-.84-35.88-2.2-16.32-1.85-28.07-10.53-37.06-23.58-8.12-11.81-11.83-25.25-13.61-39.27-2-16-2.6-31.9,2.64-47.45,3.36-10,9.14-18.13,18.67-23.09,2.35-1.22,2.83-2.9,2.89-5.21a51.34,51.34,0,0,1,2.07-14.29,7.23,7.23,0,0,1,6.81-5.58,178.87,178.87,0,0,1,21-.79c2.12,0,3.73-.07,4.53-2.66,7.84-25.15,26.17-38,51-42.81,21.77-4.17,42.89-1.62,62.71,8.41,25.52,12.92,38.31,34.17,39,62.61.11,4.12,1.31,6.49,4.69,8.88,8.32,5.86,16,12.52,21.49,21.32,6.15,9.9,4.43,19.6-4.62,27a29.06,29.06,0,0,1-13.4,6.36c-3.91.67-4.62,2.52-4.43,6.06a72.48,72.48,0,0,1-1.07,16.42c-1.62,9.34-5.57,17.44-12.75,23.7-2.33,2-2.27,3.62-1.34,6.35,4.28,12.63,13.17,21,23.86,28.4,15.89,11,30.69,23.42,43,38.48a7,7,0,0,0,3.29,2.15c18.5,6.44,36.37,6.72,53.65-4.23,12.11-7.66,23.71-16,35.63-24,2.71-1.81,5.59-4.76,9-3.07,3.81,1.89,3.34,6.23,3.26,9.82-.55,25.16-10.51,46.81-25.3,66.53-15.95,21.28-37.69,35.08-61.47,45.69-17.44,7.79-35.37,14.51-53.42,20.8a117.36,117.36,0,0,1-24.33,5.33c-3,.37-4.58,1.41-4.45,4.65a31.47,31.47,0,0,1-.55,5.45c-1.52,11-1.32,10.73,6.92,18.35,4,3.65,6.5,4.17,11.52,1.17,25.72-15.39,60.24-3.54,73.18,24.59,12.42,27-1.48,59.81-29.7,70.18a51.87,51.87,0,0,1-68.85-36.75c-.92-3.83-2.33-5.47-6.26-4.77a19.37,19.37,0,0,1-5,.12c-2.62-.22-4,.62-5.32,3.19-6.86,13.73-21.62,19.58-35.25,14.28-13.83-5.38-20.58-19.29-16.55-34.31.58-2.16,1.53-4.08-1.59-5.1a2.53,2.53,0,0,1-1.56-3.3c1.5-4.61-1.2-4.09-4.08-3.48-1.8.37-3.6.74-5.41,1-3.43.49-7,1-4.91-4.52.78-2.11-.82-2-2.11-2.33-6.68-1.62-6.79-1.69-3.63-8.08,1-2.08.89-3.17-1.07-4.44-11.32-7.32-22.65-14.62-33.79-22.2-2.78-1.89-5-.17-7.48,0-1.6.09-1.08,2.16-1.31,3.38-.39,2.12,1.5,2.31,2.76,2.91,18.78,9,29.35,24,30.57,44.58,1.25,21.1-7.72,37.76-26.06,48.27-18.12,10.38-36.86,10-54.36-1.59-19.08-12.64-27.13-31.08-22.8-53.51,4.12-21.26,17.6-34.93,38.62-40.83a39,39,0,0,1,10.83-1.57c1.77,0,3.18-.09,3.58-2.41.36-2-.49-2.67-2.13-3.15-2.26-.65-2.49-2.31-2.09-4.35,1.67-8.49,3.33-17,4.87-25.5.5-2.78,1.36-4.87,4.72-4.4,2.18.3,2.34-1.15,2.57-2.74,1.16-8.07,2.41-16.13,3.55-24.2.13-.92.15-2.37-.4-2.81-3.81-3.06-4.35-7.76-6.18-11.8-2.47-5.44-3.79-11-1.46-16.9A3.93,3.93,0,0,0,1881.89,3010.54Zm309.19-12.33a83.7,83.7,0,0,0,10.91-37.28c.09-1.9.94-4.43-1.06-5.54-1.77-1-3.32,1-4.76,2-9.1,6.14-18.21,12.27-27.2,18.58-17.39,12.21-36.17,17.26-57.13,11.36-3.76-1.06-4.38,0-3.14,3.5a11.34,11.34,0,0,1,.28,7.75c-2.7-4.46-4.93-7.91-6.91-11.5a53.26,53.26,0,0,0-6.29-9c-10.17-11.8-22.14-21.63-34.57-30.84s-25.58-17.63-30.35-33.71c-.61-2.05-1.94-2.45-3.81-1.29-6.75,4.17-14.36,6-21.88,8.12-2.75-1.47-1.17-2.33.46-3.11,6.71-3.23,13.61-6.16,19.72-10.45,7.48-5.26,14.77-10.82,16.82-20.59a32,32,0,0,0,3.1-13.33,207.85,207.85,0,0,0-10.53-72c-.6-1.79-1.28-3.45-3.45-3.8-5.61-1.7-11.35-.62-17-.68-3.65,0-7.48-1.18-11,.84-.46.87-1,1.72-1.37,2.62-6.19,14.06-16.18,22.43-32.31,21.66-3.65-.17-7.35.19-10.93-.36-6.25-1-12.9-.71-18.24-5-.05-1.29-1-1.88-1.94-2.42a.61.61,0,0,0-.31-.5c-.29-.39-.59-.77-.88-1.15l-.8-1-1.26-1.91a1.55,1.55,0,0,0-.48-.84,2.79,2.79,0,0,0-1.42-2.3l-.54-1.13c-.37-.73-.75-1.46-1.13-2.19-.86-3.37-2.62-6.57-2.32-10.16s-1-4.53-4.52-4.53c-19.79,0-39.1,3.48-58.09,8.56-13.1,3.51-23.58,16.38-24.53,28.62l-.3.49.43-.37c2,.31,4.58-.64,5.68,2,1.83,4.39,2.67,9,1.1,13.62-1,3.06-3.27,3.42-5.94,1.61-1.05-.71-1.28-2.38-3.34-2.48-.38,10.86,0,21.57,2.26,32.17-.09,3.59,1.67,6.75,2.41,10.14.4,1.82,1.86,2.68,3.53,3.19,14,4.25,28.16,6.44,42.8,3.76,11.45-2.09,21.23-7.56,30.23-14.64,7.1-5.59,14.92-8.36,24.1-7.57a96.66,96.66,0,0,0,16-.05c7.33-.61,14.62-1.82,19.73-8.06,1.23-1.49,2.57-3.05-.46-4.09-1-1.43-3.41-1.36-3.67-3.56,8.91-2.39,17.61,4.8,16.35,13.74-.62-.4-1.14-.72-1.64-1.07-1.58-1.09-2.65-4.15-4.5-3.25a7.45,7.45,0,0,0-4,6.49c-.12,3.16-.53,6.3-.85,9.45-.56,5.46-2.28,6.46-7.16,3.75-3.33-1.85-6.4-4.16-9.58-6.29-4.72-3.18-9.17-2-11.73,3-1.13,2.23-2.22,4.48-3.46,6.65-2.15,3.71-4.1,3.86-6.72.36-1.59-2.12-2.72-4.58-4.24-6.76-1.31-1.85-1.57-5.07-5.25-4.09-3.45.91-2.78,3.57-2.93,6-.18,2.82-.35,5.66-.77,8.45-.67,4.43-2.34,5.35-6.55,3.52-2.43-1-4.64-2.6-7-3.79-3.52-1.76-5.74-.64-6.28,3.26-.47,3.46-.49,7-1.06,10.42-.74,4.41-2.78,5.38-6.59,3-3.38-2.08-6.48-4.6-9.71-6.93-3.55-3.43-8-2.83-9.79,1.34-.72,1.68-1.28,3.43-2,5.1-2.76,6.23-4.8,6.72-9.79,1.9-3.1-3-5.78-6.42-8.67-9.63-1.3-1.44-2.83-2.62-4.72-1.15-2.41,1.88-2.93,9.5-.88,11.89,7.76,9,17.22,15,29.25,16.56,8.76,1.14,17.54,1.68,26.36,2,8.46.28,17-.49,25.39,1,1.4.25,3.51-.11,3.64,1.77s-2,1.78-3.37,2c-7.34,1.31-7.35,1.29-7.17,9.13-1.29,4.43-1.12,9-1.08,13.51-1.6,7.36-.62,14.8-1.3,22.85,7.81-2.82,15-3.36,22-.16,3.63,1.65,7.1,3.63,10.62,5.5,5.15,2.74,8.57,1.37,9.93-4a18.38,18.38,0,0,1,7.89-11.11c3.3-1.18,5.26-3.35,6.66-6.74,3.44-8.34,10.52-12.53,17.82-10.89-8.4,3.14-12.58,9.38-14.39,17.48-.34,1.56-.91,3-2.57,3.35-7.85,1.51-10.39,7-10.76,14.13-.17,3.25-1.87,4.12-4.88,4.2-5.89.17-11.17-.55-16.51-3.91-11.42-7.17-23.49-5.93-31.65,2.19-5.26,5.24-5.18,5.61,1.76,7.83a1.14,1.14,0,0,0,1.75.06l5.57-.06c2.18,1.44,4.26,2.05,6.9.66,3.16-1.68,6.42-.95,9.5.79,2.65,1.5,4.59,3.78,6.76,5.83,10.14,9.54,27.6,7.66,33.7-4.19,2.46-4.78,5.4-6.89,10.45-7.29,3.91-.3,7.57-1.48,8.68-6a.62.62,0,0,0,.28-.57l.77-1.42c2-1.5,2.17.3,2.45,1.48.68,2.93-.63,5.46-1.8,8-2.77,2.61-6.27,3.46-9.85,4.19-6.89,1.41-8.85,6.39-5,12.47.49.87,1,1.72,1.47,2.6,2,3.69,4.26,6.07,9.29,5.14,4.57-.85,9.42-.2,14.14-.2a11.54,11.54,0,0,1,8.62,3.82c-11.24-.11-22.43-.54-32.37,5.19a47.66,47.66,0,0,0-21.34,24.9c-5.49,10.58-3.79,22-3.58,33.14,0,.73,1.2,1.43,1.84,2.15,2.63,8.7,8,15.5,14.82,21.28a59.16,59.16,0,0,1,9,10.12c-7.77-2.54-7.77-2.54-12.12,3.74a29.79,29.79,0,0,0-2.25,3.28c-2.68,5.33-6.41,8.11-12.67,6-1.33-.45-3-.12-4.45,0-2.76.27-2.83,1.75-1.54,3.74,1.45,3,5.58,3.9,6.32,7.32,1,4.89,4.7,6.93,8.61,8.89,3.42,1.71,6.79,3.5,10.23,5.17,7.18,3.47,8.8,3.55,13.74-2.58,7.11-8.83,14.51-17.27,23.31-24.46a12.62,12.62,0,0,0,4.22-7.73,124.87,124.87,0,0,0,2.09-14.29c.55-8.06.64-8-6.62-10.49-.12,0-.14-.39-.31-.9,21.8-1.37,33.67-14.36,39.84-34.23,1.44,7.24-1.4,13.44-3.28,19.8-2.69,3.35-4.92,7.06-9.11,10.47a37.6,37.6,0,0,0,4-.68c28.36-9,56.41-18.88,82.2-34,19.24-11.25,36-25.36,46.25-45.82.92-1.53,1.85-3.14,2.77-4.84C2189.23,3002,2190.2,3000.05,2191.08,2998.21ZM1922,2760c6.29.38,12.58.8,18.87,1.11,1.39.06,2.89.56,4-1,3.61-5,1.87-11.48-3.82-13.82-1.92-1.64-4-.88-6.1-.49-6.54,1.25-11.33,5.11-15.27,10.23-.87,1.12-2.78,2.15-1.87,3.64C1918.67,2761,1920.58,2760.25,1922,2760ZM1884,2988.47c2.28,2.5,4.19,3.38,7.3.46,3.85-3.61,7.19-2.84,11.46.49,3,2.36,4,5.48,4.91,8.87.29,1.09,1,2.44,2.19,2.47,1.7,0,1.16-1.64,1.37-2.65.41-1.94.72-3.9,1.07-5.85,1.2-2.38,4.37-5.39-1.85-5.28-1.22,0-1.75-1.37-2.34-2.37a12.88,12.88,0,0,0-4.76-4.24c-6.66-4.09-14.15-3.63-21.44-3.47-1.36,0-4.46.83-5,3.24S1881.47,2988.15,1884,2988.47Zm60.43,79.48a16.56,16.56,0,0,0-5-5.81c-2.95,8.91-3.6,17.42-1,26.15.93,3.08,2.67,4.39,5.8,3.9l28.51,4.07c-3.06-4.5-2.53-10-6.47-12A94,94,0,0,1,1944.38,3068Zm-13.12-334.42c-15.49,6-25.88,17-31.4,32.59-.36,1-1.28,2.46.45,2.86,1.49.35,3.47.7,4.07-1.62.54-2.11.89-4.54,2.93-5.58,3.33-1.71,5-4.73,7-7.55a37.92,37.92,0,0,1,9.11-9.16c6.35-4.5,13.27-6.11,20.79-3.64,6,2,8.73,6.56,7.57,12.79a90.69,90.69,0,0,1-2.87,11.61c-.93,2.91-.74,4.27,2.77,4.36,5,.13,10,.64,14.93,1.06,18.71,1.57,36.7,5.8,53.78,13.89,7,3.3,13.61,7.23,20.8,11a57.52,57.52,0,0,0-4.19-25.46c-7.3-18-20.45-29.87-38.57-36.44-1-1.15-2.51-.65-3.69-1.11C1973.51,2724.81,1952.37,2725.58,1931.26,2733.53Zm-38.79,403c-1.22,8.79-2.35,17.17-3.54,25.54-1.84,12.85-1.84,12.68-14.64,10.94-3.81-.52-4.83-2.07-4.3-5.5,1.57-10.18,2.9-20.4,4.71-30.54.73-4.1.24-5.4-4.28-4.4-18.35,4-29.92,21.26-25.11,39.45,4.76,18,20.08,28.29,39.59,23.62,13.17-3.15,22.64-14.31,24.17-28C1910.43,3155.58,1903.55,3142.32,1892.47,3136.57Zm223.87,35.5a58.93,58.93,0,0,1-.67,7.44c-3.17,14.57-16.12,26.19-30.55,27.59-15.59,1.51-30-6.35-35.69-20.9-2.32-5.91-5.52-6.79-10.79-6.34-3,.26-3.58,1.1-2.85,4,6.28,25,33.55,40.68,58.37,33.37,19.13-5.64,33.17-23,34-41.89.88-21.26-11.05-40.31-30.55-47.45-13.61-5-27.16-4.17-39.88,3.43-1.15.69-3.09,1.22-2.36,3.24,1.34,3.75,8.93,6.64,13,5.05A34.91,34.91,0,0,1,2116.34,3172.07Zm-150.51-94.48c0-3.47,0-6.29,0-9.12-.1-19,7.54-34.12,22.48-45.68,7.3-5.65,7.4-6.81.88-14a2.09,2.09,0,0,1-.22-.45c-.52-1-1.12-.88-2-.32-9.27,6.06-18.88,5.13-28.62,1.33-1.07-.41-2.18-.94-3.08.39-3.52,5.2-8,3.91-12.86,2.19-6.22-2.21-7.06-1.71-9.73,4.27-2.46,5.51-1,10.8.45,16.31,2.23,8.16,4.37,16.23,9.31,23.32C1948.62,3064.68,1955.93,3072.2,1965.83,3077.59ZM1830,3164.88c.12,25.07,20.38,45.94,44.9,46.27,29.19.38,51-22.68,48.2-51.86-1.55-16.34-10.23-28.54-24.78-36.38-1.33-.72-2.75-1.59-3.93.17-1.78,2.67-.55,7.59,2.29,9.34a36.65,36.65,0,0,1,14.82,17.65,38,38,0,0,1-10.18,43.19c-12.17,10.51-31.26,11.37-44.21,3.51-23.93-14.52-24.37-50.16-.24-64.46,4.65-2.76,9.47-5,14.91-5.21,5.67-.21,5.17-5,5.15-8,0-3.54-3.49-1.47-5.47-1.35C1850.33,3119.12,1829,3138.91,1830,3164.88Zm241.29,14.41c-4.83,0-9.67.17-14.49-.05-3.6-.16-4.46.83-3,4.26,4.75,10.85,13.13,17,24.65,18.31,12.57,1.44,24.92-6.08,30-17.38,5.2-11.64,2.48-24.9-6.95-33.92-7.93-7.59-21.28-10.26-30.7-6.08-1.37.61-3.64,1-1.09,3.19,5.82,5,11.43,10.19,17.39,15,3.07,2.46,4.69,13.2,1.91,15.88-1.09,1-2.47.77-3.75.78C2080.64,3179.31,2076,3179.28,2071.33,3179.29Zm-141.71-89c3.46.19,3.58.16,2.89-2.85a48.83,48.83,0,0,1,1.78-27.54c1.23-3.51.57-6.09-.68-9.34-2.66-6.93-6.85-13.56-5.61-21.54a2,2,0,0,0-1.16-2c-1.43-.91-1.71.46-2.17,1.17-2.43,3.77-4.69,7.67-7.21,11.38-1.65,2.42-3.15,5.71-6.47,5.64-3.65-.07-3.4,2-3.78,4.38-1.88,11.63-3.18,23.27-2.29,35.09.16,2.08.9,2.48,2.58,2.69C1915.09,3088.31,1922.68,3089.35,1929.62,3090.28Zm37-274c7.82.06,15.57.3,21.9-5.84,6.5-6.32,9.51-13.41,8.9-22.69-.33-4.85-1.86-6.92-6.2-7.64-6.54-1.07-13-2.51-19.63-3.12-10.38-1-20.78-2.5-31.23-.51-3,.57-5.51,1.86-6,5.12-2.06,15.18,4.53,35.66,26.74,34.69C1962.93,2816.17,1964.76,2816.24,1966.59,2816.24Zm74.33-13.47a268.5,268.5,0,0,1,9.72,40.76c1.88,11.66,2,11.65,12.32,5.62,9-5.24,11-13.93,5-22.36C2061,2817.19,2051.83,2810.17,2040.92,2802.77Zm-52.14,390.52c15,1.66,28.47-16.93,19.79-32.66-1-1.91-1.81-4.34-4.67-2.65-2.18,1.29-4.61,2.23-2.41,6,3.51,6.06,2.53,12.66-1.58,17.11-4.84,5.25-11.39,6.56-17.67,3.54a15,15,0,0,1-7.87-16.28c.33-1.76,1.34-3.28-1-4.66-4.25-2.52-6.65-.84-7.2,5.23C1965,3181.49,1977.11,3194.83,1988.78,3193.29Zm33.9-30.24c2.4-1.24,6.72,2.39,7.85-3.05a43.69,43.69,0,0,1,6.73-15.93c.64-.93,1.58-2,.31-3-2.9-2.47-5.85-4.89-8.79-7.32-1.22-1-2.07-.18-3,.55a70.45,70.45,0,0,0-15.29,16.2c-.46.68-1.29,1.43-.72,2.18,2.32,3.06,3.78,6.67,6,9.66C2017.13,3164.08,2020.19,3162.63,2022.68,3163.05Zm-132.26-51.12c.27-1.19-.43-2.82-3.19-3.41-3.46-.72-3.51,2-3.8,3.9-2.66,17.4-5.11,34.84-7.82,52.23-.54,3.48,1.6,3.24,3.71,3.76,2.57.63,3.6-.17,3.94-2.81C1885.53,3148.15,1887.91,3130.71,1890.42,3111.93Zm91.32-3.51c-2-4.68-4.89-6.7-9.29-7.22-9.39-1.13-18.74-2.62-28.12-3.87-12.52-1.68-25-3.28-37.56-4.93-1.56-.2-3.06-.42-3.43,1.73s.68,3.08,2.64,3.38c1,.15,2,.37,2.94.51,13.64,1.93,27.29,3.82,40.92,5.76C1960.3,3105.27,1970.76,3106.82,1981.74,3108.42Zm-101.47-9.6c-.24,1.58-.07,3.28,2.42,3.66,3.76.58,7.51,1.22,11.28,1.75a2.48,2.48,0,0,0,3.11-2.36c.94-6.06,2-12.1,2.94-18.14.33-2.07-.2-3.68-2.51-4.07-3.58-.61-7.18-1.2-10.79-1.62-1.41-.17-3.45-.29-3.5,1.76C1883.08,3086.15,1880.8,3092.14,1880.27,3098.82Zm170.9,75.42v-.16c9.65,0,19.29,0,28.94,0,2.09,0,5,1,5.09-2.86s-2.78-3.06-4.91-3.06q-29.43-.1-58.86,0c-2.09,0-4.5-.51-4.52,3,0,3.74,2.56,3.2,4.84,3.21Q2036.45,3174.26,2051.17,3174.24Zm-149.48-71.52c6.57,4.31,12,7.81,17.32,11.34,7.61,5,15.24,10,22.8,15,3.4,2.28,5.82-.38,7.2-2.23,1.57-2.1-1.75-2.48-3-3.3-6.52-4.32-13.2-8.4-19.78-12.62C1919.23,3106.45,1912.25,3101.91,1901.69,3102.72Zm175.24,58.73a7.3,7.3,0,0,0-.93-1.6c-13-11.58-26-23.11-39-34.73-1.76-1.57-2.52-1.23-3.73.66-1.82,2.87-.53,4.56,1.59,6.28q17,13.82,33.93,27.68C2071.07,3161.6,2073.45,3162.9,2076.93,3161.45Zm-188.06-387v.09c-5.66,0-11.32-.06-17,0-2.38,0-4.87.47-5.5,3.32a96.27,96.27,0,0,0-1.84,10.8c-.3,2.81,1.39,3,3.5,1.93,1.79-.91,1.77-2.61,1.9-4.29.51-6.44,1.71-7.71,8.19-8.09,7-.4,14-.55,20.94-.9,3.67-.19,6.31.65,6.12,5.08a2.16,2.16,0,0,0,2,2.41c.87.14,1.83.09,2.24-.7,1.19-2.35.81-4.87.27-7.29s-2.46-2.4-4.37-2.4Zm13.33,274c.14-2.16.11-3.92-2.84-4.21-2.61-.26-4.37.52-4.75,3.06-1.17,7.85-2.19,15.73-3.16,23.61-.35,2.84,1.8,3.12,3.88,3.32s3.52-.08,3.82-2.64C1900.08,3063.83,1901.17,3056.12,1902.2,3048.41Zm21-42.06c-2,3.64-3.7,6.67-5.35,9.72-.8,1.48-1.61,2.68-3.53,3.15-6.27,1.53-8.35,9.45-4,14.56,1.68,2,3,2.39,4.52-.19,1.73-3,3.27-6.26,5.47-8.92C1924.66,3019.38,1926.15,3013.76,1923.18,3006.35ZM1887.36,3023c2.53-3,6.7-4.21,7.85-8.48,1.47-5.44,3-10.86,4.52-16.3.65-2.34,1.19-5-1.81-5.84-3.16-.92-4.49,1.67-5.2,4.11-2.09,7.15-4,14.37-5.93,21.57C1886.37,3019.65,1885.73,3021.26,1887.36,3023Zm67.73,86.84a40.76,40.76,0,0,0,13.37,12.67c4.51,2.69,11.52-1.75,12.44-7.26.23-1.35-.46-1.82-1.55-2Zm-53.24-70.63c3.53.41,5-.2,2.5-3.86-1.83-2.71-1.95-6.14-1.67-9.15.31-3.25-1.18-3.72-3.53-4-4.19-.42-8.06,3.52-8.87,9-.59,3.95,1.49,6.29,6.19,7C1898.27,3038.59,1900.06,3038.93,1901.85,3039.25ZM2041.91,3163c4.29,0,9.38-5.09,9.56-9.64a2.85,2.85,0,0,0-.69-1.7c-5.6-7.14-8.69-6.78-12.26,1.4-.46,1.06-.93,2.13-1.33,3.22C2034.93,3162.54,2035.28,3163,2041.91,3163Zm-112.53-56c10.28,5.7,19.25,13.05,30.13,17C1951.1,3115.68,1944.46,3104.22,1929.38,3107Zm-3.65-338v.33c4.64,0,9.27,0,13.91,0,1.25,0,2.52-.18,2.67-1.6.2-1.87-1.49-1.35-2.48-1.48-1.81-.23-3.63-.33-5.45-.39-6.62-.23-13.24-.46-19.86-.59-1.74,0-4.27-.29-4.19,2.25s2.52,1.39,4,1.43C1918.11,2769.1,1921.92,2769,1925.73,2769Zm63.37,393.46c.14-1.23-.72-1.81-1.62-2.24-6.6-3.1-13.23-6.15-19.84-9.24-1-.46-1.91-.8-2.46.49s-.7,2.58,1,3.31q10.26,4.46,20.51,9C1988,3164.35,1988.91,3164.11,1989.1,3162.49Zm-84-159-1.35.87c-.93,3.49-1.67,7.05-2.86,10.46-.83,2.37.11,2.73,2.1,3.13,4.62.91,5.12-3.38,7.16-5.57s-.52-3.27-1.77-4.64S1906.17,3004.86,1905.08,3003.44Zm43,4.52c2.56-.26,3.81-1.92,2.47-4a11.33,11.33,0,0,0-7-5.25c-2.41-.49-3.93,1.26-4.76,3.48-.43,1.14-.84,2.3.74,2.87C1942.37,3006.05,1945.2,3007,1948.09,3008Zm70.09-216.65a29.48,29.48,0,0,0-11.52-6.18c-1.42-.38-3.66-2.63-4.19.6-.36,2.18-.78,5.4,3,5.54C2009.73,2791.43,2014,2791.31,2018.18,2791.31Zm-60.11,341.59c-.78-1.41-1.58-2.76-3.73-2.07a17.46,17.46,0,0,0-9.68,7.21c-.82,1.25-.79,2.09.93,2.37.88.15,12.25-6.07,12.47-6.91A2.82,2.82,0,0,0,1958.07,3132.9Zm-36.58-354.3c-.51.05-2.48.17-4.41.49-1.17.2-2.26.82-2.12,2.28s1.36,1.7,2.55,1.72c2.3,0,4.62.17,6.91,0,1.92-.13,5.07,1.08,5.08-2.13,0-3-3.1-2.08-5.07-2.35C1923.94,2778.54,1923.44,2778.6,1921.49,2778.6Zm44.63,365.21c-.7-3-2.27-5.48-4.54-5.17-4.44.6-7.91,3.37-11,8Zm-100.77-151.28c2.5.22,4.36-1.36,6.48-2,1.38-.39,3-.73,2.54-2.93-.34-1.7-.81-3.44-2.37-4.17-1.85-.87-2.53,1.13-3.33,2.2C1867.2,2987.64,1865.66,2989.65,1865.35,2992.53Zm199,170.41c-3.32-2.67-4.89-6.16-8.3-5.7-2.71.37-1.6,3.58-2.59,5.7Zm-177.56-378.61c-1.13-1.92-3.1-.93-4.7-1.06-2.42-.2-3.71,1.35-4.12,3.43s1.4,1.6,2.31,1.31C1882.55,2787.27,1885.79,2788.08,1886.74,2784.33Zm17.35,114.32c.65-2.79,2-6,.47-7.07-1.8-1.33-4.4.75-6.6,2A20.67,20.67,0,0,0,1904.09,2898.65Zm25.71,110.6c1.3-3.23,2-5.14,2.85-7,.4-.95.82-2-.36-2.55s-2.46-1.36-3.71-.63c-1,.58-.48,1.8-.32,2.72C1928.6,3003.77,1929.07,3005.77,1929.8,3009.25Zm-13.12-2.39c1.43-2.62,2.51-4.48,3.48-6.41.4-.81,1.6-1.67.63-2.6a4.31,4.31,0,0,0-2.67-1c-1.52,0-1.82,1.27-1.88,2.44C1916.13,3001.58,1915.54,3003.86,1916.68,3006.86Zm8.56-128.62-6.34,4.57c2.44,1,4.07,3.9,5.91,2.55C1926.45,2884.14,1925.47,2881.16,1925.24,2878.24Zm21.75.9c.65-2.58,2.91-4.14,1.85-5.68s-3.55-.82-5.72-.69C1943.6,2875.23,1945,2876.79,1947,2879.14Zm30-10.18-6.26,2.23c2.13,2,3.8,3.31,6.42,3.93C1977,2872.92,1977.86,2871.2,1977,2869Zm-107,27.17c2,2,2.51,4.72,5.51,4.21a1.71,1.71,0,0,0,1.15-2.34C1875.51,2895.27,1873.19,2895.5,1869.92,2896.13Zm10.25,105.31c1.92-.53,2.43-1.81,3.18-2.82s1.56-2.17.22-3.44c-.83-.79-1.62-2-2.85-1.48-1.58.64-.86,2.26-.88,3.47S1880,2999.76,1880.17,3001.44Zm-32.59-110,3.25,6.39C1853.3,2893.76,1852.93,2891.7,1847.58,2891.43Zm45.64-105.5c1.25-.09,2.36-.51,2.55-1.88s-1-1.5-2-1.46a2.13,2.13,0,0,0-2.32,2.09C1891.45,2785.7,1892.3,2786,1893.22,2785.93Z" transform="translate(-1598.53 -2653.95)"/><path class="cls-2" d="M1974.86,3048.81a47.66,47.66,0,0,1,21.34-24.9c9.94-5.73,21.13-5.3,32.37-5.19a11.54,11.54,0,0,0-8.62-3.82c-4.72,0-9.57-.65-14.14.2-5,.93-7.29-1.45-9.29-5.14-.47-.88-1-1.73-1.47-2.6a24.32,24.32,0,0,1,8.85-10.09c2.59-1.6,5.76-2.76,6-6.57,1.17-2.53,2.48-5.06,1.8-8-.28-1.18-.43-3-2.45-1.48l-.77,1.42a.62.62,0,0,1-.28.57,52.14,52.14,0,0,1-13.69,2.13c-3.71,0-6.72,1-9.3,4.93-7.88,12-19.25,11.23-28.61,3.85a82.49,82.49,0,0,0-7.58-5.62c-6.63-4.11-13.55-2-16.81,4.95a13.4,13.4,0,0,1-5.23.65,14.36,14.36,0,0,1-2.13-.34c-1.75-.41-4.9-1.13-5.41-3.07a2.72,2.72,0,0,1,0-1.17c.12-.76.52-1.91,3.54-4.42a26,26,0,0,1,4.25-3,25.36,25.36,0,0,1,3.53-1.66s.94-.36,1.92-.65a28.75,28.75,0,0,1,9.74-1.18,19.82,19.82,0,0,1,8.27,2.36c1.19.67,1.86,1.24,4.09,2.48a32.7,32.7,0,0,0,4.38,2.2,30.83,30.83,0,0,0,12.13,1.71c3-.08,4.71-.95,4.88-4.2.37-7.11,2.91-12.62,10.76-14.13,1.66-.32,2.23-1.79,2.57-3.35,1.81-8.1,6-14.34,14.39-17.48-7.3-1.64-14.38,2.55-17.82,10.89-1.4,3.39-3.36,5.56-6.66,6.74a82.55,82.55,0,0,0-26.21-18.64c-7.25-3.22-13.9-2.2-19.88,3.07-1,.88-2,1.69-3.08,2.53,0-4.54-.21-9.08,1.08-13.51,3.56-.67,7.1-1.6,10.7-1.95,22-2.12,43.32-6.79,63.19-16.92,7.52-2.09,15.13-4,21.88-8.12,1.87-1.16,3.2-.76,3.81,1.29,4.77,16.08,17.9,24.49,30.35,33.71s24.4,19,34.57,30.84a53.26,53.26,0,0,1,6.29,9c2,3.59,4.21,7,6.91,11.5a11.34,11.34,0,0,0-.28-7.75c-1.24-3.53-.62-4.56,3.14-3.5,21,5.9,39.74.85,57.13-11.36,9-6.31,18.1-12.44,27.2-18.58,1.44-1,3-3,4.76-2,2,1.11,1.15,3.64,1.06,5.54a83.7,83.7,0,0,1-10.91,37.28l-3.85,5.13-3.89,5.17v.06c-1.55-.52-2.55.39-3.47,1.39-2.57,2.81-4.91,5.87-7.69,8.46-12.77,11.85-27,21.35-43.45,27.54-15.62,5.89-31.45,10.57-48.25,11.28-3.35.14-5-.73-5.6-4.51a43.37,43.37,0,0,0-6.52-16.59c-.69-1.09-1.61-2.51-3-2.37-1.75.18-1.31,2.12-1.6,3.27-4,16.14-13.79,28.06-27.11,37.5a99.76,99.76,0,0,1-28.41,14.22c-1.31.4-3.3.7-3.4,2.44-.07,1.39,1.68,1.9,2.73,2.63,3.41,2.36,6.83,4.75,11,5.64,2.67.57,3.91,2.07,3.63,5-.5,5.11-.66,10.26-1.22,15.36a11.15,11.15,0,0,1-3.35,6.51,103.51,103.51,0,0,1-18.22,14.59c-5.19,3.38-9.56,3.54-14.75.63-6.62-3.71-13-8.17-20.75-9.27-1.29-2-1.22-3.47,1.54-3.74,1.48-.14,3.12-.47,4.45,0,6.26,2.15,10-.63,12.67-6a29.79,29.79,0,0,1,2.25-3.28c4.35-6.28,4.35-6.28,12.12-3.74a59.16,59.16,0,0,0-9-10.12c-6.81-5.78-12.19-12.58-14.82-21.28,1.44-2.36.48-4.77.19-7.18-.71-5.75-1.24-11.76.43-17.17C1974.9,3056,1975.57,3052.58,1974.86,3048.81Z" transform="translate(-1598.53 -2653.95)"/><path class="cls-2" d="M1842.19,2825.25c1-12.24,11.43-25.11,24.53-28.62,19-5.08,38.3-8.52,58.09-8.56,1.85,0,3.09.3,3.8,1.08s.49,1.46.72,3.45c0,0,.18,1.54.83,4.5a28.23,28.23,0,0,0,2,5.68,36.09,36.09,0,0,0,3.77,6.82,29.2,29.2,0,0,0,5.83,6.29c5,3.87,10.36,4.53,16.91,5.34a98.76,98.76,0,0,0,10.93.36c16.13.77,26.12-7.6,32.31-21.66.4-.9.91-1.75,1.37-2.62a28.52,28.52,0,0,1,5.83-2.18c3.2-.82,5.68-.83,10.63-.85s6.56.33,7.58.59c3.47.92,4.93,2.28,5.46,2.84a8.62,8.62,0,0,1,2,3.24,207.85,207.85,0,0,1,10.53,72,32,32,0,0,1-3.1,13.33c-5.84,5.16-11.33,10.66-18.43,14.27-19.52,9.94-40.6,13.32-62,14.58-13.4.8-26.94.86-40.32-.93-9.32-1.25-18.81-1.77-27.73-5.23-2.48-1-5.15-1.51-5.47-5-.34-3.75,1.92-5.39,4.86-6.63,3.23,2.33,6.33,4.85,9.71,6.93,3.81,2.34,5.85,1.37,6.59-3,.57-3.44.59-7,1.06-10.42.54-3.9,2.76-5,6.28-3.26,2.38,1.19,4.59,2.74,7,3.79,4.21,1.83,5.88.91,6.55-3.52.42-2.79.59-5.63.77-8.45.15-2.43-.52-5.09,2.93-6,3.68-1,3.94,2.24,5.25,4.09,1.52,2.18,2.65,4.64,4.24,6.76,2.62,3.5,4.57,3.35,6.72-.36,1.24-2.17,2.33-4.42,3.46-6.65,2.56-5,7-6.19,11.73-3,3.18,2.13,6.25,4.44,9.58,6.29,4.88,2.71,6.6,1.71,7.16-3.75.32-3.15.73-6.29.85-9.45a7.45,7.45,0,0,1,4-6.49c1.85-.9,2.92,2.16,4.5,3.25.5.35,1,.67,1.64,1.07,1.26-8.94-7.44-16.13-16.35-13.74.26,2.2,2.72,2.13,3.66,3.56-.36,3.37-3.3,4-5.64,5-10.5,4.55-21.35,4.48-32.18,1.59-10-2.66-18.71-.3-26.74,5.64-12.51,9.25-26.16,14.85-42.06,14.2-8.52-.35-16.75-2.05-25-3.73-3.27-.66-5.12-2.69-6.63-5.34-2.28-10.6-2.64-21.31-2.26-32.17,2.06.1,2.29,1.77,3.34,2.48,2.67,1.81,4.89,1.45,5.94-1.61,1.57-4.62.73-9.23-1.1-13.62a3.64,3.64,0,0,0-1-1.3C1845.47,2824.68,1843.11,2825.05,1842.19,2825.25Zm32,11.93a23,23,0,0,0,.66,3.82c.77,2.55,2.31,4.55,5.3,4.24,2.73-.28,3.34-2.66,3.36-4.79a68.52,68.52,0,0,0-.69-10.31c-.25-1.8-2-2.51-3.68-2.8a3.31,3.31,0,0,0-3.63,2C1874.47,2831.48,1874.21,2833.78,1874.24,2837.18Z" transform="translate(-1598.53 -2653.95)"/><path class="cls-3" d="M1998.42,2734.23c18.12,6.57,31.27,18.46,38.57,36.44a57.52,57.52,0,0,1,4.19,25.46c-7.19-3.76-13.83-7.69-20.8-11-17.08-8.09-35.07-12.32-53.78-13.89-5-.42-9.95-.93-14.93-1.06-3.51-.09-3.7-1.45-2.77-4.36a90.69,90.69,0,0,0,2.87-11.61c1.16-6.23-1.55-10.82-7.57-12.79-7.52-2.47-14.44-.86-20.79,3.64a37.92,37.92,0,0,0-9.11,9.16c-2,2.82-3.66,5.84-7,7.55-2,1-2.39,3.47-2.93,5.58-.6,2.32-2.58,2-4.07,1.62-1.73-.4-.81-1.84-.45-2.86,5.52-15.62,15.91-26.57,31.4-32.59,1.89,1.12,3.85.74,5.79.23,6.52-1.73,12.78-2.27,19.42.43a22,22,0,0,0,17.06-.62c4.63-2,9.07-1.69,13.58-.82A56.19,56.19,0,0,0,1998.42,2734.23Z" transform="translate(-1598.53 -2653.95)"/><path class="cls-4" d="M1963.93,3132.24c7.8,1.1,14.13,5.56,20.75,9.27,5.19,2.91,9.56,2.75,14.75-.63a103.51,103.51,0,0,0,18.22-14.59,11.15,11.15,0,0,0,3.35-6.51c.56-5.1.72-10.25,1.22-15.36.28-2.88-1-4.38-3.63-5-4.18-.89-7.6-3.28-11-5.64-1-.73-2.8-1.24-2.73-2.63.1-1.74,2.09-2,3.4-2.44a99.76,99.76,0,0,0,28.41-14.22c13.32-9.44,23.09-21.36,27.11-37.5.29-1.15-.15-3.09,1.6-3.27,1.39-.14,2.31,1.28,3,2.37a43.37,43.37,0,0,1,6.52,16.59c.55,3.78,2.25,4.65,5.6,4.51,16.8-.71,32.63-5.39,48.25-11.28,16.43-6.19,30.68-15.69,43.45-27.54.45-.42,3.38-4,7.69-8.46,1.16-1.19,1.46-1.47,2.82-2.85,2-2.05,4.9-5.05,8.38-8.9a119.14,119.14,0,0,1-27.51,33c-24.25,20-58.43,30.89-61.22,31.59a17.05,17.05,0,0,0-7,3.41,53.71,53.71,0,0,1-33.31,12.54c1.88-6.36,4.72-12.56,3.28-19.8-6.17,19.87-18,32.86-39.84,34.23.17.51.19.86.31.9,7.26,2.44,7.17,2.43,6.62,10.49a124.87,124.87,0,0,1-2.09,14.29,12.62,12.62,0,0,1-4.22,7.73c-8.8,7.19-16.2,15.63-23.31,24.46-4.94,6.13-6.56,6.05-13.74,2.58-3.44-1.67-6.81-3.46-10.23-5.17-3.91-2-7.56-4-8.61-8.89C1969.51,3136.14,1965.38,3135.27,1963.93,3132.24Z" transform="translate(-1598.53 -2653.95)"/><path class="cls-4" d="M1893,2897.35c-2.94,1.24-5.2,2.88-4.86,6.63.32,3.45,3,4,5.47,5,8.92,3.46,18.41,4,27.73,5.23,13.38,1.79,26.92,1.73,40.32.93,21.44-1.26,42.52-4.64,62-14.58,7.1-3.61,12.59-9.11,18.42-14.27-2,9.77-9.33,15.33-16.81,20.59-6.11,4.29-13,7.22-19.72,10.45-1.63.78-3.21,1.64-.46,3.11-19.87,10.13-41.18,14.8-63.19,16.92-3.6.35-7.14,1.28-10.7,1.95-.18-7.84-.17-7.82,7.17-9.13,1.36-.24,3.51,0,3.37-2s-2.24-1.52-3.64-1.77c-8.41-1.51-16.93-.74-25.39-1-8.82-.29-17.6-.83-26.36-2-12-1.56-21.49-7.54-29.25-16.56-2-2.39-1.53-10,.88-11.89,1.89-1.47,3.42-.29,4.72,1.15,2.89,3.21,5.57,6.64,8.67,9.63,5,4.82,7,4.33,9.79-1.9.73-1.67,1.29-3.42,2-5.1C1885,2894.52,1889.49,2893.92,1893,2897.35Z" transform="translate(-1598.53 -2653.95)"/><path class="cls-5" d="M2116.34,3172.07a34.91,34.91,0,0,0-48.05-32.44c-4,1.59-11.63-1.3-13-5.05-.73-2,1.21-2.55,2.36-3.24,12.72-7.6,26.27-8.41,39.88-3.43,19.5,7.14,31.43,26.19,30.55,47.45-.78,18.93-14.82,36.25-34,41.89-24.82,7.31-52.09-8.34-58.37-33.37-.73-2.92-.15-3.76,2.85-4,5.27-.45,8.47.43,10.79,6.34,5.72,14.55,20.1,22.41,35.69,20.9,14.43-1.4,27.38-13,30.55-27.59A58.93,58.93,0,0,0,2116.34,3172.07Z" transform="translate(-1598.53 -2653.95)"/><path class="cls-6" d="M1965.83,3077.59c-9.9-5.39-17.21-12.91-23.37-21.74-4.94-7.09-7.08-15.16-9.31-23.32-1.5-5.51-2.91-10.8-.45-16.31,2.67-6,3.51-6.48,9.73-4.27,4.82,1.72,9.34,3,12.86-2.19.9-1.33,2-.8,3.08-.39,9.74,3.8,19.35,4.73,28.62-1.33.86-.56,1.46-.64,2,.32a2.09,2.09,0,0,0,.22.45c6.52,7.17,6.42,8.33-.88,14-14.94,11.56-22.58,26.72-22.48,45.68C1965.84,3071.3,1965.83,3074.12,1965.83,3077.59Z" transform="translate(-1598.53 -2653.95)"/><path class="cls-5" d="M1830,3164.88c-1.07-26,20.29-45.76,41.46-47.09,2-.12,5.44-2.19,5.47,1.35,0,3,.52,7.75-5.15,8-5.44.2-10.26,2.45-14.91,5.21-24.13,14.3-23.69,49.94.24,64.46,12.95,7.86,32,7,44.21-3.51a38,38,0,0,0,10.18-43.19,36.65,36.65,0,0,0-14.82-17.65c-2.84-1.75-4.07-6.67-2.29-9.34,1.18-1.76,2.6-.89,3.93-.17,14.55,7.84,23.23,20,24.78,36.38,2.77,29.18-19,52.24-48.2,51.86C1850.42,3210.82,1830.16,3190,1830,3164.88Z" transform="translate(-1598.53 -2653.95)"/><path class="cls-6" d="M1930.2,2952.78c1-.84,2.09-1.65,3.08-2.53,6-5.27,12.63-6.29,19.88-3.07a82.55,82.55,0,0,1,26.21,18.64,18.38,18.38,0,0,0-7.89,11.11c-1.36,5.41-4.78,6.78-9.93,4-3.52-1.87-7-3.85-10.62-5.5-7-3.2-14.22-2.66-22,.16C1929.58,2967.58,1928.6,2960.14,1930.2,2952.78Z" transform="translate(-1598.53 -2653.95)"/><path class="cls-4" d="M1842.08,2872.27c1.51,2.65,3.36,4.68,6.63,5.34,8.29,1.68,16.52,3.38,25,3.73,15.9.65,29.55-5,42.06-14.2,8-5.94,16.76-8.3,26.74-5.64,10.83,2.89,21.68,3,32.18-1.59,2.34-1,5.28-1.59,5.64-5,3,1,1.7,2.6.47,4.09-5.11,6.24-12.4,7.45-19.73,8.06a96.66,96.66,0,0,1-16,.05c-9.18-.79-17,2-24.1,7.57-9,7.08-18.78,12.55-30.23,14.64-14.64,2.68-28.8.49-42.8-3.76-1.67-.51-3.13-1.37-3.53-3.19C1843.75,2879,1842,2875.86,1842.08,2872.27Z" transform="translate(-1598.53 -2653.95)"/><path class="cls-6" d="M2062.08,3078.74a53.71,53.71,0,0,0,33.31-12.54,16.39,16.39,0,0,1,2.67-1.79,16.82,16.82,0,0,1,4.29-1.62c3.42-.8,27.79-10.27,45-21.07,9.08-5.7,22.54-15.77,36-33.15v-.06c1.37-2,2.84-4,4.4-6.06q1.68-2.2,3.34-4.24c-.59,1.42-1.28,2.92-2.08,4.47a58,58,0,0,1-3.6,6.07c-10.27,20.46-27,34.57-46.25,45.82-25.79,15.08-53.84,25-82.2,34a37.6,37.6,0,0,1-4,.68C2057.16,3085.8,2059.39,3082.09,2062.08,3078.74Z" transform="translate(-1598.53 -2653.95)"/><path class="cls-7" d="M1966.59,2816.24c-1.83,0-3.66-.07-5.48,0-22.21,1-28.8-19.51-26.74-34.69.45-3.26,2.91-4.55,6-5.12,10.45-2,20.85-.46,31.23.51,6.58.61,13.09,2.05,19.63,3.12,4.34.72,5.87,2.79,6.2,7.64.61,9.28-2.4,16.37-8.9,22.69C1982.16,2816.54,1974.41,2816.3,1966.59,2816.24Zm-.8-4.82c10.94.36,20.78-1,25.61-13.13,3.59-9,1-14.94-8.26-16.79a122.32,122.32,0,0,0-37.17-1.36c-2.49.27-5.26.56-5.78,3.69-1.93,11.49,3.15,27.79,20.11,27.6C1962.13,2811.4,1964,2811.42,1965.79,2811.42Z" transform="translate(-1598.53 -2653.95)"/><path class="cls-3" d="M2040.92,2802.77c10.91,7.4,20.12,14.42,27,24,6,8.43,4,17.12-5,22.36-10.35,6-10.44,6-12.32-5.62A268.5,268.5,0,0,0,2040.92,2802.77Z" transform="translate(-1598.53 -2653.95)"/><path class="cls-5" d="M1988.78,3193.29c-11.67,1.54-23.76-11.8-22.62-24.36.55-6.07,2.95-7.75,7.2-5.23,2.35,1.38,1.34,2.9,1,4.66a15,15,0,0,0,7.87,16.28c6.28,3,12.83,1.71,17.67-3.54,4.11-4.45,5.09-11,1.58-17.11-2.2-3.78.23-4.72,2.41-6,2.86-1.69,3.62.74,4.67,2.65C2017.25,3176.36,2003.77,3195,1988.78,3193.29Z" transform="translate(-1598.53 -2653.95)"/><path class="cls-4" d="M1932.17,2993.46c3.26-6.95,10.18-9.06,16.81-4.95a82.49,82.49,0,0,1,7.58,5.62c9.36,7.38,20.73,8.19,28.61-3.85,2.58-4,5.59-4.9,9.3-4.93a52.14,52.14,0,0,0,13.69-2.13c-1.11,4.56-4.77,5.74-8.68,6-5,.4-8,2.51-10.45,7.29-6.1,11.85-23.56,13.73-33.7,4.19-2.17-2-4.11-4.33-6.76-5.83-3.08-1.74-6.34-2.47-9.5-.79C1936.43,2995.51,1934.35,2994.9,1932.17,2993.46Z" transform="translate(-1598.53 -2653.95)"/><path class="cls-5" d="M1890.42,3111.93c-2.51,18.78-4.89,36.22-7.16,53.67-.34,2.64-1.37,3.44-3.94,2.81-2.11-.52-4.25-.28-3.71-3.76,2.71-17.39,5.16-34.83,7.82-52.23.29-1.93.34-4.62,3.8-3.9C1890,3109.11,1890.69,3110.74,1890.42,3111.93Z" transform="translate(-1598.53 -2653.95)"/><path class="cls-5" d="M1981.74,3108.42c-11-1.6-21.44-3.15-31.9-4.64-13.63-1.94-27.28-3.83-40.92-5.76-1-.14-2-.36-2.94-.51-2-.3-3-1.27-2.64-3.38s1.87-1.93,3.43-1.73c12.52,1.65,25,3.25,37.56,4.93,9.38,1.25,18.73,2.74,28.12,3.87C1976.85,3101.72,1979.74,3103.74,1981.74,3108.42Z" transform="translate(-1598.53 -2653.95)"/><path class="cls-4" d="M1944.38,3068a94,94,0,0,0,21.84,16.3c3.94,2.06,3.41,7.51,6.47,12l-28.51-4.07c1.79-1.64.55-3.36.14-5.07C1942.79,3080.73,1942.41,3074.34,1944.38,3068Z" transform="translate(-1598.53 -2653.95)"/><path class="cls-5" d="M1880.27,3098.82c.53-6.68,2.81-12.67,3-19,0-2.05,2.09-1.93,3.5-1.76,3.61.42,7.21,1,10.79,1.62,2.31.39,2.84,2,2.51,4.07-1,6-2,12.08-2.94,18.14a2.48,2.48,0,0,1-3.11,2.36c-3.77-.53-7.52-1.17-11.28-1.75C1880.2,3102.1,1880,3100.4,1880.27,3098.82Z" transform="translate(-1598.53 -2653.95)"/><path class="cls-5" d="M2051.17,3174.24q-14.72,0-29.42,0c-2.28,0-4.85.53-4.84-3.21,0-3.47,2.43-3,4.52-3q29.43,0,58.86,0c2.13,0,5-.81,4.91,3.06s-3,2.84-5.09,2.86c-9.65.08-19.29,0-28.94,0Z" transform="translate(-1598.53 -2653.95)"/><path class="cls-5" d="M1901.69,3102.72c10.56-.81,17.54,3.73,24.55,8.22,6.58,4.22,13.26,8.3,19.78,12.62,1.24.82,4.56,1.2,3,3.3-1.38,1.85-3.8,4.51-7.2,2.23-7.56-5.06-15.19-10-22.8-15C1913.64,3110.53,1908.26,3107,1901.69,3102.72Z" transform="translate(-1598.53 -2653.95)"/><path class="cls-5" d="M2076.93,3161.45c-3.48,1.45-5.86.15-8.14-1.71q-17-13.86-33.93-27.68c-2.12-1.72-3.41-3.41-1.59-6.28,1.21-1.89,2-2.23,3.73-.66,13,11.62,26,23.15,39,34.73A7.3,7.3,0,0,1,2076.93,3161.45Z" transform="translate(-1598.53 -2653.95)"/><path class="cls-8" d="M1998.42,2734.23a56.19,56.19,0,0,1-11.31-1.48c-4.51-.87-8.95-1.21-13.58.82a22,22,0,0,1-17.06.62c-6.64-2.7-12.9-2.16-19.42-.43-1.94.51-3.9.89-5.79-.23,21.11-8,42.25-8.72,63.47-.41C1995.91,2733.58,1997.42,2733.08,1998.42,2734.23Z" transform="translate(-1598.53 -2653.95)"/><path class="cls-7" d="M1888.87,2774.44h16.48c1.91,0,3.85.12,4.37,2.4s.92,4.94-.27,7.29c-.41.79-1.37.84-2.24.7a2.16,2.16,0,0,1-2-2.41c.19-4.43-2.45-5.27-6.12-5.08-7,.35-14,.5-20.94.9-6.48.38-7.68,1.65-8.19,8.09-.13,1.68-.11,3.38-1.9,4.29-2.11,1.06-3.8.88-3.5-1.93a96.27,96.27,0,0,1,1.84-10.8c.63-2.85,3.12-3.28,5.5-3.32,5.66-.09,11.32,0,17,0Z" transform="translate(-1598.53 -2653.95)"/><path class="cls-2" d="M1884,2988.47c-2.48-.32-7.65-6.07-7.12-8.33s3.67-3.21,5-3.24c7.29-.16,14.78-.62,21.44,3.47a12.88,12.88,0,0,1,4.76,4.24c.59,1,1.12,2.39,2.34,2.37,6.22-.11,3,2.9,1.85,5.28-2,.16-3.38-.91-4.78-2.22C1898.61,2981.73,1893.84,2981.43,1884,2988.47Z" transform="translate(-1598.53 -2653.95)"/><path class="cls-2" d="M1941.11,2746.26c5.69,2.34,7.43,8.8,3.82,13.82-1.15,1.6-2.65,1.1-4,1-6.29-.31-12.58-.73-18.86-1.11.2-1.81,1.47-2.9,2.72-4C1929.67,2751.89,1934.92,2748.29,1941.11,2746.26Z" transform="translate(-1598.53 -2653.95)"/><path class="cls-5" d="M1902.2,3048.41c-1,7.71-2.12,15.42-3,23.14-.3,2.56-1.78,2.85-3.82,2.64s-4.23-.48-3.88-3.32c1-7.88,2-15.76,3.16-23.61.38-2.54,2.14-3.32,4.75-3.06C1902.31,3044.49,1902.34,3046.25,1902.2,3048.41Z" transform="translate(-1598.53 -2653.95)"/><path class="cls-5" d="M1923.18,3006.35c3,7.41,1.48,13-2.9,18.32-2.2,2.66-3.74,5.88-5.47,8.92-1.47,2.58-2.84,2.17-4.52.19-4.34-5.11-2.26-13,4-14.56,1.92-.47,2.73-1.67,3.53-3.15C1919.48,3013,1921.17,3010,1923.18,3006.35Z" transform="translate(-1598.53 -2653.95)"/><path class="cls-5" d="M1887.36,3023c-1.63-1.78-1-3.39-.57-4.94,1.94-7.2,3.84-14.42,5.93-21.57.71-2.44,2-5,5.2-4.11,3,.88,2.46,3.5,1.81,5.84-1.5,5.44-3,10.86-4.52,16.3C1894.06,3018.83,1889.89,3020,1887.36,3023Z" transform="translate(-1598.53 -2653.95)"/><path class="cls-4" d="M1955.09,3109.88l24.26,3.43c1.09.16,1.78.63,1.55,2-.92,5.51-7.93,9.95-12.44,7.26A40.76,40.76,0,0,1,1955.09,3109.88Z" transform="translate(-1598.53 -2653.95)"/><path class="cls-5" d="M1901.85,3039.25c-1.79-.32-3.58-.66-5.38-.94-4.7-.73-6.78-3.07-6.19-7,.81-5.49,4.68-9.43,8.87-9,2.35.24,3.84.71,3.53,4-.28,3-.16,6.44,1.67,9.15C1906.84,3039.05,1905.38,3039.66,1901.85,3039.25Z" transform="translate(-1598.53 -2653.95)"/><path class="cls-5" d="M2041.91,3163c-6.63,0-7-.49-4.72-6.72.4-1.09.87-2.16,1.33-3.22,3.57-8.18,6.66-8.54,12.26-1.4a2.85,2.85,0,0,1,.69,1.7C2051.29,3157.94,2046.2,3163,2041.91,3163Z" transform="translate(-1598.53 -2653.95)"/><path class="cls-2" d="M1944.38,3068c-2,6.39-1.59,12.78-.06,19.17.41,1.71,1.65,3.43-.14,5.07-3.13.49-4.87-.82-5.8-3.9-2.63-8.73-2-17.24,1-26.15A16.56,16.56,0,0,1,1944.38,3068Z" transform="translate(-1598.53 -2653.95)"/><path class="cls-4" d="M1884,2988.47c9.89-7,14.66-6.74,23.52,1.57,1.4,1.31,2.77,2.38,4.78,2.22-.35,1.95-.66,3.91-1.07,5.85-.21,1,.33,2.69-1.37,2.65-1.22,0-1.9-1.38-2.19-2.47-.9-3.39-1.87-6.51-4.91-8.87-4.27-3.33-7.61-4.1-11.46-.49C1888.14,2991.85,1886.23,2991,1884,2988.47Z" transform="translate(-1598.53 -2653.95)"/><path class="cls-3" d="M1925.73,2769c-3.81,0-7.62.07-11.42,0-1.46,0-3.9,1.05-4-1.43s2.45-2.28,4.19-2.25c6.62.13,13.24.36,19.86.59,1.82.06,3.64.16,5.45.39,1,.13,2.68-.39,2.48,1.48-.15,1.42-1.42,1.6-2.67,1.6-4.64,0-9.27,0-13.91,0Z" transform="translate(-1598.53 -2653.95)"/><path class="cls-7" d="M1989.1,3162.5c-.19,1.61-1.07,1.85-2.44,1.26q-10.25-4.49-20.51-9c-1.67-.73-1.53-2-1-3.31s1.48-.95,2.46-.49c6.61,3.09,13.24,6.14,19.84,9.24C1988.38,3160.68,1989.24,3161.26,1989.1,3162.5Z" transform="translate(-1598.53 -2653.95)"/><path class="cls-4" d="M1941.11,2746.26c-6.19,2-11.44,5.63-16.36,9.79-1.25,1.06-2.52,2.15-2.72,4-1.45.24-3.36.94-4.16-.37-.91-1.49,1-2.52,1.87-3.64,3.94-5.12,8.73-9,15.27-10.23C1937.08,2745.38,1939.19,2744.62,1941.11,2746.26Z" transform="translate(-1598.53 -2653.95)"/><path class="cls-4" d="M2009.86,2990.7c-.2,3.81-3.37,5-6,6.57a24.32,24.32,0,0,0-8.85,10.09c-3.89-6.08-1.93-11.06,5-12.47C2003.59,2994.16,2007.09,2993.31,2009.86,2990.7Z" transform="translate(-1598.53 -2653.95)"/><path class="cls-5" d="M1948.09,3008c-2.89-1-5.72-1.91-8.52-2.9-1.58-.57-1.17-1.73-.74-2.87.83-2.22,2.35-4,4.76-3.48a11.33,11.33,0,0,1,7,5.25C1951.9,3006,1950.65,3007.7,1948.09,3008Z" transform="translate(-1598.53 -2653.95)"/><path class="cls-2" d="M1974.86,3048.81c.71,3.77,0,7.15-1.12,10.94-1.67,5.41-1.14,11.42-.43,17.17.29,2.41,1.25,4.82-.19,7.18-.64-.72-1.82-1.42-1.84-2.15C1971.07,3070.76,1969.37,3059.39,1974.86,3048.81Z" transform="translate(-1598.53 -2653.95)"/><path class="cls-7" d="M2018.18,2791.31c-4.23,0-8.45.12-12.67,0-3.82-.14-3.4-3.36-3-5.54.53-3.23,2.77-1,4.19-.6A29.48,29.48,0,0,1,2018.18,2791.31Z" transform="translate(-1598.53 -2653.95)"/><path class="cls-9" d="M1958.07,3132.9a2.82,2.82,0,0,1,0,.6c-.22.84-11.59,7.06-12.47,6.91-1.72-.28-1.75-1.12-.93-2.37a17.46,17.46,0,0,1,9.68-7.21C1956.49,3130.14,1957.29,3131.49,1958.07,3132.9Z" transform="translate(-1598.53 -2653.95)"/><path class="cls-7" d="M1921.49,2778.6c2,0,2.45-.06,2.94,0,2,.27,5.07-.65,5.07,2.35,0,3.21-3.16,2-5.08,2.13-2.29.17-4.61,0-6.91,0-1.19,0-2.4-.22-2.55-1.72s1-2.08,2.12-2.28C1919,2778.77,1921,2778.65,1921.49,2778.6Z" transform="translate(-1598.53 -2653.95)"/><path class="cls-9" d="M1966.12,3143.81l-15.52,2.78c3.07-4.58,6.54-7.35,11-8C1963.85,3138.33,1965.42,3140.78,1966.12,3143.81Z" transform="translate(-1598.53 -2653.95)"/><path class="cls-9" d="M1865.35,2992.53c.31-2.88,1.85-4.89,3.32-6.86.8-1.07,1.48-3.07,3.33-2.2,1.56.73,2,2.47,2.37,4.17.44,2.2-1.16,2.54-2.54,2.93C1869.71,2991.17,1867.85,2992.75,1865.35,2992.53Z" transform="translate(-1598.53 -2653.95)"/><path class="cls-5" d="M1886.74,2784.33c-1,3.75-4.19,2.94-6.51,3.68-.91.29-2.71.68-2.31-1.31s1.7-3.63,4.12-3.43C1883.64,2783.4,1885.61,2782.41,1886.74,2784.33Z" transform="translate(-1598.53 -2653.95)"/><path class="cls-8" d="M1904.09,2898.65a20.67,20.67,0,0,1-6.13-5.08c2.2-1.24,4.8-3.32,6.6-2C1906.06,2892.69,1904.74,2895.86,1904.09,2898.65Z" transform="translate(-1598.53 -2653.95)"/><path class="cls-9" d="M1929.8,3009.25c-.73-3.48-1.2-5.48-1.54-7.5-.16-.92-.69-2.14.32-2.72,1.25-.73,2.57.11,3.71.63s.76,1.6.36,2.55C1931.85,3004.11,1931.1,3006,1929.8,3009.25Z" transform="translate(-1598.53 -2653.95)"/><path class="cls-9" d="M1916.68,3006.86c-1.14-3-.55-5.28-.44-7.53.06-1.17.36-2.49,1.88-2.44a4.31,4.31,0,0,1,2.67,1c1,.93-.23,1.79-.63,2.6C1919.19,3002.38,1918.11,3004.24,1916.68,3006.86Z" transform="translate(-1598.53 -2653.95)"/><path class="cls-8" d="M1925.24,2878.24c.23,2.92,1.21,5.9-.43,7.12-1.84,1.35-3.47-1.55-5.91-2.55Z" transform="translate(-1598.53 -2653.95)"/><path class="cls-8" d="M1947,2879.14c-2-2.35-3.39-3.91-3.87-6.37,2.17-.13,4.63-.9,5.72.69S1947.64,2876.56,1947,2879.14Z" transform="translate(-1598.53 -2653.95)"/><path class="cls-8" d="M1977,2869c.9,2.24.08,4,.16,6.16-2.62-.62-4.29-1.94-6.42-3.93Z" transform="translate(-1598.53 -2653.95)"/><path class="cls-8" d="M1869.92,2896.13c3.27-.63,5.59-.86,6.66,1.87a1.71,1.71,0,0,1-1.15,2.34C1872.43,2900.85,1872,2898.1,1869.92,2896.13Z" transform="translate(-1598.53 -2653.95)"/><path class="cls-9" d="M1880.17,3001.44c-.14-1.68-.36-3-.33-4.27s-.7-2.83.88-3.47c1.23-.5,2,.69,2.85,1.48,1.34,1.27.58,2.36-.22,3.44S1882.09,3000.91,1880.17,3001.44Z" transform="translate(-1598.53 -2653.95)"/><path class="cls-8" d="M1847.58,2891.43c5.35.27,5.72,2.33,3.25,6.39Z" transform="translate(-1598.53 -2653.95)"/><path class="cls-5" d="M1893.22,2785.93c-.92.05-1.77-.23-1.75-1.25a2.13,2.13,0,0,1,2.32-2.09c1,0,2.18,0,2,1.46S1894.47,2785.84,1893.22,2785.93Z" transform="translate(-1598.53 -2653.95)"/><path class="cls-10" d="M1938.16,2813.28c-.29-.39-.59-.77-.88-1.15C1937.57,2812.51,1937.87,2812.89,1938.16,2813.28Z" transform="translate(-1598.53 -2653.95)"/><path class="cls-10" d="M2008.44,2982.65l.77-1.42Z" transform="translate(-1598.53 -2653.95)"/><path class="cls-11" d="M1842.32,2825.37l-.43.37.3-.49Z" transform="translate(-1598.53 -2653.95)"/><path class="cls-1" d="M1874.24,2837.18c0-3.4.23-5.7,1.32-7.81a3.31,3.31,0,0,1,3.63-2c1.67.29,3.43,1,3.68,2.8a68.52,68.52,0,0,1,.69,10.31c0,2.13-.63,4.51-3.36,4.79-3,.31-4.53-1.69-5.3-4.24A23,23,0,0,1,1874.24,2837.18Z" transform="translate(-1598.53 -2653.95)"/><path class="cls-1" d="M1965.79,2811.42c-1.83,0-3.66,0-5.49,0-17,.19-22-16.11-20.11-27.6.52-3.13,3.29-3.42,5.78-3.69a122.32,122.32,0,0,1,37.17,1.36c9.24,1.85,11.85,7.8,8.26,16.79C1986.57,2810.41,1976.73,2811.78,1965.79,2811.42Zm1-24.41c.24-1.26.22-1.85-.41-2.33-1.33-1-10.45-.26-11.33,1.15a121,121,0,0,0-6.47,11.18c-1.69,3.5,1.1,5.66,3.46,7.36,1.57,1.13,4.36,3.06,5.69.77C1961.22,2799.15,1964,2792.73,1966.79,2787Zm13.25,1.79c.12-1.86,0-2.67-1-3-1.47-.5-2.15.48-2.63,1.6-2.28,5.34-4.58,10.67-6.75,16.06-.4,1-2.09,2.44-.09,3.31,1.39.61,3.36.18,4-1.26C1976,2799.72,1978.13,2793.8,1980,2788.8Z" transform="translate(-1598.53 -2653.95)"/><path class="cls-5" d="M1966.79,2787c-2.8,5.72-5.57,12.14-9.06,18.13-1.33,2.29-4.12.36-5.69-.77-2.36-1.7-5.15-3.86-3.46-7.36a121,121,0,0,1,6.47-11.18c.88-1.41,10-2.15,11.33-1.15C1967,2785.16,1967,2785.75,1966.79,2787Z" transform="translate(-1598.53 -2653.95)"/><path class="cls-5" d="M1980,2788.8c-1.91,5-4,10.92-6.48,16.72-.6,1.44-2.57,1.87-4,1.26-2-.87-.31-2.3.09-3.31,2.17-5.39,4.47-10.72,6.75-16.06.48-1.12,1.16-2.1,2.63-1.6C1980,2786.13,1980.16,2786.94,1980,2788.8Z" transform="translate(-1598.53 -2653.95)"/><path d="M1748.94,2822.19a222.86,222.86,0,0,0,29.27-12.1,150.18,150.18,0,0,0,29.93-19.48c11.21-9.52,17.31-21.65,19.15-36,2.92-22.78-1.29-44.18-13.58-63.64-8.62-13.66-21.06-23-35.91-29.23-15.14-6.3-31-8.22-47.28-7.67-16.78.57-33.1,3.8-49.12,8.66a255.93,255.93,0,0,0-37.17,14.44c-11.55,5.58-21.8,12.89-29.83,23.05-8.7,11-13.22,23.7-14.87,37.5-1,8.37-1.47,16.78-.36,25.17,1.72,13,6.8,24.67,14.25,35.37,12.85,18.48,30.53,29.05,52.73,32.35a158.31,158.31,0,0,0,44-.08,4.82,4.82,0,0,1,3.88,1c11.68,8.64,24.92,12.91,39.33,13.76a6.18,6.18,0,0,0,6.47-4.06,6.34,6.34,0,0,0-2.17-7.33,26.88,26.88,0,0,1-7.65-9.1C1749.64,2824,1749.34,2823.15,1748.94,2822.19Zm5.63,17c-.91.07-1.36.15-1.8.13-12.65-.76-24.51-4.14-34.79-11.71a11.54,11.54,0,0,0-9.53-2.23,145.2,145.2,0,0,1-34.29,1.29c-10.39-.88-20.6-2.76-30-7.43-19.9-9.9-32.24-26.24-38.84-47.08-4.24-13.38-3.26-27-.83-40.62a64.38,64.38,0,0,1,15.07-31.67,77.64,77.64,0,0,1,22.56-17.5,227.81,227.81,0,0,1,34.5-14.31c17.66-5.86,35.71-9.77,54.38-10.32,15.46-.46,30.56,1.41,45,7.41s26.27,15.14,34.54,28.41c10.1,16.22,13.93,34.13,12.93,53.11a70.87,70.87,0,0,1-4.43,20.92c-3.45,9.32-10.21,15.95-17.8,21.85-13.42,10.44-28.62,17.57-44.49,23.4-4.14,1.52-8.35,2.88-12.45,4.5-2.22.89-2.41,1.56-2.1,3.94a9.44,9.44,0,0,0,.3,1.38,29.85,29.85,0,0,0,10.14,14.9Z" transform="translate(-1598.53 -2653.95)"/><path class="cls-9" d="M1754.57,2839.21l-2-1.63a29.85,29.85,0,0,1-10.14-14.9,9.44,9.44,0,0,1-.3-1.38c-.31-2.38-.12-3.05,2.1-3.94,4.1-1.62,8.31-3,12.45-4.5,15.87-5.83,31.07-13,44.49-23.4,7.59-5.9,14.35-12.53,17.8-21.85a70.87,70.87,0,0,0,4.43-20.92c1-19-2.83-36.89-12.93-53.11-8.27-13.27-20.18-22.43-34.54-28.41s-29.49-7.87-45-7.41c-18.67.55-36.72,4.46-54.38,10.32a227.81,227.81,0,0,0-34.5,14.31,77.64,77.64,0,0,0-22.56,17.5,64.38,64.38,0,0,0-15.07,31.67c-2.43,13.57-3.41,27.24.83,40.62,6.6,20.84,18.94,37.18,38.84,47.08,9.4,4.67,19.61,6.55,30,7.43a145.2,145.2,0,0,0,34.29-1.29,11.54,11.54,0,0,1,9.53,2.23c10.28,7.57,22.14,10.95,34.79,11.71C1753.21,2839.36,1753.66,2839.28,1754.57,2839.21Z" transform="translate(-1598.53 -2653.95)"/><text class="cls-12" transform="translate(45.11 128.87) rotate(-15.68)">404</text></svg>