<svg width="20" height="20" viewBox="0 0 20 20" fill="none" xmlns="http://www.w3.org/2000/svg">
<path d="M14.5834 11.6666C14.3394 12.5153 13.8559 13.2757 13.1908 13.8565C12.5257 14.4374 11.7072 14.8141 10.8334 14.9416C10.1501 15.0408 9.45378 15.0008 8.7863 14.8242C8.11882 14.6475 7.49392 14.3378 6.94911 13.9136C6.4043 13.4894 5.95082 12.9596 5.61589 12.3558C5.28096 11.752 5.07149 11.0867 5.00005 10.4C4.94472 9.71052 5.03303 9.01709 5.2594 8.36351C5.48578 7.70993 5.8453 7.11043 6.31522 6.60291C6.78515 6.09539 7.35527 5.69089 7.98952 5.41498C8.62378 5.13907 9.30839 4.99776 10.0001 4.99998C10.6482 5.00089 11.2902 5.12533 11.8917 5.36664C11.9864 5.40917 12.0936 5.4148 12.1923 5.38243C12.2909 5.35006 12.3739 5.28202 12.4251 5.19164L13.6251 2.98331C13.6509 2.93245 13.6664 2.87698 13.6708 2.8201C13.6751 2.76322 13.6682 2.70604 13.6504 2.65184C13.6326 2.59764 13.6042 2.5475 13.567 2.50427C13.5298 2.46105 13.4844 2.42561 13.4334 2.39998C12.1448 1.81657 10.729 1.57076 9.31914 1.6857C7.90933 1.80064 6.55198 2.27255 5.37493 3.05697C4.19788 3.84139 3.23986 4.91252 2.59112 6.16946C1.94238 7.4264 1.62426 8.8278 1.66672 10.2416C1.74884 12.3416 2.61203 14.3352 4.0872 15.8319C5.56237 17.3287 7.54322 18.2207 9.64172 18.3333C11.84 18.4308 13.9876 17.6549 15.6159 16.1749C17.2443 14.6948 18.2211 12.6309 18.3334 10.4333C18.3334 10.2666 18.3334 9.30831 18.3334 8.76665C18.3313 8.65681 18.2867 8.55206 18.209 8.47438C18.1313 8.39669 18.0266 8.35211 17.9167 8.34998H10.4167C10.3062 8.34998 10.2002 8.39388 10.1221 8.47202C10.044 8.55016 10.0001 8.65614 10.0001 8.76665V11.2666C10.0001 11.3772 10.044 11.4831 10.1221 11.5613C10.2002 11.6394 10.3062 11.6833 10.4167 11.6833H14.5834" fill="#231F20"/>
</svg>
