<svg width="27" height="33" viewBox="0 0 27 33" fill="none" xmlns="http://www.w3.org/2000/svg">
<g id="Google Play logo" filter="url(#filter0_ii_529_1163)">
<path id="Vector" d="M1.09771 0.608021C0.771378 0.995793 0.578491 1.5976 0.578491 2.37692V30.221C0.578491 31.0016 0.771378 31.6021 1.09771 31.9899C1.14211 32.0384 1.21871 32.0379 1.26244 31.9888L14.9518 16.62C15.0306 16.5316 15.0741 16.4174 15.0741 16.299C15.0741 16.1806 15.0306 16.0663 14.9518 15.9779L1.26306 0.608583C1.21909 0.559223 1.14201 0.558961 1.09771 0.608021Z" fill="url(#paint0_linear_529_1163)"/>
<path id="Vector_2" d="M19.8096 21.6178C19.7487 21.6557 19.6693 21.6442 19.6217 21.5906L15.196 16.6196C15.1173 16.5312 15.0738 16.4169 15.0738 16.2985C15.0738 16.1801 15.1173 16.0659 15.196 15.9775L19.6229 11.0075C19.6704 10.9542 19.7495 10.9433 19.8096 10.9818L25.2967 14.4818C26.8634 15.4814 26.8634 17.1169 25.2967 18.1178L19.8096 21.6178Z" fill="url(#paint1_linear_529_1163)"/>
<g id="Vector_3" filter="url(#filter1_i_529_1163)">
<path d="M16.7405 23.5748C18.3502 22.5479 18.6582 20.3241 17.3882 18.8984C16.155 17.5139 13.9905 17.5139 12.7573 18.8985L2.80574 30.0718C1.82486 31.1731 2.18375 32.8599 3.4278 32.0678L16.7405 23.5748Z" fill="url(#paint2_linear_529_1163)"/>
</g>
<path id="Vector_4" d="M17.3892 13.6994C18.6588 12.2734 18.3505 10.05 16.7409 9.02323L3.4278 0.531029C2.1843 -0.262293 1.82502 1.42589 2.8061 2.52732L12.7578 13.6999C13.9912 15.0846 16.1562 15.0844 17.3892 13.6994Z" fill="url(#paint3_linear_529_1163)"/>
</g>
<defs>
<filter id="filter0_ii_529_1163" x="0.578491" y="0.326172" width="25.8932" height="31.9463" filterUnits="userSpaceOnUse" color-interpolation-filters="sRGB">
<feFlood flood-opacity="0" result="BackgroundImageFix"/>
<feBlend mode="normal" in="SourceGraphic" in2="BackgroundImageFix" result="shape"/>
<feColorMatrix in="SourceAlpha" type="matrix" values="0 0 0 0 0 0 0 0 0 0 0 0 0 0 0 0 0 0 127 0" result="hardAlpha"/>
<feOffset dy="-0.168214"/>
<feComposite in2="hardAlpha" operator="arithmetic" k2="-1" k3="1"/>
<feColorMatrix type="matrix" values="0 0 0 0 0 0 0 0 0 0 0 0 0 0 0 0 0 0 0.12 0"/>
<feBlend mode="normal" in2="shape" result="effect1_innerShadow_529_1163"/>
<feColorMatrix in="SourceAlpha" type="matrix" values="0 0 0 0 0 0 0 0 0 0 0 0 0 0 0 0 0 0 127 0" result="hardAlpha"/>
<feOffset dy="0.168214"/>
<feComposite in2="hardAlpha" operator="arithmetic" k2="-1" k3="1"/>
<feColorMatrix type="matrix" values="0 0 0 0 1 0 0 0 0 1 0 0 0 0 1 0 0 0 0.25 0"/>
<feBlend mode="normal" in2="effect1_innerShadow_529_1163" result="effect2_innerShadow_529_1163"/>
</filter>
<filter id="filter1_i_529_1163" x="2.24249" y="17.8599" width="15.9313" height="14.4126" filterUnits="userSpaceOnUse" color-interpolation-filters="sRGB">
<feFlood flood-opacity="0" result="BackgroundImageFix"/>
<feBlend mode="normal" in="SourceGraphic" in2="BackgroundImageFix" result="shape"/>
<feColorMatrix in="SourceAlpha" type="matrix" values="0 0 0 0 0 0 0 0 0 0 0 0 0 0 0 0 0 0 127 0" result="hardAlpha"/>
<feOffset dy="-0.168214"/>
<feComposite in2="hardAlpha" operator="arithmetic" k2="-1" k3="1"/>
<feColorMatrix type="matrix" values="0 0 0 0 0 0 0 0 0 0 0 0 0 0 0 0 0 0 0.08 0"/>
<feBlend mode="normal" in2="shape" result="effect1_innerShadow_529_1163"/>
</filter>
<linearGradient id="paint0_linear_529_1163" x1="13.8425" y1="2.08231" x2="-7.14537" y2="20.7768" gradientUnits="userSpaceOnUse">
<stop stop-color="#00A0FF"/>
<stop offset="0.0066" stop-color="#00A1FF"/>
<stop offset="0.2601" stop-color="#00BEFF"/>
<stop offset="0.5122" stop-color="#00D2FF"/>
<stop offset="0.7604" stop-color="#00DFFF"/>
<stop offset="1" stop-color="#00E3FF"/>
</linearGradient>
<linearGradient id="paint1_linear_529_1163" x1="27.3361" y1="16.2985" x2="0.20208" y2="16.2985" gradientUnits="userSpaceOnUse">
<stop stop-color="#FFE000"/>
<stop offset="0.4087" stop-color="#FFBD00"/>
<stop offset="0.7754" stop-color="#FFA500"/>
<stop offset="1" stop-color="#FF9C00"/>
</linearGradient>
<linearGradient id="paint2_linear_529_1163" x1="17.2372" y1="19.1869" x2="-11.225" y2="44.539" gradientUnits="userSpaceOnUse">
<stop stop-color="#FF3A44"/>
<stop offset="1" stop-color="#C31162"/>
</linearGradient>
<linearGradient id="paint3_linear_529_1163" x1="-2.42224" y1="-8.65993" x2="10.2869" y2="2.66049" gradientUnits="userSpaceOnUse">
<stop stop-color="#32A071"/>
<stop offset="0.0685" stop-color="#2DA771"/>
<stop offset="0.4762" stop-color="#15CF74"/>
<stop offset="0.8009" stop-color="#06E775"/>
<stop offset="1" stop-color="#00F076"/>
</linearGradient>
</defs>
</svg>
