<svg width="34" height="32" viewBox="0 0 34 32" fill="none" xmlns="http://www.w3.org/2000/svg">
<rect width="34" height="32" rx="10" fill="white"/>
<path d="M20.9062 8.1875C19.3367 8.1875 17.9437 8.80703 17 9.87188C16.0563 8.80703 14.6633 8.1875 13.0938 8.1875C11.7267 8.18915 10.4162 8.73293 9.44956 9.69956C8.48293 10.6662 7.93915 11.9767 7.9375 13.3438C7.9375 18.9953 16.2039 23.5109 16.5555 23.7008C16.6921 23.7744 16.8448 23.8129 17 23.8129C17.1552 23.8129 17.3079 23.7744 17.4445 23.7008C17.7961 23.5109 26.0625 18.9953 26.0625 13.3438C26.0608 11.9767 25.5171 10.6662 24.5504 9.69956C23.5838 8.73293 22.2733 8.18915 20.9062 8.1875ZM20.4773 19.3094C19.3893 20.2327 18.2261 21.0637 17 21.7938C15.7739 21.0637 14.6107 20.2327 13.5227 19.3094C11.8297 17.857 9.8125 15.6422 9.8125 13.3438C9.8125 12.4735 10.1582 11.6389 10.7736 11.0236C11.3889 10.4082 12.2235 10.0625 13.0938 10.0625C14.4844 10.0625 15.6484 10.7969 16.132 11.9797C16.2024 12.1521 16.3226 12.2997 16.4772 12.4035C16.6317 12.5074 16.8138 12.5629 17 12.5629C17.1862 12.5629 17.3683 12.5074 17.5228 12.4035C17.6774 12.2997 17.7976 12.1521 17.868 11.9797C18.3516 10.7969 19.5156 10.0625 20.9062 10.0625C21.7765 10.0625 22.6111 10.4082 23.2264 11.0236C23.8418 11.6389 24.1875 12.4735 24.1875 13.3438C24.1875 15.6422 22.1703 17.857 20.4773 19.3094Z" fill="black"/>
</svg>
