<svg width="32" height="33" viewBox="0 0 32 33" fill="none" xmlns="http://www.w3.org/2000/svg">
<path d="M22.25 4C19.7388 4 17.51 4.99125 16 6.695C14.49 4.99125 12.2612 4 9.75 4C7.56278 4.00265 5.46589 4.87269 3.91929 6.41929C2.37269 7.96589 1.50265 10.0628 1.5 12.25C1.5 21.2925 14.7262 28.5175 15.2887 28.8213C15.5073 28.939 15.7517 29.0006 16 29.0006C16.2483 29.0006 16.4927 28.939 16.7113 28.8213C17.2738 28.5175 30.5 21.2925 30.5 12.25C30.4974 10.0628 29.6273 7.96589 28.0807 6.41929C26.5341 4.87269 24.4372 4.00265 22.25 4ZM21.5637 21.795C19.8228 23.2723 17.9618 24.6019 16 25.77C14.0382 24.6019 12.1772 23.2723 10.4362 21.795C7.7275 19.4713 4.5 15.9275 4.5 12.25C4.5 10.8576 5.05312 9.52225 6.03769 8.53769C7.02225 7.55312 8.35761 7 9.75 7C11.975 7 13.8375 8.175 14.6112 10.0675C14.7239 10.3434 14.9161 10.5795 15.1634 10.7457C15.4108 10.9118 15.702 11.0006 16 11.0006C16.298 11.0006 16.5892 10.9118 16.8366 10.7457C17.0839 10.5795 17.2761 10.3434 17.3888 10.0675C18.1625 8.175 20.025 7 22.25 7C23.6424 7 24.9777 7.55312 25.9623 8.53769C26.9469 9.52225 27.5 10.8576 27.5 12.25C27.5 15.9275 24.2725 19.4713 21.5637 21.795Z" fill="black"/>
</svg>
