<svg width="96" height="67" viewBox="0 0 96 67" fill="none" xmlns="http://www.w3.org/2000/svg">
<path d="M56.8675 53.0686C53.1075 53.0686 50.0847 56.2326 50.3164 60.0436C50.5141 63.3121 53.1724 65.9732 56.4381 66.1823C60.2547 66.4252 63.4272 63.3997 63.4272 59.6339C63.43 56.0066 60.492 53.0686 56.8675 53.0686ZM92.0586 6.17082H49.9067C48.9236 6.17082 48.2908 7.21042 48.7428 8.08335L49.2259 9.0156C49.4463 9.44217 49.8841 9.71337 50.3644 9.72467L86.934 10.4253C87.8041 10.4422 88.4171 11.2869 88.1629 12.1203L83.8407 26.2481C83.6683 26.8074 83.1485 27.186 82.5609 27.1747L52.0594 26.5871C51.5396 26.5758 51.0763 26.2622 50.8757 25.782L40.6464 1.29487C40.443 0.806146 39.9656 0.489746 39.4373 0.489746H25.0383C24.2162 0.489746 23.5975 1.23837 23.7501 2.04632C24.0156 3.43622 25.1145 4.5182 26.5101 4.75832L35.5247 6.32055C36.0247 6.40812 36.4287 6.77255 36.5643 7.26127L48.3219 49.5685C48.4942 50.1928 49.1016 50.5968 49.7429 50.5177L88.3352 45.7914C88.9031 45.7208 89.3607 45.2914 89.4652 44.7264L90.0302 41.6387C90.1771 40.8336 89.5584 40.0906 88.742 40.0906L57.102 40.0934C56.5427 40.0934 56.0426 39.7375 55.8618 39.2064L54.9691 36.5961C54.6782 35.7457 55.311 34.8615 56.2093 34.8615H88.4567C90.0754 34.8615 91.4597 33.7033 91.745 32.11L95.6237 10.4281C96.022 8.21047 94.3158 6.17082 92.0586 6.17082ZM84.2842 48.9244C81.4479 48.639 79.0777 51.0036 79.3602 53.8399C79.5664 55.9388 81.2643 57.6367 83.3632 57.8429C86.1995 58.1226 88.5612 55.7609 88.2844 52.9274C88.0753 50.8312 86.3803 49.1334 84.2842 48.9244ZM43.6409 38.873L1.31109 47.2265C0.715012 47.3452 0.497487 46.4751 1.07944 46.2971L41.7312 33.9151C41.9883 33.836 42.2595 33.9858 42.3329 34.2428L43.6409 38.873ZM41.6577 31.8698L9.49511 38.6131C8.94706 38.729 8.73801 37.9266 9.27476 37.76L40.1492 28.1945C40.3865 28.1211 40.6351 28.2567 40.7029 28.4968L41.6577 31.8698ZM39.6435 25.3497L10.1562 31.1721C9.85106 31.2314 9.74089 30.7879 10.0375 30.6975L38.4485 22.0445C38.5785 22.0049 38.7169 22.0812 38.7565 22.2112L39.6435 25.3497Z" fill="#FF4858"/>
</svg>
