<svg width="34" height="32" viewBox="0 0 34 32" fill="none" xmlns="http://www.w3.org/2000/svg">
<rect width="34" height="32" rx="10" fill="white"/>
<path d="M24.9797 8.02031C24.7833 7.82389 24.5381 7.68336 24.2694 7.61319C24.0007 7.54302 23.7181 7.54575 23.4508 7.6211L23.4336 7.62656L8.44062 12.1719C8.13609 12.2602 7.86563 12.439 7.66516 12.6847C7.46469 12.9303 7.3437 13.2312 7.31827 13.5472C7.29283 13.8633 7.36416 14.1796 7.52276 14.4542C7.68137 14.7287 7.91975 14.9485 8.20625 15.0844L14.7937 18.2094L17.9187 24.7969C18.0435 25.0645 18.2422 25.2908 18.4913 25.4491C18.7405 25.6075 19.0298 25.6913 19.325 25.6906C19.3695 25.6906 19.4148 25.6906 19.4602 25.6852C19.776 25.66 20.0764 25.5385 20.321 25.3372C20.5657 25.1359 20.7427 24.8644 20.8281 24.5594L25.3734 9.56641C25.3757 9.56084 25.3775 9.55509 25.3789 9.54922C25.4543 9.28189 25.457 8.99931 25.3868 8.73058C25.3166 8.46185 25.1761 8.21668 24.9797 8.02031ZM19.2656 23.2594L16.6312 17.6977L20.1664 14.1625C20.3425 13.9864 20.4415 13.7475 20.4415 13.4984C20.4415 13.2494 20.3425 13.0105 20.1664 12.8344C19.9903 12.6583 19.7514 12.5593 19.5023 12.5593C19.2533 12.5593 19.0144 12.6583 18.8383 12.8344L15.3031 16.3695L9.74062 13.7344L23.4062 9.59375L19.2656 23.2594Z" fill="black"/>
</svg>
